<?xml version="1.0" standalone="no"?>
<!DOCTYPE svg PUBLIC "-//W3C//DTD SVG 20010904//EN"
 "http://www.w3.org/TR/2001/REC-SVG-20010904/DTD/svg10.dtd">
<svg version="1.0" xmlns="http://www.w3.org/2000/svg"
 width="1021.000000pt" height="155.000000pt" viewBox="0 0 1021.000000 155.000000"
 preserveAspectRatio="xMidYMid meet">
<metadata>
Created by potrace 1.16, written by Peter Selinger 2001-2019
</metadata>
<g transform="translate(0.000000,155.000000) scale(0.100000,-0.100000)"
fill="gray" stroke="none">
<path d="M2606 1542 c7 -7 575 -362 1406 -879 l38 -23 30 53 c27 47 28 53 13
64 -20 15 -36 4 -53 -37 -7 -17 -16 -30 -21 -30 -14 0 -11 17 10 58 19 37 19
38 0 50 -16 10 -21 8 -35 -13 -9 -14 -20 -22 -26 -19 -5 3 -2 17 8 31 13 21
14 27 3 34 -8 5 -23 8 -34 6 -12 -1 -20 4 -20 12 0 8 -246 168 -550 358 l-550
343 -114 0 c-64 0 -111 -4 -105 -8z"/>
<path d="M5305 1523 c7 -16 27 -57 43 -93 16 -36 53 -113 80 -172 28 -59 61
-128 73 -155 12 -26 35 -77 52 -113 16 -36 42 -92 57 -125 15 -33 43 -94 63
-135 19 -41 45 -97 57 -125 13 -27 49 -106 81 -174 33 -68 59 -125 59 -126 0
-2 20 -45 44 -96 24 -52 55 -120 70 -151 l26 -58 45 0 c48 0 50 1 35 28 -5 9
-27 55 -49 102 -21 47 -57 125 -81 175 -62 134 -85 182 -124 268 -20 42 -51
110 -70 150 -18 39 -44 95 -56 122 -12 28 -45 97 -72 155 -28 58 -61 130 -75
160 -13 30 -33 73 -43 95 -82 174 -130 279 -130 286 0 5 -22 9 -49 9 l-49 0
13 -27z"/>
<path d="M7701 1546 c2 -2 58 -36 124 -76 142 -86 535 -325 830 -505 116 -70
408 -248 650 -395 242 -147 545 -331 673 -409 l232 -141 0 765 0 765 -1257 0
c-691 0 -1254 -2 -1252 -4z"/>
<path d="M4585 387 c-14 -24 -25 -49 -25 -55 0 -6 116 -83 258 -171 l257 -161
115 0 115 0 -35 23 c-56 38 -650 407 -655 407 -2 0 -16 -20 -30 -43z"/>
</g>
</svg>
