<?xml version="1.0" standalone="no"?>
<!DOCTYPE svg PUBLIC "-//W3C//DTD SVG 20010904//EN"
 "http://www.w3.org/TR/2001/REC-SVG-20010904/DTD/svg10.dtd">
<svg version="1.0" xmlns="http://www.w3.org/2000/svg"
 width="820.000000pt" height="800.000000pt" viewBox="0 0 820.000000 800.000000"
 preserveAspectRatio="xMidYMid meet">
<metadata>
Created by potrace 1.16, written by Peter Selinger 2001-2019
</metadata>
<g transform="translate(0.000000,800.000000) scale(0.100000,-0.100000)"
fill="#078DE7" stroke="none">
<path d="M4204 7991 c-40 -10 -54 -19 -54 -36 0 -7 -12 -16 -26 -19 -34 -9
-123 -99 -149 -151 -11 -22 -23 -42 -28 -43 -4 -2 -5 -7 -2 -12 3 -4 1 -19 -4
-32 l-10 -23 0 23 c-1 27 -18 62 -30 62 -5 0 -4 -14 2 -30 9 -23 9 -35 0 -49
-10 -15 -8 -22 7 -36 10 -9 16 -24 13 -32 -5 -12 -7 -12 -14 -2 -9 16 -9 16
-43 -39 -15 -23 -39 -47 -54 -53 -15 -6 -42 -22 -59 -35 -37 -28 -40 -21 -18
45 16 46 13 71 -11 96 -14 13 -14 17 0 37 18 25 22 73 6 63 -5 -3 -10 -13 -10
-20 0 -8 -26 -54 -57 -101 -56 -87 -68 -126 -49 -166 7 -15 3 -18 -18 -18 -22
0 -26 4 -26 31 0 27 -2 30 -16 19 -20 -18 -35 -47 -45 -89 -6 -29 -4 -37 12
-49 23 -16 26 -78 4 -109 -17 -25 -14 -147 5 -182 6 -12 30 -30 54 -40 34 -15
96 -76 96 -95 0 -2 -12 -6 -27 -8 -24 -3 -30 -11 -44 -52 -9 -30 -27 -59 -47
-76 -35 -29 -41 -43 -15 -33 23 9 -70 -111 -110 -141 -18 -13 -77 -47 -132
-76 -160 -84 -243 -164 -285 -277 -32 -86 -25 -105 78 -197 107 -96 124 -105
340 -181 10 -4 9 -10 -4 -30 -25 -38 -9 -43 28 -9 18 16 26 21 19 12 -7 -10
-10 -18 -5 -18 4 0 -2 -11 -14 -23 l-22 -24 25 -37 c16 -23 25 -51 25 -74 0
-46 -40 -134 -70 -155 -20 -14 -26 -14 -64 3 -55 23 -133 40 -233 49 -66 7
-98 16 -157 46 l-74 37 -68 -15 c-74 -17 -73 -17 -156 -125 -26 -33 -76 -84
-111 -111 -48 -38 -70 -63 -86 -100 -27 -63 -29 -98 -3 -60 48 72 68 99 74 99
3 0 4 -19 2 -42 l-4 -43 15 39 c20 51 27 58 19 18 -5 -23 -2 -33 9 -38 12 -4
1 -20 -45 -67 -67 -68 -94 -104 -84 -114 3 -4 20 6 36 22 l30 29 -1 -90 c-1
-106 -12 -179 -45 -293 -13 -46 -24 -93 -24 -105 1 -20 1 -20 15 4 23 39 53
146 70 250 23 135 55 284 63 291 4 3 25 18 46 32 40 27 58 29 39 5 -19 -23
-93 -175 -93 -189 1 -20 35 23 82 106 46 77 108 149 150 171 43 22 54 16 27
-13 -73 -81 -106 -143 -148 -278 -48 -157 -103 -285 -156 -365 -43 -65 -95
-181 -95 -212 0 -23 136 130 183 206 27 43 51 75 54 73 7 -7 -18 -50 -92 -157
l-66 -95 61 65 c33 36 67 77 75 91 9 16 26 29 46 33 49 9 54 8 34 -14 -18 -20
-18 -20 16 -15 28 5 26 2 -16 -15 -55 -22 -139 -99 -117 -107 10 -4 10 -8 0
-21 -10 -12 -10 -16 0 -19 6 -3 12 -11 12 -19 0 -8 5 -14 12 -14 9 0 9 -3 -1
-12 -10 -11 -15 -9 -26 6 -8 10 -21 16 -29 13 -15 -6 -76 -117 -90 -165 l-7
-22 23 22 c32 31 72 98 58 98 -8 0 -8 6 0 20 12 22 40 17 40 -7 0 -12 3 -13
15 -3 12 10 13 6 8 -24 -11 -68 61 -102 120 -56 14 11 30 20 36 20 18 0 13
-54 -10 -96 l-20 -39 5 33 c8 45 -21 58 -84 39 -64 -18 -74 -44 -76 -188 -1
-64 1 -122 6 -129 7 -11 17 -9 57 8 26 11 50 19 52 17 2 -2 -2 -27 -9 -56 -15
-62 -7 -242 14 -334 12 -51 14 -55 15 -25 2 49 21 18 21 -33 0 -21 4 -36 9
-33 11 7 31 -47 31 -87 0 -16 -7 -56 -15 -89 -9 -32 -17 -92 -18 -132 l-3 -74
49 74 c26 41 52 74 57 74 4 0 29 28 53 63 46 64 110 204 143 310 10 31 21 57
25 57 4 0 12 -30 19 -67 19 -110 19 -109 41 -87 19 20 69 177 69 219 0 13 5
27 10 30 6 3 10 27 10 53 0 26 5 54 11 62 7 11 9 -13 7 -80 -3 -87 -8 -105
-54 -220 -28 -69 -54 -134 -58 -145 -6 -16 -9 -17 -16 -5 -6 8 -10 29 -10 47
0 17 -7 38 -15 47 -8 8 -15 27 -16 43 -1 22 -5 17 -18 -25 -10 -30 -22 -57
-28 -60 -6 -4 -24 -41 -42 -82 -17 -41 -42 -96 -56 -122 -13 -26 -20 -48 -14
-50 9 -3 -46 -115 -85 -169 l-16 -23 -1 34 c0 28 -3 23 -14 -27 -7 -34 -19
-71 -25 -83 -17 -32 3 -106 65 -235 52 -107 115 -190 115 -151 0 9 -11 27 -25
40 -27 25 -135 243 -135 272 0 9 3 14 6 11 8 -7 52 -111 62 -142 3 -11 19 -40
35 -65 16 -25 26 -36 22 -25 -4 11 -25 67 -47 124 -22 58 -42 119 -45 138 -7
40 18 97 52 119 24 16 105 193 165 364 18 52 28 71 26 50 -6 -53 -52 -208 -79
-270 -27 -61 -44 -125 -27 -100 7 11 10 6 10 -22 0 -20 -5 -38 -12 -40 -9 -3
-8 -18 5 -57 9 -29 17 -64 17 -76 0 -29 10 -55 20 -55 5 0 7 17 4 37 l-4 38
16 -45 c17 -49 25 -273 11 -322 -13 -50 13 -31 38 27 32 72 42 110 25 100 -9
-5 -10 -2 -5 15 4 14 3 20 -2 17 -11 -7 -28 161 -27 268 1 71 21 191 31 181 3
-3 12 -63 20 -133 8 -70 18 -150 23 -178 6 -45 7 -47 10 -15 1 19 2 46 1 60 0
22 1 21 17 -10 l17 -35 3 68 c2 39 7 67 14 67 7 0 9 18 5 53 -4 34 -3 45 3 32
5 -11 9 -37 9 -58 1 -22 5 -36 11 -32 5 3 14 -14 20 -37 15 -59 51 -161 62
-173 11 -12 10 32 -1 73 -6 20 -6 32 0 32 5 0 9 -9 9 -19 0 -11 5 -23 10 -26
6 -3 10 -25 10 -49 0 -36 -7 -50 -45 -95 -65 -76 -55 -77 15 -1 64 69 100 118
65 90 -17 -14 -18 -13 -13 15 3 17 13 55 21 85 9 30 24 91 33 134 13 64 18 76
26 62 6 -10 10 -41 11 -70 0 -28 2 -45 4 -38 4 10 9 8 19 -5 12 -17 13 -16 15
12 1 18 3 23 6 12 3 -10 -2 -39 -11 -64 -19 -56 -15 -66 10 -24 10 17 24 31
31 31 9 0 13 16 14 48 0 44 17 107 18 71 1 -8 8 -24 17 -35 14 -18 15 -18 4 4
-6 13 -10 33 -8 45 3 14 9 1 18 -36 8 -35 10 -61 4 -65 -5 -4 -9 -23 -10 -42
0 -19 -3 -48 -7 -65 -4 -16 7 8 23 55 l30 85 -5 -65 c-4 -72 -9 -107 -20 -140
-5 -17 -4 -20 5 -15 10 6 11 -1 6 -31 -5 -28 -4 -35 3 -24 6 8 11 23 11 33 0
9 8 25 19 36 10 10 26 42 36 70 9 28 21 53 26 56 5 4 10 18 10 33 1 21 2 22 6
7 10 -41 23 -39 23 5 0 33 3 41 11 33 9 -9 9 -26 0 -69 -6 -32 -11 -76 -11
-98 1 -38 2 -40 15 -22 8 10 24 49 36 85 27 83 44 103 34 41 -4 -25 -13 -64
-20 -87 -16 -52 -5 -49 20 7 10 22 21 40 25 40 9 0 67 -156 79 -215 34 -164
25 -228 -64 -490 -95 -280 -108 -389 -80 -660 8 -77 15 -192 15 -255 0 -103
-2 -117 -20 -133 -11 -9 -23 -34 -26 -56 -7 -45 -25 -65 -69 -76 -30 -8 -30
-8 12 -15 24 -3 45 -9 48 -12 7 -6 -30 -38 -98 -85 -52 -36 -74 -87 -63 -145
3 -18 35 -71 71 -118 75 -99 119 -202 130 -305 9 -90 15 -105 79 -190 103
-137 162 -171 217 -126 22 17 26 18 52 4 34 -17 50 -13 72 21 16 25 16 26 -23
73 -44 53 -82 123 -82 151 0 10 -4 22 -9 28 -10 10 -23 438 -14 448 3 3 15 -8
25 -25 23 -38 34 -31 19 12 -6 18 -8 35 -5 38 9 9 54 -48 54 -69 0 -25 18 -36
26 -15 9 22 -13 103 -37 137 -24 33 -9 37 32 7 26 -18 29 -19 29 -3 0 28 -40
84 -61 84 -12 0 -19 7 -19 19 0 10 -8 42 -17 71 -16 50 -16 55 7 158 13 59 43
172 67 252 33 112 103 406 103 435 0 3 5 5 12 5 6 0 20 7 29 16 16 14 23 15
49 4 36 -15 57 -8 71 24 10 22 7 30 -23 68 -79 98 -91 143 -68 245 5 23 17 88
25 145 13 86 25 132 42 157 5 7 73 -73 73 -84 0 -11 69 -69 75 -63 3 2 -7 20
-21 40 -22 30 -27 51 -31 122 -4 64 -3 86 6 86 7 0 46 -13 88 -30 82 -33 93
-35 93 -19 0 5 -32 24 -70 41 -79 35 -77 48 8 48 56 0 64 8 31 28 -17 11 -20
11 -14 0 5 -7 -1 -3 -13 8 -11 12 -40 24 -65 28 -38 6 -49 13 -71 46 -15 23
-26 54 -26 74 0 36 85 272 122 337 12 22 25 36 29 32 4 -5 22 -45 39 -91 18
-46 34 -81 36 -79 3 3 -4 41 -15 85 -29 112 -27 141 4 73 14 -30 27 -52 30
-50 3 4 -14 76 -39 164 -6 19 8 54 17 45 3 -3 32 -75 65 -162 50 -130 110
-263 87 -193 -4 11 -31 91 -61 179 -30 87 -53 161 -50 163 2 2 12 -17 22 -44
9 -26 21 -52 26 -58 6 -6 6 -2 2 9 -6 17 -4 18 21 12 70 -18 112 -73 163 -211
55 -151 85 -225 89 -222 2 2 -19 69 -47 149 -27 80 -50 149 -50 153 0 4 7 2
15 -5 37 -30 20 2 -40 75 -35 44 -64 87 -65 96 0 9 -8 40 -18 70 -28 81 -35
112 -22 104 13 -8 13 -4 -7 70 -16 61 -16 65 2 105 25 55 34 44 80 -108 21
-67 40 -120 42 -118 6 6 -17 206 -29 246 -5 19 -15 53 -22 75 -13 40 -5 105
13 105 4 0 20 -55 35 -122 36 -158 36 -159 33 -56 -2 48 1 85 5 82 5 -3 6 5 4
18 -41 180 -40 178 -28 178 15 0 92 -139 106 -192 8 -30 19 -121 26 -204 15
-188 27 -242 30 -129 1 60 4 74 11 55 7 -20 7 -17 4 15 -3 22 -9 85 -14 140
-6 66 -18 123 -36 170 -40 105 -41 129 -2 52 19 -37 39 -68 43 -68 5 -1 15 -6
22 -12 8 -6 4 5 -8 25 -26 44 -70 216 -70 274 0 25 6 49 16 58 19 19 26 20 43
4 11 -11 11 -9 2 10 -11 22 1 33 14 12 3 -5 11 -10 16 -10 6 0 3 10 -5 22 -9
12 -16 31 -16 41 0 32 24 12 42 -34 9 -24 17 -38 17 -31 1 23 19 3 52 -59 39
-72 51 -72 14 1 -14 29 -24 54 -21 57 3 3 13 -13 22 -36 18 -45 34 -54 34 -18
0 21 -20 63 -20 42 0 -5 -17 15 -39 44 -33 47 -38 60 -33 96 2 23 -1 52 -7 64
-7 11 -8 21 -4 21 5 0 17 -17 28 -37 11 -20 48 -72 82 -115 43 -55 68 -97 83
-145 12 -38 40 -99 61 -136 22 -38 39 -71 39 -74 0 -13 64 -95 67 -86 2 6 -16
51 -40 100 -25 48 -66 139 -92 201 -26 63 -69 146 -94 185 -87 132 -105 168
-84 160 16 -6 16 -5 4 10 -22 27 -3 20 50 -19 26 -19 84 -76 127 -127 106
-122 188 -209 164 -172 -11 17 -39 48 -61 70 -41 39 -57 70 -23 44 9 -8 -3 11
-28 41 -25 30 -54 68 -63 83 -10 15 -23 25 -29 21 -7 -4 -8 -3 -4 5 5 7 -6 29
-26 54 -19 23 -37 50 -41 60 -6 16 -4 16 11 5 59 -42 153 -121 204 -172 33
-32 62 -56 65 -53 9 10 -80 121 -172 213 -103 104 -218 193 -290 225 -54 24
-86 49 -63 49 37 0 233 -113 326 -187 27 -22 42 -29 42 -20 0 16 -34 49 -43
42 -4 -3 -5 -2 -2 2 3 4 -7 19 -22 35 l-26 28 29 -9 c16 -5 54 -18 84 -30 30
-11 60 -21 65 -21 17 1 -42 29 -134 65 -49 18 -110 45 -137 58 -46 23 -248
169 -259 187 -7 11 146 -36 245 -76 175 -70 135 -33 -82 76 -233 117 -327 155
-366 145 -14 -3 -21 -2 -18 4 8 12 93 41 120 41 23 0 125 -45 298 -132 113
-56 145 -68 133 -49 -5 9 -274 164 -399 230 -53 28 -56 31 -30 32 25 0 26 2 9
9 -33 14 -89 11 -113 -6 -24 -17 -163 -66 -169 -60 -5 5 61 31 117 46 25 7 40
15 33 17 -11 4 -106 -17 -145 -32 -27 -11 -22 12 20 84 34 59 41 65 85 76 26
7 50 14 52 17 6 6 -9 45 -26 69 -10 13 -1 30 47 94 136 179 178 252 234 410
30 83 32 97 27 180 -6 105 -39 225 -102 373 -31 73 -39 102 -29 102 10 0 8 6
-6 20 -11 11 -20 26 -20 34 0 8 -8 29 -17 46 -14 25 -15 34 -5 37 6 3 12 14
12 25 0 12 -3 18 -7 15 -9 -10 -33 41 -33 71 0 14 3 23 6 20 10 -10 53 42 48
57 -4 8 -1 15 5 15 7 0 14 8 18 18 3 9 14 37 26 61 16 36 17 45 6 52 -9 6 -10
9 -2 9 19 0 27 41 24 119 -3 65 -1 73 13 68 11 -4 16 -1 16 11 0 27 -29 62
-52 62 -16 0 -19 4 -14 23 3 12 6 34 6 50 0 21 5 27 21 27 17 0 20 -5 18 -34
-3 -33 16 -70 31 -61 4 2 10 23 14 46 6 39 4 43 -31 75 -47 41 -63 42 -106 4
-19 -16 -40 -30 -46 -30 -14 0 -79 135 -88 182 -5 30 -69 128 -99 153 -7 6
-27 40 -46 76 -23 48 -47 78 -83 106 -86 66 -101 73 -160 73 -40 0 -57 4 -61
15 -5 12 -23 15 -78 14 -39 -1 -85 -4 -102 -8z m153 -31 c9 0 13 -6 10 -14 -4
-9 -1 -13 7 -10 7 3 21 -14 35 -41 18 -36 28 -45 49 -46 27 -1 27 -1 -3 -8
-25 -5 -31 -11 -33 -41 -2 -19 -8 -38 -14 -41 -7 -4 -3 -15 11 -30 36 -38 22
-50 -34 -29 -20 8 -26 16 -22 30 3 10 0 21 -7 23 -6 3 3 11 19 18 l30 13 -42
4 c-24 2 -43 6 -43 8 0 3 10 14 23 25 14 12 17 18 8 19 -11 0 -9 5 5 21 13 15
15 23 7 26 -7 2 -9 11 -6 19 4 10 -2 14 -20 14 -16 0 -26 7 -30 19 -6 24 2 34
21 26 7 -3 20 -5 29 -5z m-95 -502 c-2 -55 0 -68 13 -68 8 0 15 -6 15 -14 0
-7 14 -19 30 -26 17 -7 42 -22 56 -32 15 -13 43 -21 77 -22 28 -1 62 -8 74
-14 21 -12 43 -65 43 -105 0 -30 -28 -74 -65 -103 -19 -14 -33 -30 -30 -34 3
-5 0 -12 -6 -16 -8 -5 -9 -3 -4 7 8 12 6 12 -8 0 -9 -7 -17 -20 -17 -27 0 -8
-4 -14 -10 -14 -23 0 -8 -52 25 -87 19 -20 35 -43 35 -50 0 -19 -140 -108
-201 -128 -78 -26 -111 -15 -150 48 -17 29 -46 70 -64 92 -18 22 -51 76 -72
120 -39 78 -40 84 -46 213 l-6 132 22 -5 c12 -3 29 -1 37 5 13 9 13 12 -3 21
-16 9 -15 13 15 33 24 16 32 29 30 47 -1 17 0 20 7 10 7 -11 14 -4 30 27 24
47 55 62 126 59 l50 -2 -3 -67z m-256 -629 c29 -40 41 -49 58 -45 25 6 36 0
59 -34 22 -32 23 -58 2 -40 -8 7 -15 21 -15 31 0 24 -19 34 -33 19 -9 -10 -8
-12 6 -7 9 4 17 2 17 -4 0 -5 -14 -12 -31 -16 -25 -5 -28 -8 -15 -15 9 -5 16
-22 16 -39 0 -26 3 -30 23 -27 18 2 23 -3 28 -32 4 -19 7 -31 8 -26 0 6 7 1
15 -9 7 -10 11 -26 9 -35 -3 -10 5 -21 22 -28 35 -16 65 -7 65 20 0 12 3 18 7
15 3 -4 12 1 19 11 21 29 28 5 10 -38 -9 -22 -16 -56 -16 -75 0 -19 -4 -35
-10 -35 -5 0 -10 8 -10 18 0 14 -2 14 -9 3 -6 -9 -6 -22 0 -33 7 -13 6 -18 -4
-18 -22 0 -48 35 -42 56 3 10 -1 6 -9 -11 -23 -46 -19 -63 17 -79 27 -11 36
-11 53 0 19 11 24 10 45 -12 l22 -24 -22 0 -22 0 21 -27 c13 -17 17 -29 10
-33 -7 -4 -1 -13 14 -24 14 -9 26 -23 26 -31 0 -7 10 -15 22 -17 23 -3 39 -38
19 -38 -6 0 -11 8 -12 18 0 15 -1 15 -8 -2 -9 -22 -203 -86 -263 -86 -65 0
-333 109 -326 132 3 7 26 23 51 35 46 22 60 46 35 56 -8 4 -7 6 4 6 9 1 30
-11 47 -25 37 -31 84 -30 89 2 2 14 -13 33 -49 64 l-51 43 -72 -34 c-39 -18
-88 -44 -108 -56 -49 -30 -60 -29 -109 6 -42 31 -106 57 -116 47 -3 -3 7 -11
23 -18 16 -7 61 -36 99 -64 95 -69 250 -151 329 -174 35 -10 86 -29 113 -42
26 -14 70 -28 97 -31 84 -12 157 -66 220 -165 13 -20 60 -76 105 -124 44 -48
88 -102 97 -120 9 -18 45 -62 78 -98 73 -76 112 -128 126 -166 10 -25 9 -26
-12 -19 -13 4 -39 7 -60 6 -30 -1 -48 8 -110 58 -41 32 -84 71 -96 87 -18 25
-21 26 -22 10 0 -30 45 -89 85 -110 19 -11 35 -23 35 -28 0 -5 -15 1 -32 14
l-33 23 18 -29 c44 -68 -4 -29 -143 112 -105 108 -157 169 -177 210 -47 92
-55 102 -109 127 -42 21 -75 26 -205 34 -308 20 -484 56 -659 133 -31 14 -89
56 -134 96 -43 40 -82 72 -87 72 -32 0 18 140 75 207 32 38 135 107 255 169
77 40 106 62 159 121 35 40 94 92 131 116 157 105 180 115 258 116 50 1 52 0
89 -50z m494 -158 c0 -38 -5 -82 -11 -98 -24 -58 -5 -158 29 -151 12 2 16 11
14 30 -4 32 13 68 32 68 7 0 16 -14 20 -31 3 -17 10 -28 16 -24 17 11 12 -71
-6 -86 -10 -8 -13 -21 -9 -37 3 -13 1 -30 -6 -38 -6 -7 -9 -18 -7 -25 6 -17
36 50 43 96 l7 40 14 -35 c12 -27 17 -32 24 -20 13 20 13 83 0 75 -11 -7 -14
67 -3 78 3 4 21 -20 40 -53 25 -46 33 -72 33 -110 0 -28 7 -67 15 -87 8 -19
15 -37 15 -39 0 -2 -25 -4 -55 -4 l-55 0 7 60 c5 57 5 60 -16 60 -17 0 -21 -6
-21 -32 0 -30 1 -31 15 -12 17 23 19 6 4 -33 -10 -26 -12 -27 -19 -8 -5 11 -9
14 -9 8 -1 -7 -10 -13 -22 -13 -11 0 -18 -4 -15 -9 3 -5 -1 -12 -10 -15 -12
-4 -15 -2 -10 9 3 9 0 15 -9 15 -8 0 -15 6 -15 14 0 17 -27 29 -43 19 -7 -4
-7 0 1 9 15 19 3 31 -18 17 -23 -14 -34 -11 -20 6 6 8 8 20 4 27 -4 6 -7 32
-6 57 1 26 -4 71 -11 101 -11 48 -16 55 -44 63 -20 6 -33 18 -37 32 -3 13 -20
37 -36 54 -35 35 -35 35 64 67 115 37 116 37 116 -45z m399 27 c9 -24 25 -72
35 -107 10 -35 33 -94 52 -132 63 -125 124 -342 124 -440 0 -47 -37 -148 -91
-249 -44 -80 -227 -350 -238 -349 -5 0 -61 66 -115 136 -18 24 -18 27 -3 53
10 15 17 39 17 52 0 26 42 122 58 132 5 3 15 -1 22 -9 7 -8 22 -15 34 -15 24
0 66 26 66 41 0 6 12 36 28 67 15 31 27 71 28 87 1 17 5 45 9 64 7 29 6 33 -8
28 -18 -7 -47 17 -47 38 0 8 14 24 31 36 29 20 31 26 26 65 -6 54 -21 74 -56
74 -23 0 -32 9 -54 52 -23 43 -25 54 -14 67 8 9 14 27 15 41 1 13 8 30 17 36
25 19 17 25 -22 19 -32 -5 -36 -4 -22 7 25 20 32 55 14 62 -13 5 -15 13 -9 38
4 18 6 50 5 70 -2 34 2 39 36 57 21 11 39 20 41 21 1 0 11 -19 21 -42z m-1229
-1058 c0 -36 5 -52 18 -60 15 -9 14 -10 -5 -5 -19 5 -23 2 -24 -17 -1 -13 -1
-26 0 -30 0 -5 -5 -8 -12 -8 -17 0 -47 -36 -47 -56 0 -11 -8 -14 -27 -12 -20
2 -27 8 -25 21 2 13 -4 17 -28 17 -42 0 -45 16 -16 82 32 71 43 78 52 32 4
-21 13 -49 20 -63 l14 -26 0 38 c0 40 16 51 22 15 2 -12 9 -24 17 -26 10 -3
12 0 8 12 -4 9 -2 16 3 16 16 0 12 60 -5 66 -12 5 -12 9 3 30 25 35 32 29 32
-26z m-650 -166 l33 -17 -24 -17 c-18 -14 -35 -17 -75 -13 -33 4 -54 1 -58 -6
-5 -7 6 -11 32 -11 22 0 55 -7 73 -15 33 -14 29 -15 -81 -14 -112 2 -117 1
-175 -31 -33 -18 -73 -41 -88 -52 -16 -11 -30 -19 -32 -17 -1 2 17 32 42 66
37 52 50 63 81 69 98 16 225 43 230 49 4 3 0 10 -8 15 -27 17 13 12 50 -6z
m420 -26 c-72 -57 -130 -110 -130 -120 0 -6 6 -6 15 2 27 22 25 5 -1 -24 -15
-15 -31 -25 -38 -23 -11 4 -38 -12 -117 -72 -34 -26 -32 -18 8 37 41 55 2 36
-59 -30 -32 -33 -58 -57 -58 -52 0 24 65 118 91 132 17 10 65 40 108 68 43 28
90 54 103 57 13 4 40 17 59 30 40 28 55 24 19 -5z m241 -66 c2 -31 -3 -47 -18
-64 -28 -31 -34 -64 -10 -60 19 3 21 -9 8 -56 -10 -33 -4 -41 17 -20 19 19 14
1 -10 -37 -25 -37 -42 -46 -35 -17 22 79 13 98 -16 37 -22 -45 -23 -120 -3
-112 21 8 26 -15 14 -60 -9 -36 -5 -51 31 -148 40 -105 56 -165 25 -96 -31 73
-21 -5 12 -83 7 -17 5 -17 -15 3 -12 12 -26 19 -31 16 -11 -7 16 -83 48 -135
20 -33 22 -33 22 -10 0 15 4 20 9 15 20 -21 81 -186 80 -217 l-1 -33 -15 38
c-23 54 -37 47 -29 -15 15 -124 16 -143 7 -123 -5 11 -10 30 -10 43 -1 34 -61
182 -82 203 -18 18 -22 18 -49 4 -37 -19 -54 -19 -46 0 8 23 -19 18 -51 -9
-15 -13 -38 -26 -50 -30 -13 -4 -23 -11 -23 -15 0 -5 -22 -42 -48 -82 -62 -95
-64 -99 -59 -99 3 0 21 23 41 50 20 28 41 48 46 45 15 -9 12 -65 -7 -120 -22
-64 -19 -61 -43 -40 -15 14 -20 15 -20 4 0 -8 -16 -26 -35 -42 l-34 -27 -13
22 c-7 13 -12 52 -13 88 0 63 1 65 30 75 17 6 33 7 36 2 3 -4 6 11 7 34 1 23
6 47 11 53 6 7 4 18 -5 30 -13 19 -14 19 -38 -5 -13 -13 -35 -32 -50 -42 -15
-10 -25 -21 -22 -25 2 -4 -9 -45 -25 -92 -18 -54 -29 -75 -29 -57 0 16 -4 26
-10 22 -5 -3 -3 16 5 42 25 83 15 81 -21 -4 -29 -70 -36 -102 -46 -213 -10
-116 -9 -139 6 -203 9 -40 23 -83 31 -97 13 -23 14 -13 16 105 2 194 14 204
22 17 4 -124 3 -170 -7 -194 l-14 -31 -7 31 c-3 18 -11 32 -16 32 -5 0 -14 21
-20 46 -7 25 -15 42 -19 37 -4 -4 -29 -72 -56 -150 -26 -79 -51 -143 -56 -143
-14 0 -9 22 23 105 48 127 52 143 36 160 -12 12 -16 8 -26 -24 -13 -45 -49
-84 -38 -41 18 65 15 69 -7 10 -13 -36 -40 -102 -60 -148 -21 -46 -36 -91 -33
-100 4 -19 -59 -202 -75 -217 -8 -7 -9 -3 -4 15 3 14 6 44 6 67 0 23 7 48 15
56 10 11 16 46 19 119 3 56 12 129 21 161 8 32 15 66 15 76 0 9 7 26 16 37 8
10 13 13 9 7 -10 -20 3 -15 14 5 8 14 65 233 106 407 5 18 10 24 13 16 3 -10
10 -8 24 10 l20 24 -6 -45 c-9 -65 -16 -160 -10 -130 11 52 65 244 79 276 7
18 19 68 25 111 23 148 30 166 26 70 -2 -88 6 -123 18 -67 3 17 9 67 12 112 8
92 22 83 23 -14 1 -74 16 -75 25 -1 4 31 16 90 28 132 11 42 21 90 22 106 1
17 10 55 21 85 l20 55 6 -75 c5 -75 5 -75 7 29 2 80 5 102 14 93 9 -9 8 -59
-1 -214 -14 -208 -16 -228 -33 -228 -6 0 -9 34 -8 83 4 149 0 171 -15 82 -7
-44 -25 -124 -40 -178 -14 -54 -25 -101 -22 -103 2 -3 16 11 31 31 39 51 67
66 143 75 45 6 71 14 80 26 7 10 14 50 15 88 l2 71 5 -88 6 -89 37 -13 c26 -8
40 -9 47 -2 24 24 6 147 -29 197 -9 14 -30 57 -45 95 -24 61 -60 115 -69 104
-2 -2 -11 -17 -19 -34 -14 -25 -16 -27 -18 -10 -2 30 2 59 10 65 7 6 31 72 31
86 -1 5 -12 -11 -25 -36 -26 -48 -28 -45 -26 40 l1 35 -19 -40 -20 -40 0 30
c-2 53 32 127 84 184 67 73 111 131 126 164 6 14 15 24 19 22 9 -6 23 25 15
33 -3 3 -5 -1 -5 -8 0 -7 -2 -11 -5 -8 -3 3 0 17 6 32 15 33 17 30 20 -22z
m589 19 c0 -10 -9 -21 -20 -24 -11 -3 -20 -10 -20 -16 0 -6 9 -11 20 -11 11 0
20 -4 20 -9 0 -18 -30 -33 -55 -27 -14 4 -25 2 -25 -4 0 -5 -7 -10 -15 -10 -8
0 -15 -9 -15 -20 0 -13 -5 -18 -16 -13 -8 3 -13 12 -10 19 3 8 -4 19 -16 25
-11 6 -18 7 -14 1 3 -6 -14 -10 -44 -10 -36 0 -53 5 -60 17 -8 14 -9 13 -10
-6 0 -12 -4 -25 -10 -28 -14 -9 -13 -42 2 -51 7 -4 35 -9 62 -10 l50 -2 -24
18 c-17 13 -22 22 -15 29 7 6 20 1 39 -16 27 -23 29 -30 27 -86 -1 -33 -7 -69
-12 -79 -6 -12 -6 -18 0 -18 17 0 33 41 29 71 -3 16 -2 29 2 29 12 0 50 -32
61 -52 17 -32 29 -79 19 -73 -6 4 -7 -8 -3 -27 10 -53 -6 -26 -23 38 -20 79
-38 96 -30 29 3 -31 2 -42 -3 -30 -6 15 -10 5 -16 -42 -7 -60 -7 -61 -25 -43
-10 10 -20 36 -22 56 -3 32 -9 41 -46 61 -29 16 -55 23 -80 21 -37 -3 -37 -4
-38 -48 0 -25 -9 -60 -18 -79 -22 -43 -3 -31 35 21 16 24 29 54 29 71 0 25 2
28 15 17 8 -7 15 -27 15 -45 0 -19 4 -35 10 -37 5 -1 12 -46 14 -98 2 -55 0
-82 -4 -65 -4 17 -8 56 -9 88 l-1 58 -35 -26 c-19 -15 -37 -35 -40 -46 -9 -26
-34 -24 -45 4 l-9 22 0 -24 c-1 -13 10 -36 24 -53 14 -16 25 -41 25 -55 0 -32
0 -32 -39 40 -23 42 -31 71 -32 110 l0 52 -14 -45 c-8 -24 -12 -55 -9 -67 10
-37 -6 -26 -26 20 l-20 42 0 -59 c0 -48 2 -56 13 -47 11 8 19 5 37 -14 13 -14
29 -25 36 -25 7 0 21 -25 30 -55 10 -30 21 -50 24 -44 4 6 10 -11 13 -38 8
-56 11 -422 5 -429 -3 -2 -10 67 -17 154 -13 168 -27 244 -41 222 -6 -9 -10
-6 -15 11 -4 13 -13 31 -20 39 -7 8 -15 27 -19 43 -3 15 -20 42 -37 60 -34 35
-35 24 -5 -46 10 -22 12 -36 7 -32 -15 9 -15 3 21 -167 33 -160 48 -318 29
-318 -7 0 -9 -18 -6 -47 3 -38 3 -42 -4 -18 -12 44 -13 117 -1 110 15 -9 12
47 -4 70 -14 21 -45 119 -53 170 -3 17 -9 35 -14 42 -14 17 -30 75 -18 68 14
-10 10 17 -10 54 -16 31 -17 40 -5 102 7 38 17 85 23 105 8 29 6 52 -10 112
-30 106 -24 191 16 232 45 47 60 38 30 -17 -15 -27 -18 -37 -8 -23 32 43 76
91 80 87 2 -3 -7 -22 -22 -42 -14 -21 -25 -44 -25 -51 0 -7 -3 -21 -7 -31 -7
-18 84 96 105 132 8 15 11 16 12 4 0 -8 -12 -31 -26 -50 -47 -63 -49 -71 -10
-48 68 40 77 138 14 162 -10 3 -18 13 -18 22 0 14 2 14 23 1 13 -9 52 -16 92
-18 l70 -3 -1 31 c-1 26 1 31 17 27 22 -6 24 -14 8 -30 -7 -7 -9 -19 -6 -27 8
-19 53 -21 60 -3 4 9 8 9 15 -2 14 -19 42 -6 42 19 0 15 -7 20 -25 20 -14 0
-25 4 -25 9 0 4 11 6 25 3 15 -2 25 0 25 7 0 7 5 9 10 6 6 -3 10 -1 10 4 0 6
7 11 15 11 8 0 15 -8 15 -19z m-767 -56 c-21 -25 -52 -64 -68 -88 -17 -23 -45
-62 -63 -86 -18 -24 -32 -50 -32 -58 0 -7 -5 -13 -11 -13 -7 0 -9 10 -5 28 l7
27 -21 -30 c-11 -16 -20 -36 -20 -43 0 -6 -6 -11 -12 -10 -8 2 -14 -11 -16
-33 -2 -28 -8 -38 -25 -43 -11 -3 -23 -3 -26 0 -8 8 69 187 95 222 14 17 21
32 15 32 -5 0 -18 -12 -29 -27 -16 -22 -23 -25 -33 -16 -20 19 -4 38 52 61 47
20 51 20 36 4 -10 -10 -14 -22 -10 -25 3 -4 -2 -17 -12 -29 -10 -13 15 10 55
51 56 57 69 75 59 83 -11 8 -11 9 1 5 9 -3 34 7 55 22 22 15 42 24 43 19 2 -5
-13 -29 -35 -53z m970 4 c21 -22 40 -53 43 -67 5 -26 5 -26 -10 -8 -21 26 -21
5 0 -57 16 -47 43 -81 29 -37 -5 16 -4 20 5 15 6 -4 9 -17 6 -30 -3 -13 -1
-27 4 -30 13 -8 -14 -56 -52 -92 -42 -40 -48 -6 -9 51 69 100 26 104 -99 9
-79 -61 -97 -33 -24 37 51 50 90 108 80 118 -4 3 -30 -2 -57 -12 -28 -9 -53
-15 -55 -13 -12 12 11 59 38 74 16 10 32 29 35 43 12 52 19 52 66 -1z m-1442
-113 c-29 -18 -82 -49 -117 -67 -35 -19 -62 -38 -60 -44 2 -5 -3 -22 -11 -37
-7 -16 -11 -28 -9 -28 3 0 -5 -16 -18 -35 -14 -19 -37 -75 -52 -123 -15 -48
-32 -93 -37 -99 -20 -27 -29 -12 -23 35 l5 47 -15 -30 -15 -30 5 32 c3 18 15
53 26 77 11 25 20 52 20 60 0 23 65 159 83 175 16 13 16 11 1 -25 l-16 -39 29
28 c28 26 227 136 248 136 6 0 -14 -14 -44 -33z m67 -345 c-15 -13 -19 -24
-14 -37 6 -17 8 -16 19 6 9 19 22 26 47 27 34 3 34 2 10 -9 l-25 -11 25 -4
c56 -8 67 -13 65 -30 -4 -41 -19 -62 -92 -123 -43 -36 -113 -99 -155 -140
l-78 -76 0 -98 0 -97 30 -10 c17 -6 30 -13 30 -16 0 -2 -11 -21 -26 -41 -23
-34 -25 -35 -18 -9 4 17 2 27 -5 27 -6 0 -11 -7 -11 -16 0 -9 -15 -49 -34 -88
-60 -128 -75 -184 -67 -254 4 -34 4 -67 -1 -74 -4 -7 -8 -30 -8 -50 0 -53 -17
-47 -26 9 -11 77 4 240 31 343 45 163 56 231 50 291 -7 70 6 100 55 128 38 21
70 71 70 109 0 12 5 24 11 28 8 4 9 -4 5 -27 l-7 -34 34 38 c19 20 43 37 54
37 46 0 156 112 138 140 -11 18 -81 11 -109 -11 -34 -27 -33 -37 7 -41 l32 -3
-32 -18 c-18 -10 -33 -24 -33 -31 0 -8 -7 -16 -15 -20 -12 -4 -15 3 -15 32
l-1 37 -14 -30 -15 -30 6 35 c7 37 47 135 65 156 6 7 17 10 25 7 11 -4 9 -9
-8 -22z m1784 -129 c70 -25 136 -74 112 -82 -11 -4 -3 -10 24 -18 39 -12 56
-33 50 -63 -2 -9 7 -14 25 -14 18 1 26 -4 23 -11 -3 -7 5 -14 17 -16 16 -2 26
-15 37 -50 18 -58 27 -62 23 -10 -3 26 -1 33 6 22 13 -22 15 -71 4 -100 -6
-14 -16 -52 -23 -85 -7 -33 -16 -64 -20 -68 -4 -5 -35 24 -68 65 -33 40 -77
89 -98 108 -34 31 -33 29 9 -20 97 -113 202 -275 115 -177 -28 30 -38 35 -61
30 -28 -5 -28 -6 24 -37 29 -17 51 -34 50 -38 0 -5 -3 -7 -6 -5 -3 1 -14 -13
-25 -31 -11 -18 -27 -35 -35 -38 -8 -4 -15 -10 -15 -16 0 -5 -12 -21 -26 -35
-21 -21 -25 -32 -20 -57 5 -24 4 -28 -6 -18 -10 10 -18 -1 -40 -49 -15 -34
-28 -70 -28 -80 0 -10 -11 -43 -25 -73 -14 -30 -25 -62 -25 -70 0 -9 -4 -16
-9 -16 -5 0 -17 -21 -27 -47 -10 -27 -21 -50 -25 -53 -4 -3 -8 -13 -10 -22 -6
-25 -16 -15 -98 95 -41 54 -80 101 -87 104 -8 3 -14 11 -14 18 0 7 -11 38 -26
68 -14 31 -29 78 -33 104 -5 26 -18 71 -29 99 -19 46 -19 54 -6 73 18 26 34
27 34 4 0 -10 14 -45 31 -78 20 -39 28 -50 24 -30 -3 17 -11 61 -17 98 -9 60
-8 71 8 88 16 18 19 18 33 4 13 -12 16 -45 16 -170 1 -85 4 -157 6 -160 3 -3
5 76 5 175 -1 173 0 180 19 180 18 1 17 3 -7 23 -16 13 -28 29 -28 37 0 8 -9
26 -20 40 -28 36 -25 43 18 37 37 -6 10 4 -143 50 l-60 18 83 3 c71 2 89 -1
131 -22 27 -13 51 -22 54 -20 2 2 29 -5 61 -16 31 -10 54 -15 51 -10 -3 4 -36
18 -73 30 -84 28 -102 43 -44 38 23 -2 42 0 42 3 0 4 -19 10 -42 14 -66 11
-79 21 -43 35 17 6 51 14 76 17 44 5 49 3 93 -37 41 -38 63 -72 36 -55 -5 3
-10 1 -10 -5 0 -7 6 -10 12 -8 7 3 21 -6 31 -18 18 -23 107 -88 112 -82 2 2
-15 23 -38 48 -22 25 -37 38 -33 30 4 -8 -11 5 -34 30 -23 25 -62 67 -88 94
-25 27 -36 43 -24 37 12 -7 22 -8 22 -4 0 12 60 36 93 38 17 1 27 -3 27 -11 0
-8 -9 -14 -19 -14 -11 0 -23 -4 -26 -10 -3 -5 -18 -10 -31 -10 l-26 0 24 -28
c14 -18 26 -25 30 -18 4 6 3 15 -2 21 -23 27 144 -1 233 -40 30 -13 19 14 -15
36 -28 17 -29 19 -8 14 40 -11 11 11 -32 25 -21 6 -38 18 -38 25 0 24 -77 39
-140 27 -55 -11 -55 -10 -84 21 -21 24 -25 26 -16 9 21 -42 5 -33 -61 34 -51
52 -59 64 -39 59 14 -3 43 -2 65 3 37 8 33 10 -53 17 -140 12 -129 29 14 22
83 -3 137 -11 176 -25z m-464 -305 c13 -8 37 -33 54 -58 16 -24 27 -35 23 -24
-4 11 -10 31 -13 43 l-5 24 42 -22 c40 -20 106 -97 106 -123 0 -7 -11 -12 -25
-11 -14 1 -31 -6 -37 -15 -12 -14 -15 -14 -31 5 -9 12 -23 30 -30 40 -7 11 -3
0 8 -23 24 -51 24 -54 5 -47 -8 4 -15 1 -15 -5 0 -6 -7 -8 -16 -4 -8 3 -14 15
-13 27 4 33 -10 64 -32 71 -14 5 -18 12 -14 23 3 9 3 13 -1 9 -12 -12 -58 78
-48 94 7 12 14 11 42 -4z m119 -506 c24 -62 42 -115 40 -117 -2 -2 -23 32 -47
76 -25 43 -46 77 -48 75 -6 -6 98 -201 143 -268 l36 -55 -15 -46 c-18 -53 -21
-106 -6 -106 6 0 10 11 10 25 0 14 8 42 17 63 9 20 20 46 23 57 5 16 14 8 59
-50 29 -38 47 -71 42 -73 -6 -2 -11 -12 -11 -23 0 -11 -23 -63 -51 -117 -130
-245 -167 -323 -190 -395 -26 -86 -38 -95 -104 -83 -19 4 -36 6 -38 4 -2 -2
-11 3 -20 11 -11 9 -17 10 -17 2 0 -6 -4 -11 -10 -11 -5 0 -10 6 -10 13 0 7
-13 26 -29 41 -41 40 -56 79 -43 114 29 76 54 232 82 507 14 143 26 212 55
311 26 93 76 197 83 174 2 -8 24 -66 49 -129z m-1177 89 c0 10 3 11 11 3 7 -7
11 -46 11 -95 0 -76 1 -81 15 -63 13 18 14 13 8 -50 -7 -65 -15 -99 -15 -62 0
37 -22 13 -71 -79 -28 -52 -53 -93 -55 -91 -3 2 12 49 31 103 41 112 65 192
64 214 0 8 -8 -5 -17 -30 l-17 -45 -3 70 c-2 39 0 90 3 115 7 44 7 44 21 20 7
-14 13 -19 14 -10z m530 -127 c19 -131 30 -173 25 -93 l-5 65 20 -90 c25 -114
31 -125 24 -50 l-5 60 24 -44 c13 -25 26 -40 29 -35 3 5 4 4 2 -2 -1 -6 2 -64
7 -129 9 -121 23 -185 40 -185 6 0 7 -4 4 -10 -6 -9 33 -95 40 -88 2 1 -5 44
-15 93 -32 153 -22 193 21 84 13 -33 40 -80 59 -104 19 -24 47 -58 62 -77 l26
-33 -5 40 c-11 94 -13 220 -4 204 6 -9 11 -43 12 -75 0 -32 7 -82 15 -110 19
-71 -3 -192 -46 -246 -17 -20 -30 -43 -30 -50 0 -28 -34 -61 -90 -87 -32 -15
-76 -42 -98 -60 -27 -20 -43 -28 -47 -20 -4 6 -3 15 3 21 12 12 4 40 -9 32 -6
-3 -7 5 -3 20 4 17 2 26 -6 26 -6 0 -10 10 -8 23 2 17 -1 21 -16 19 -17 -3
-18 -1 -7 12 10 12 10 22 0 51 -7 19 -17 35 -21 35 -5 0 -6 11 -2 25 4 18 1
27 -10 31 -12 5 -13 10 -5 25 8 16 6 19 -11 19 -20 0 -20 1 -4 25 11 17 12 25
5 25 -7 0 -9 5 -6 10 4 6 2 17 -4 24 -14 16 2 135 26 206 11 32 16 86 16 190
0 128 -2 155 -25 228 -23 75 -24 82 -8 82 15 0 20 -16 30 -87z m284 -1010 c3
-21 6 -51 6 -67 0 -28 1 -28 18 -13 25 23 39 21 58 -8 13 -19 14 -28 5 -39 -9
-11 -9 -15 0 -18 10 -3 8 -11 -4 -28 -25 -36 -21 -43 12 -24 25 15 32 15 45 5
9 -8 16 -22 16 -33 0 -12 6 -18 16 -16 9 2 21 -6 28 -17 6 -11 13 -22 16 -25
3 -3 11 -17 17 -31 14 -33 -8 -245 -37 -341 -11 -36 -20 -81 -20 -100 0 -52
29 -129 61 -163 31 -33 38 -65 15 -65 -17 0 -46 27 -46 43 -1 7 -9 30 -20 52
-15 32 -19 35 -20 17 0 -12 7 -39 15 -59 8 -19 15 -46 15 -59 0 -38 -28 -17
-40 30 -16 62 -31 90 -24 44 4 -21 4 -44 1 -52 -7 -18 -47 -9 -47 10 0 7 -12
19 -27 26 -35 17 -109 138 -122 198 -6 26 -8 99 -4 166 l5 119 -52 125 c-55
133 -71 221 -51 273 8 20 28 36 73 57 35 17 68 30 74 30 6 0 14 -17 18 -37z
m-133 -391 c19 -48 23 -85 28 -232 4 -118 11 -183 20 -200 19 -35 87 -126 139
-185 43 -48 44 -50 37 -100 -4 -27 -7 -61 -6 -74 1 -23 -20 -120 -54 -251 -16
-60 -66 -271 -86 -363 -15 -71 -26 -81 -83 -73 -43 7 -92 36 -148 89 -28 26
-28 26 -28 164 0 76 -5 177 -11 223 -18 130 -16 371 4 456 9 39 44 154 78 255
53 156 63 197 67 271 2 48 8 85 13 83 4 -3 18 -31 30 -63z m-211 -1602 c0 -22
4 -28 15 -24 9 4 16 -3 21 -20 7 -29 34 -36 34 -8 1 16 1 16 11 -1 6 -11 8
-38 4 -68 -5 -33 -3 -49 4 -49 6 0 11 5 11 10 0 14 46 60 60 60 5 0 10 -11 10
-25 0 -34 26 -94 53 -123 21 -23 22 -32 22 -195 1 -156 3 -176 23 -217 12 -25
22 -50 22 -57 0 -6 16 -30 35 -53 37 -44 40 -63 12 -68 -13 -3 -26 14 -47 60
-26 54 -30 58 -25 28 2 -19 9 -52 14 -73 15 -62 -18 -43 -40 23 l-19 55 4 -43
c4 -39 2 -42 -20 -42 -16 0 -27 8 -33 22 -5 15 -10 18 -15 9 -8 -13 -24 4 -56
61 -8 15 -27 46 -42 70 -18 28 -35 83 -52 159 -31 147 -50 189 -125 268 -52
55 -61 70 -61 101 0 66 18 99 66 121 23 12 48 27 55 35 6 8 22 14 35 14 20 0
24 -5 24 -30z"/>
</g>
</svg>
