<?xml version="1.0" standalone="no"?>
<!DOCTYPE svg PUBLIC "-//W3C//DTD SVG 20010904//EN"
 "http://www.w3.org/TR/2001/REC-SVG-20010904/DTD/svg10.dtd">
<svg version="1.0" xmlns="http://www.w3.org/2000/svg"
 width="1197.000000pt" height="1600.000000pt" viewBox="0 0 1197.000000 1600.000000"
 preserveAspectRatio="xMidYMid meet">
<metadata>
Created by potrace 1.16, written by Peter Selinger 2001-2019
</metadata>
<g transform="translate(0.000000,1600.000000) scale(0.100000,-0.100000)"
fill="#078DE7" stroke="none">
<path d="M8750 15993 c-74 -11 -185 -39 -257 -63 -45 -16 -102 -31 -125 -35
-27 -5 -71 -26 -116 -57 -40 -27 -120 -71 -177 -99 -62 -29 -114 -62 -129 -80
-14 -17 -53 -84 -87 -149 -53 -106 -72 -131 -162 -224 -83 -86 -114 -111 -168
-135 -76 -34 -129 -82 -129 -116 0 -12 -24 -64 -54 -114 -52 -88 -63 -117 -86
-232 -12 -61 -74 -211 -147 -356 -61 -122 -163 -254 -252 -329 -77 -65 -204
-134 -244 -134 -32 0 -44 -30 -21 -47 10 -7 24 -13 31 -13 20 0 16 -18 -7 -30
-11 -6 -20 -16 -19 -23 1 -34 188 -137 248 -137 61 0 98 59 38 61 l-22 0 22 9
c49 20 153 92 146 102 -3 7 -1 8 5 4 6 -4 16 4 23 16 9 19 9 21 -2 11 -19 -18
-34 -16 -19 2 7 9 20 13 29 10 31 -10 186 167 240 273 28 54 41 61 41 20 0
-25 -13 -49 -53 -97 -82 -101 -186 -208 -247 -253 -78 -59 -80 -61 -35 -42 65
27 120 70 193 152 39 42 84 93 102 112 l31 35 -22 -45 c-12 -25 -49 -71 -82
-103 -58 -55 -236 -191 -284 -216 -13 -6 -23 -17 -23 -23 0 -15 52 -3 118 27
36 16 50 20 42 10 -8 -10 -9 -15 -2 -15 6 0 -2 -19 -18 -43 -15 -23 -36 -63
-46 -87 -9 -25 -18 -46 -20 -48 -1 -2 -16 4 -33 12 -35 18 -118 21 -174 5 -36
-10 -38 -12 -32 -40 5 -21 2 -36 -8 -47 -31 -34 -68 -123 -148 -353 -144 -415
-226 -671 -259 -809 -17 -74 -34 -141 -36 -148 -3 -11 -13 -9 -42 9 -140 85
-166 87 -37 3 l76 -49 -5 -56 c-7 -77 -14 -91 -40 -83 -11 4 -62 26 -112 49
l-91 42 1 54 c1 41 12 76 45 146 l43 91 47 -32 c73 -52 121 -78 121 -68 0 6
-31 31 -69 56 -38 25 -72 50 -76 56 -9 14 52 99 81 112 13 6 24 17 24 25 0 7
11 18 24 22 12 5 38 29 57 53 34 43 34 43 6 25 -16 -10 -32 -16 -35 -12 -10
10 -6 344 5 390 10 43 12 31 41 -248 9 -81 16 -107 26 -96 2 2 11 63 19 134
11 103 15 118 16 70 1 -67 13 -99 26 -68 30 75 70 208 100 339 36 155 42 220
15 159 -13 -29 -14 -29 -18 -7 -6 37 4 50 47 62 47 12 54 30 14 30 -21 0 -43
-16 -91 -67 l-63 -68 -102 3 c-93 3 -105 1 -121 -17 -11 -12 -25 -21 -31 -21
-14 0 -24 -88 -27 -242 -2 -99 -10 -117 -23 -51 -11 63 -44 128 -57 115 -20
-20 -23 -286 -4 -379 16 -79 41 -153 52 -153 3 0 2 4 -1 10 -19 31 -45 221
-44 328 1 159 9 176 37 76 18 -65 92 -369 92 -379 0 -1 -22 -29 -48 -62 l-48
-60 -26 21 c-47 37 -100 239 -132 498 -12 100 -13 102 -20 56 -18 -110 27
-323 110 -516 l44 -105 -27 -59 c-14 -32 -30 -58 -33 -58 -25 0 -81 109 -114
222 -29 100 -45 227 -47 363 l-2 100 -10 -75 c-26 -188 35 -456 135 -596 27
-38 29 -46 21 -85 l-9 -44 -36 60 c-95 159 -147 385 -161 693 l-5 104 52 33
c29 18 103 61 164 95 110 60 134 78 90 65 -42 -13 -92 -39 -159 -82 -36 -23
-86 -50 -110 -59 -24 -10 -50 -26 -56 -35 -7 -9 -36 -31 -63 -48 -38 -23 -56
-43 -69 -74 -20 -47 -62 -87 -121 -117 -59 -30 -96 -79 -104 -139 -5 -42 -16
-61 -59 -112 -82 -96 -115 -148 -146 -229 -27 -68 -112 -351 -111 -368 1 -15
34 56 51 108 l17 55 -5 -95 c-8 -170 -42 -401 -72 -500 -35 -116 -45 -185 -32
-228 5 -18 32 -61 59 -95 28 -34 68 -101 89 -147 36 -77 49 -94 138 -175 195
-179 197 -181 144 -196 -13 -4 -20 -7 -14 -8 5 -1 -25 -26 -68 -57 -146 -105
-156 -193 -38 -353 41 -57 71 -116 71 -141 0 -4 -30 -11 -67 -15 -84 -9 -130
-30 -112 -51 6 -8 20 -14 30 -14 11 0 19 -4 19 -9 0 -11 -73 -28 -155 -35 -33
-4 -109 -24 -170 -45 -60 -21 -144 -46 -185 -55 -85 -19 -115 -39 -100 -66 26
-48 160 -55 415 -20 154 21 325 23 355 5 19 -12 -90 -55 -173 -70 -44 -8 -82
-17 -86 -21 -3 -3 35 -4 84 -1 66 4 125 17 220 46 76 24 159 43 200 46 l70 5
-41 -19 c-23 -11 -101 -40 -173 -65 -340 -118 -371 -160 -46 -60 61 19 133 36
160 39 l50 5 -40 -15 c-22 -9 -98 -32 -169 -51 -143 -38 -228 -72 -186 -73 14
-1 72 13 129 29 133 39 198 41 96 4 -181 -67 -212 -74 -364 -83 -176 -11 -231
-25 -231 -55 0 -16 -16 -28 -75 -55 l-74 -33 -31 26 c-60 50 -176 49 -222 -3
-15 -17 -28 -40 -28 -51 0 -11 -4 -20 -9 -20 -14 0 -21 28 -21 85 0 29 -10 84
-22 121 -29 92 -27 177 5 247 26 56 73 108 180 200 77 67 121 126 135 182 6
22 16 105 22 185 14 184 31 285 75 441 45 158 65 272 65 366 0 63 6 88 36 161
41 98 42 114 34 477 -4 185 -3 192 23 267 82 237 292 660 394 794 160 210 399
373 703 480 74 26 173 66 220 89 47 23 116 53 154 66 78 27 128 65 105 80 -25
16 -63 9 -144 -25 -223 -94 -561 -243 -650 -286 -281 -137 -411 -283 -639
-715 -121 -230 -178 -367 -214 -514 l-25 -104 12 -211 c15 -239 10 -291 -39
-416 -22 -60 -30 -96 -30 -147 -1 -89 -20 -190 -64 -340 -45 -155 -62 -259
-77 -453 -14 -202 -26 -229 -140 -330 -199 -177 -223 -215 -223 -345 1 -70 13
-135 51 -270 13 -48 -262 263 -367 413 -41 60 -90 99 -109 88 -4 -3 -6 -20 -4
-38 l4 -33 -16 34 c-15 33 -16 33 -35 16 -24 -22 -26 -52 -3 -85 27 -41 130
-157 250 -284 120 -125 215 -245 207 -258 -3 -4 -14 -8 -24 -8 -33 0 -68 -22
-74 -45 -3 -13 -1 -47 4 -75 6 -29 10 -57 10 -61 0 -5 -45 -8 -99 -7 -80 1
-105 -2 -127 -17 -26 -17 -27 -19 -21 -94 3 -42 9 -84 12 -94 8 -19 25 -14
-223 -57 -167 -29 -516 -100 -817 -165 -483 -106 -898 -183 -1170 -219 -186
-25 -475 -53 -567 -56 -46 -1 -123 -5 -173 -8 l-90 -7 40 -20 c53 -26 166 -30
399 -16 390 25 664 71 1701 289 182 38 420 86 530 106 222 42 438 92 560 131
91 30 321 90 377 99 37 7 37 6 49 -36 17 -65 56 -135 102 -185 51 -55 141
-126 191 -149 20 -10 36 -21 36 -24 0 -4 -73 -12 -162 -19 -90 -7 -201 -16
-248 -21 -47 -5 -137 -14 -200 -20 -63 -6 -214 -30 -335 -52 -345 -63 -360
-65 -540 -88 -287 -36 -396 -58 -805 -160 -757 -188 -1164 -245 -1346 -189
-83 25 -269 119 -306 154 -17 15 -34 48 -44 83 -25 89 -55 107 -68 41 -9 -44
11 -102 51 -148 34 -41 148 -102 320 -171 45 -18 80 -37 78 -41 -3 -3 -69 -27
-147 -53 -155 -50 -198 -71 -224 -112 -15 -23 -16 -30 -4 -58 7 -17 12 -49 11
-71 -1 -33 4 -46 26 -67 41 -40 78 -50 178 -49 262 1 1165 156 1780 306 339
82 501 115 949 190 434 74 680 117 764 134 23 4 42 7 42 5 0 -1 -39 -42 -88
-91 -130 -131 -267 -295 -355 -426 -15 -23 -42 -87 -59 -142 -43 -139 -58
-166 -157 -269 -49 -53 -124 -148 -175 -226 -111 -168 -163 -237 -241 -321
-98 -104 -154 -191 -197 -302 -55 -143 -92 -206 -213 -358 -161 -204 -167
-213 -323 -540 -86 -180 -93 -191 -180 -283 -84 -89 -104 -121 -128 -204 -2
-7 -18 -20 -36 -30 -57 -30 -89 -68 -82 -96 3 -15 -1 -38 -10 -57 -30 -61 -21
-109 43 -219 21 -36 57 -98 80 -138 56 -96 131 -157 322 -262 208 -115 200
-122 -23 -19 -70 33 -133 59 -140 59 -41 0 -288 -293 -313 -370 -11 -35 4 -36
33 -1 l27 32 42 -36 c54 -46 145 -87 258 -115 50 -12 96 -24 104 -26 10 -3 5
-14 -18 -38 l-33 -34 -46 14 c-26 8 -112 46 -191 84 -147 72 -163 71 -57 -5
69 -48 164 -91 225 -101 46 -7 48 -10 22 -43 -22 -28 -9 -31 -214 49 -88 34
-161 59 -164 56 -16 -16 168 -101 272 -127 65 -15 73 -24 49 -50 -18 -20 -18
-21 0 -35 10 -7 25 -10 31 -6 38 22 203 214 274 319 46 67 105 143 132 168 58
54 83 57 190 18 45 -16 96 -27 131 -27 53 -1 62 3 135 53 148 102 155 116 103
217 -47 91 -31 120 108 194 l62 33 1 66 c1 36 1 70 0 75 -3 15 50 65 119 114
156 110 205 174 319 415 77 162 86 176 101 162 26 -24 70 -27 143 -12 l67 14
24 -31 c13 -17 70 -80 126 -141 56 -60 193 -231 304 -380 375 -500 412 -552
698 -990 57 -88 169 -252 249 -365 80 -113 194 -276 255 -363 227 -329 356
-501 487 -648 l59 -67 82 -6 c94 -8 133 2 238 64 36 22 69 40 71 40 3 0 20
-24 37 -52 48 -78 199 -230 222 -222 15 4 18 -1 18 -34 0 -50 24 -173 44 -230
l16 -43 -49 -73 c-60 -89 -79 -133 -87 -202 -6 -48 -11 -55 -50 -84 -51 -36
-82 -86 -119 -190 -43 -125 -63 -153 -120 -171 -59 -19 -71 -44 -26 -54 79
-17 132 29 181 158 17 44 40 93 51 109 l22 30 16 -26 c10 -14 34 -40 54 -58
l37 -33 -20 -66 c-20 -65 -52 -119 -71 -119 -6 0 -5 9 1 21 7 11 10 23 7 25
-2 2 -39 -12 -81 -31 -107 -48 -251 -98 -440 -151 -88 -24 -163 -50 -168 -56
-4 -7 -11 -28 -14 -45 -4 -21 -12 -33 -23 -33 -63 0 -146 -53 -177 -111 -34
-67 -1 -169 54 -169 20 0 33 -7 42 -25 43 -80 247 -145 453 -145 48 0 58 -3
53 -15 -5 -13 13 -15 117 -16 80 -1 109 -4 85 -8 -37 -8 -68 -26 -68 -42 0 -4
26 -17 58 -29 46 -18 96 -24 257 -34 208 -12 213 -17 40 -37 -55 -6 -111 -17
-124 -23 -21 -11 -13 -14 69 -19 127 -9 335 -8 580 3 113 5 322 14 465 20 251
11 382 27 434 54 l24 13 -34 12 c-62 22 -408 25 -747 6 -373 -21 -725 -17
-872 10 -52 9 -98 20 -103 24 -9 9 78 26 253 48 117 15 255 17 1019 19 853 2
984 5 965 24 -26 26 -138 42 -336 47 -115 3 -208 9 -208 13 0 4 45 10 99 13
112 7 229 25 251 39 11 6 6 8 -15 4 -16 -3 -221 -10 -455 -16 -234 -5 -483
-11 -554 -13 l-128 -4 88 29 c49 15 139 53 199 83 119 60 130 63 139 40 3 -8
16 -20 29 -26 20 -9 55 -1 203 46 196 63 287 103 305 136 12 24 7 74 -15 141
-8 24 -21 68 -30 98 -25 86 -35 95 -93 81 -33 -9 -49 -9 -51 -2 -2 6 -10 11
-18 11 -17 0 -17 -4 1 58 19 62 35 67 35 12 0 -45 19 -61 46 -39 13 11 15 26
11 79 -8 90 -39 168 -114 284 -35 54 -106 182 -157 285 -52 102 -107 209 -123
236 -16 28 -38 71 -48 98 -18 47 -18 49 4 132 42 156 20 177 -189 182 -111 3
-137 6 -145 20 -5 9 -39 61 -75 117 -109 168 -139 221 -165 293 -14 37 -25 69
-25 70 0 2 -7 3 -15 3 -18 0 -38 -36 -29 -52 4 -6 1 -9 -7 -6 -7 2 -66 -39
-130 -91 -129 -105 -253 -199 -275 -208 -25 -9 -15 -25 11 -19 42 11 28 -11
-30 -46 -31 -18 -79 -48 -108 -66 l-52 -33 43 4 c29 4 63 19 99 44 149 103
163 111 225 122 78 14 112 42 104 88 -5 34 7 45 18 17 11 -28 7 -59 -19 -145
-17 -55 -24 -95 -20 -117 8 -41 64 -107 78 -93 8 8 4 20 -12 42 -34 46 -37 89
-11 169 12 38 25 70 29 70 4 0 17 -20 31 -45 16 -30 31 -45 44 -45 11 0 32
-12 48 -27 59 -56 46 7 -19 92 -47 63 -73 113 -73 142 0 24 27 -9 141 -175 79
-115 94 -132 113 -126 21 7 21 7 1 -15 -27 -31 -8 -40 85 -42 82 -1 64 -16
-21 -18 -44 -1 -46 -2 -55 -38 -13 -51 -39 -59 -30 -9 4 20 5 36 2 36 -3 0
-19 -24 -37 -54 -27 -45 -35 -52 -46 -41 -39 40 -263 91 -349 80 -57 -7 -157
-51 -192 -85 -13 -12 -24 -20 -25 -19 -2 2 -38 45 -82 94 -43 50 -88 100 -98
112 l-20 22 57 27 c31 14 56 30 56 34 0 4 -24 1 -52 -7 -29 -7 -57 -12 -62
-10 -18 6 59 56 184 118 111 56 136 74 220 155 52 51 115 117 140 147 25 31
54 58 65 61 38 10 77 61 82 108 4 38 1 46 -26 72 -23 22 -40 29 -73 30 -37 1
-43 -2 -46 -21 -3 -18 4 -24 37 -33 22 -6 43 -15 46 -20 10 -16 -35 -106 -67
-136 -25 -23 -30 -25 -23 -9 25 65 32 135 13 135 -6 0 -28 8 -47 17 l-36 17 0
86 c0 85 0 85 -27 88 -23 3 -39 25 -122 176 -53 96 -107 199 -121 230 -16 35
-33 60 -47 65 -17 7 -57 76 -152 266 -146 290 -227 418 -413 651 -70 88 -168
219 -218 289 -49 71 -184 255 -299 410 -115 154 -234 313 -264 353 l-54 73 21
23 c44 47 16 105 -79 166 -28 18 -49 34 -47 36 2 2 19 -1 38 -6 19 -5 80 -16
136 -24 64 -10 147 -32 229 -62 70 -25 159 -53 198 -61 95 -21 488 -23 690 -4
119 11 150 11 156 1 6 -10 61 -7 266 14 544 56 688 67 966 75 158 4 291 11
295 15 14 15 -499 -3 -794 -27 -156 -12 -279 -19 -275 -15 5 5 91 15 193 23
187 15 286 25 529 50 74 8 197 15 273 15 l137 0 0 -25 c0 -19 5 -25 23 -25 13
0 33 -9 45 -20 22 -21 56 -79 50 -85 -7 -7 -870 -35 -1194 -39 -357 -5 -357
-4 6 19 135 9 338 23 452 31 114 7 261 14 325 14 139 1 307 15 331 30 12 7 5
8 -28 5 -25 -3 -153 -9 -285 -15 -621 -27 -1216 -72 -1250 -94 -15 -10 -100
-15 -340 -20 -176 -4 -347 -10 -380 -15 -60 -8 -60 -8 40 -12 l100 -3 -87 -3
c-49 -2 -88 -8 -88 -13 0 -6 6 -11 13 -11 42 -4 148 6 247 23 94 16 203 22
590 31 521 13 996 13 1105 0 55 -7 0 -10 -250 -16 -176 -4 -468 -14 -650 -22
-181 -8 -379 -17 -440 -20 -60 -3 -177 -5 -260 -6 -138 -2 -144 -2 -80 -11 78
-10 204 -6 800 23 259 13 521 19 710 18 195 -2 309 1 325 8 l25 11 -30 12
c-16 6 -70 14 -118 17 -48 3 -84 9 -80 13 4 4 125 12 268 18 l259 12 36 -29
c93 -74 240 -134 423 -172 144 -29 264 -30 352 -2 56 17 140 27 415 48 190 15
368 28 395 30 28 3 133 9 235 15 102 7 186 13 188 15 20 20 -233 32 -773 36
-143 2 -173 4 -120 9 39 4 232 8 430 9 287 1 357 4 347 14 -8 7 -57 14 -130
18 -64 3 -115 7 -112 8 3 2 54 5 114 7 123 5 237 25 273 50 14 8 23 17 21 19
-2 2 -35 -4 -74 -15 -139 -36 -342 -47 -753 -42 l-114 2 40 29 c41 30 73 83
73 121 0 12 -15 37 -33 55 -25 25 -44 63 -72 142 -49 141 -155 401 -209 518
-42 90 -43 93 -25 109 11 9 19 21 19 28 0 36 -32 294 -54 444 -52 350 -55 588
-8 671 29 53 39 51 16 -3 -40 -95 -1 -390 65 -494 12 -18 -25 -87 -52 -96 -17
-5 -17 -7 -2 -25 38 -40 101 -54 247 -52 l136 1 6 -81 c3 -45 11 -219 16 -386
6 -167 13 -316 17 -331 l5 -28 -85 5 c-118 8 -122 -9 -10 -43 48 -14 97 -34
108 -44 35 -30 44 -31 95 -9 51 22 57 22 353 16 422 -9 601 -22 652 -47 34
-17 161 -129 153 -134 -10 -7 -839 -37 -1010 -36 -174 0 -208 -2 -208 -14 0
-8 7 -22 16 -31 14 -14 51 -16 308 -14 160 1 338 6 396 10 58 4 201 11 318 15
l212 7 1 -29 c0 -16 0 -84 -1 -151 -1 -94 2 -128 15 -152 18 -35 31 -39 42
-14 4 10 8 115 8 233 0 189 -2 219 -18 243 -14 21 -22 25 -45 21 -24 -5 -39 3
-95 50 -86 74 -122 89 -195 81 -31 -4 -142 1 -247 9 -104 9 -269 16 -367 16
l-177 0 -7 48 c-4 26 -4 178 1 337 4 160 9 391 11 514 2 181 6 226 18 240 8 9
19 35 24 58 6 24 35 77 71 127 109 150 117 178 146 489 9 92 25 229 36 305 19
135 76 429 85 444 3 5 27 8 54 8 l48 0 14 53 c15 60 16 333 2 567 -8 121 -12
145 -25 148 -10 2 -21 -9 -29 -28 -11 -26 -11 -69 0 -240 16 -261 7 -440 -24
-440 -38 1 -40 12 -27 182 7 89 17 246 22 348 4 102 13 210 18 240 19 109 13
350 -13 523 -14 89 -32 241 -41 337 -9 96 -34 351 -55 565 -22 215 -46 479
-55 588 -9 109 -23 235 -32 280 -19 96 -23 244 -7 270 8 15 14 -18 23 -145 14
-182 33 -346 57 -488 12 -72 22 -101 40 -121 18 -19 24 -36 24 -70 0 -25 7
-68 15 -95 19 -61 71 -340 85 -454 6 -47 17 -233 25 -415 13 -305 16 -341 46
-475 25 -115 32 -170 33 -266 1 -83 5 -126 14 -137 7 -8 17 -57 23 -107 5 -51
12 -96 15 -101 9 -15 33 -10 42 9 5 9 15 161 21 337 14 384 17 437 36 500 19
60 19 118 1 170 -8 22 -17 92 -21 155 -8 137 -21 230 -69 489 -47 251 -61 409
-47 534 11 101 30 197 37 197 3 0 2 -96 -2 -214 l-7 -214 31 -16 c22 -12 38
-13 55 -7 30 12 57 48 57 76 0 11 12 29 27 39 24 18 24 16 -13 -54 -21 -41
-64 -99 -96 -132 -61 -62 -68 -75 -43 -84 33 -13 65 7 104 64 21 32 59 82 84
110 24 29 48 67 53 85 8 27 20 37 76 64 l67 33 25 78 c39 125 49 223 43 426
-9 288 -75 538 -148 561 -10 4 -57 50 -102 103 -152 176 -225 235 -397 322
-183 92 -573 223 -764 257 -162 28 -220 10 -391 -126 l-79 -64 -66 6 c-36 3
-109 19 -163 36 -128 40 -197 50 -197 28 0 -25 39 -45 160 -82 118 -37 217
-52 272 -41 19 4 65 32 111 70 96 78 161 114 218 122 70 9 457 -93 685 -182
287 -111 498 -262 621 -446 27 -40 60 -85 74 -99 102 -101 152 -604 83 -824
-17 -53 -66 -126 -78 -115 -3 3 3 48 14 99 63 310 48 655 -36 824 -64 127
-126 169 -278 192 -50 7 -82 13 -70 14 28 1 44 20 44 53 0 25 -7 32 -52 53
-29 14 -59 25 -66 25 -7 0 -32 18 -56 40 -58 54 -128 84 -280 120 -117 28
-134 35 -190 78 -64 49 -61 48 -306 98 -113 23 -180 4 -218 -60 -28 -48 -129
-99 -177 -90 -18 3 -43 3 -55 -1 -19 -6 -21 -12 -17 -42 5 -26 1 -40 -13 -55
-24 -26 -43 -16 -110 62 -57 66 -104 87 -169 75 -54 -10 -86 -30 -167 -106
-42 -38 -79 -69 -84 -69 -5 0 -49 25 -98 55 -50 30 -94 55 -98 55 -4 0 5 -13
21 -30 16 -16 33 -30 38 -30 6 0 26 -12 44 -26 l35 -26 -39 -18 c-21 -9 -67
-40 -102 -68 -35 -29 -66 -50 -68 -48 -8 8 45 82 86 119 22 20 41 39 41 42 0
14 -49 -21 -88 -63 -28 -31 -42 -40 -38 -27 2 11 15 94 27 183 14 103 27 166
35 169 16 6 65 -20 131 -69 29 -21 74 -50 99 -63 46 -24 104 -34 104 -16 0 21
-44 60 -102 91 -35 18 -81 45 -103 60 -22 15 -59 37 -83 49 -34 17 -42 26 -36
39 4 9 8 39 9 65 1 26 5 50 8 54 11 10 -32 81 -62 103 -43 30 -109 57 -159 65
-42 7 -43 6 -40 -16 3 -24 14 -31 110 -73 41 -17 61 -33 73 -56 20 -38 17 -57
-31 -225 -19 -66 -51 -190 -73 -275 -23 -92 -43 -154 -50 -152 -16 3 -13 -16
4 -25 13 -8 13 -22 0 -118 -27 -208 -37 -370 -31 -478 6 -109 16 -147 40 -147
19 0 26 46 26 167 0 105 21 236 45 283 7 14 23 34 35 45 l23 20 -13 -24 c-24
-47 -31 -88 -41 -261 -6 -96 -11 -186 -12 -200 -2 -19 3 -26 19 -28 21 -3 20
-7 -25 -112 -25 -60 -49 -109 -53 -110 -4 0 -5 6 -2 14 3 8 -2 41 -11 74 -16
58 -19 61 -54 67 -20 3 -52 15 -71 26 -19 11 -26 17 -15 14 40 -13 112 -17
118 -8 12 19 -18 43 -70 56 -70 18 -122 55 -218 154 -44 46 -88 83 -97 83 -22
0 -22 8 -3 52 7 19 26 95 41 169 14 74 52 222 84 329 58 194 74 261 84 353 4
41 3 48 -11 45 -24 -5 -53 -68 -65 -145 -6 -37 -12 -69 -14 -71 -6 -9 -198
-75 -266 -92 -102 -27 -129 -24 -48 4 85 29 229 101 266 132 22 19 7 14 -61
-19 -127 -62 -261 -114 -368 -143 l-92 -25 96 5 c138 7 295 43 442 101 31 13
18 -14 -20 -40 -48 -32 -218 -86 -393 -124 -74 -17 -146 -34 -160 -40 l-25
-10 24 0 c38 -1 262 46 353 75 45 14 112 39 147 55 35 16 66 28 67 26 9 -8
-42 -136 -55 -141 -9 -3 -42 -14 -74 -25 -33 -11 -134 -32 -226 -46 -216 -32
-277 -46 -166 -39 182 12 342 42 439 83 l45 20 -14 -40 c-8 -22 -26 -94 -40
-160 -27 -126 -92 -386 -101 -400 -2 -5 -46 -22 -97 -38 -51 -16 -101 -33
-112 -37 -19 -7 -19 -7 -2 13 9 11 17 25 17 33 0 7 -9 2 -19 -12 -11 -13 -37
-31 -58 -40 -21 -9 -49 -21 -63 -27 -24 -11 -24 -11 8 -6 17 2 32 1 32 -3 0
-13 -63 -69 -95 -85 -17 -8 -69 -28 -115 -42 -163 -53 -189 -65 -205 -95 -23
-45 -18 -55 12 -20 29 35 42 42 162 77 47 13 108 36 135 50 78 38 33 1 -67
-56 -106 -62 -285 -140 -311 -138 -40 4 -79 -165 -45 -198 27 -26 87 -35 134
-20 82 24 209 145 261 247 31 61 18 63 -20 2 -42 -66 -164 -188 -213 -213 -70
-35 -140 -26 -157 22 -5 15 8 24 72 53 166 75 193 89 210 107 14 16 9 15 -34
-6 -78 -40 -225 -99 -231 -93 -12 12 15 26 147 81 126 51 271 137 257 151 -2
2 -33 -13 -68 -34 -122 -74 -314 -160 -327 -147 -10 10 29 35 53 35 28 0 208
88 299 146 39 26 101 70 137 100 118 94 267 179 285 162 3 -3 -33 -79 -80
-169 -159 -307 -226 -496 -261 -737 -23 -162 -34 -192 -164 -447 -117 -229
-117 -231 -160 -410 -23 -99 -60 -237 -82 -308 -52 -173 -73 -286 -66 -368 6
-77 29 -139 51 -139 10 0 17 -13 21 -37 11 -74 27 -119 67 -192 48 -89 50 -86
-87 -132 -85 -28 -87 -30 -39 -25 29 3 81 18 117 34 57 26 66 28 72 14 8 -22
-6 -33 -62 -48 -34 -9 -40 -13 -22 -13 15 -1 44 6 64 15 45 19 37 28 110 -122
78 -158 108 -192 121 -139 5 19 13 25 33 25 32 0 217 85 214 99 -1 5 18 16 43
25 41 14 45 14 42 0 -4 -19 -193 -123 -225 -123 -13 -1 -23 -5 -23 -11 0 -5
-16 -16 -35 -24 -41 -17 -46 -30 -10 -24 35 7 31 -4 -19 -50 -48 -44 -103 -75
-208 -116 -38 -14 -98 -38 -135 -52 -36 -14 -91 -39 -122 -54 -56 -28 -116
-43 -221 -55 -30 -4 -86 -14 -123 -22 l-69 -15 -99 37 c-96 36 -129 56 -58 34
54 -16 253 -13 363 6 115 20 252 59 275 79 9 7 49 28 89 46 39 18 78 40 85 48
10 13 9 14 -8 5 -58 -31 -283 -115 -370 -139 -84 -22 -124 -27 -255 -29 -160
-3 -231 9 -300 50 -23 14 -14 15 115 15 77 0 174 4 215 9 41 6 75 9 77 8 1 -2
-32 -16 -73 -31 -41 -16 -73 -30 -72 -31 6 -5 525 132 618 164 92 30 137 51
114 51 -6 0 -61 -16 -123 -36 -62 -19 -120 -32 -130 -29 -9 3 -32 -2 -49 -10
-17 -9 -59 -20 -94 -26 -98 -15 -119 -20 -113 -29 3 -4 -6 -10 -20 -12 -14 -3
-25 -1 -25 3 0 5 -9 9 -19 9 -11 0 -21 5 -23 11 -2 7 -12 7 -31 0 -16 -6 -54
-11 -85 -10 -57 0 -56 1 68 34 121 33 234 58 314 69 67 9 31 -5 -61 -25 l-88
-18 82 4 c74 4 224 43 245 63 9 9 -226 -3 -267 -13 -16 -4 -91 -25 -166 -46
-164 -46 -276 -65 -315 -52 -25 8 -11 13 106 42 180 43 344 70 464 78 77 5 94
8 75 16 -56 21 -329 -20 -578 -88 -92 -25 -168 -31 -205 -16 -16 6 -1 15 66
39 99 36 182 54 403 88 88 14 192 30 232 36 60 10 82 9 141 -5 79 -19 122 -22
122 -7 0 6 -14 10 -30 10 -17 0 -95 15 -173 34 -197 47 -249 56 -339 56 -85 0
-110 -9 -183 -64 -28 -22 -60 -36 -90 -41 -64 -9 -80 -16 -65 -25 8 -5 -11
-15 -46 -25 -56 -17 -58 -18 -30 -26 22 -6 40 -2 75 15 25 13 66 29 91 36 25
7 63 21 85 31 22 10 81 23 130 29 50 6 115 16 145 21 43 9 68 8 115 -3 72 -18
72 -18 -153 -48 -177 -23 -342 -60 -492 -110 -85 -29 -147 -58 -91 -43 12 3
60 -7 107 -23 74 -24 82 -29 62 -37 -13 -5 -54 -10 -93 -10 -74 -2 -70 -4
-220 77 -68 37 -72 38 -145 32 -41 -4 -99 -10 -128 -14 -59 -10 -71 -5 -41 16
11 8 18 20 15 27 -8 21 112 37 244 33 l115 -3 32 60 c30 57 33 60 68 59 20 -1
44 -9 53 -18 15 -15 12 -20 -37 -66 -54 -50 -54 -62 -1 -35 49 25 73 76 68
147 -3 58 -1 63 22 76 17 9 45 11 88 8 153 -13 161 19 35 130 -88 76 -143 113
-143 95 0 -5 26 -29 57 -53 69 -52 143 -122 143 -135 0 -5 -37 0 -82 13 -46
13 -105 29 -133 36 -47 13 -50 15 -46 43 1 17 5 33 8 37 2 4 36 -8 74 -28 39
-19 78 -33 87 -31 10 2 -19 21 -70 45 l-88 42 0 133 0 134 52 -13 c29 -8 98
-14 155 -14 90 0 102 -2 108 -19 7 -23 45 -59 45 -42 0 6 -12 34 -26 62 -14
28 -23 57 -20 65 7 17 84 18 208 3 118 -14 134 -5 77 44 -74 63 -244 139 -367
162 -84 16 -113 37 -163 114 -24 38 -29 55 -28 105 0 34 8 93 18 131 l17 70
27 -58 c15 -32 39 -73 53 -90 25 -30 26 -30 19 -7 -4 14 -15 36 -25 50 -29 42
-70 128 -70 147 1 11 6 6 14 -13 17 -39 87 -136 93 -130 3 3 -11 31 -31 63
-65 105 -98 232 -79 303 l10 35 41 -86 c51 -108 74 -193 72 -278 -1 -96 18
-179 47 -198 31 -20 42 -8 16 16 -37 35 -64 307 -63 636 1 247 5 286 29 277
14 -5 14 -4 2 11 -13 17 -13 31 6 160 3 21 11 41 19 44 10 4 11 10 4 23 -7 14
3 55 39 162 56 162 103 278 125 310 14 19 14 24 1 38 -8 9 -24 41 -35 71 -11
30 -18 41 -15 24 16 -88 17 -162 3 -190 l-15 -29 -14 25 c-7 13 -15 60 -17
105 -5 94 10 157 66 276 l36 77 33 -92 c18 -51 33 -106 33 -123 0 -33 -35 -88
-50 -79 -5 3 -19 36 -30 73 -24 80 -40 109 -40 74 0 -17 52 -169 65 -190 7
-10 35 15 53 47 27 48 30 145 6 179 -9 13 -11 22 -4 22 7 0 5 9 -4 22 -21 30
-20 56 4 96 19 31 21 32 42 17 31 -21 45 -19 25 3 -23 25 -22 28 12 42 66 27
119 129 94 182 -11 22 -12 22 -12 -9 -1 -17 -5 -34 -10 -37 -16 -10 -59 52
-81 119 -25 74 -36 84 -26 24 8 -53 38 -109 75 -145 27 -25 29 -30 16 -53 -12
-24 -80 -71 -102 -71 -10 0 -33 85 -33 120 0 10 5 31 11 47 l11 28 14 -45 c12
-41 50 -97 60 -88 2 3 -13 35 -33 73 -32 61 -37 79 -39 147 -3 84 -23 169 -49
206 -19 26 -35 29 -36 5 -3 -47 -18 78 -24 206 -6 107 -5 142 4 137 6 -4 11
-16 11 -28 0 -36 49 -266 66 -308 9 -22 21 -40 26 -40 13 0 6 64 -20 170 -11
47 -25 116 -30 153 -8 49 -20 84 -46 125 -58 92 -124 232 -141 297 -12 47 -14
87 -9 181 4 76 3 128 -4 139 -9 17 -10 17 -16 -1 -12 -40 -23 -160 -19 -214 7
-86 40 -208 79 -290 l36 -75 3 -175 c1 -96 6 -185 10 -197 7 -21 4 -23 -31
-23 -22 0 -125 -14 -231 -32 -106 -18 -195 -29 -198 -26 -7 7 72 323 125 498
105 346 152 460 240 587 41 59 50 80 28 67 -7 -5 2 12 20 36 37 51 43 79 7 35
-41 -50 -28 -17 19 49 45 63 76 96 76 80 0 -5 -7 -43 -14 -85 -51 -265 -40
-517 29 -664 8 -17 28 -68 44 -113 54 -145 91 -207 150 -245 58 -38 306 -60
411 -36 25 5 122 47 215 94 108 53 210 95 280 116 61 17 138 44 172 59 60 27
153 102 153 123 0 6 -17 -5 -37 -25 -38 -36 -129 -88 -154 -88 -8 0 6 12 31
26 61 34 144 116 128 125 -8 5 27 46 104 122 118 116 164 177 133 177 -30 0
-72 -29 -110 -76 -54 -66 -80 -74 -239 -74 -91 0 -137 -4 -142 -11 -5 -9 30
-11 136 -7 l144 5 -35 -31 -35 -32 -133 14 c-122 13 -154 12 -138 -4 3 -3 63
-11 133 -18 l126 -11 -27 -27 c-15 -16 -39 -29 -54 -29 -32 -2 -17 -2 -141 5
-78 4 -97 3 -75 -5 17 -5 72 -13 123 -16 90 -6 92 -7 75 -25 -68 -75 -272
-131 -359 -98 -15 6 -29 9 -31 6 -10 -9 37 -26 81 -28 57 -4 54 -18 -7 -38
-26 -8 -47 -20 -47 -27 0 -6 -54 -39 -121 -73 -121 -61 -205 -87 -299 -90 -77
-3 -96 0 -116 16 -10 8 -12 12 -4 8 13 -7 13 -6 1 10 -19 23 -65 46 -91 46
-30 0 -16 -17 20 -25 17 -4 30 -11 30 -16 0 -13 -35 -3 -75 21 -74 45 -90 76
-177 335 -25 77 -52 235 -40 235 2 0 18 -12 35 -26 35 -29 167 -98 167 -87 0
9 -20 22 -89 61 -25 13 -58 33 -73 44 -30 21 -55 86 -44 114 5 14 13 8 43 -30
34 -44 113 -98 113 -78 0 5 -26 29 -58 54 -62 48 -92 96 -92 146 0 50 16 46
59 -15 22 -32 50 -64 61 -71 36 -22 22 7 -28 61 -93 99 -95 111 -62 249 14 55
22 131 25 223 7 197 14 294 26 338 9 33 13 36 34 31 18 -4 27 -1 32 12 5 13
-4 26 -31 49 l-37 31 39 77 c22 42 52 123 67 179 16 57 36 110 45 118 9 9 25
28 34 43 15 22 16 27 4 27 -8 0 -23 -9 -33 -20 -10 -11 -28 -20 -40 -20 -19 0
-28 -16 -64 -109 -23 -61 -51 -120 -61 -133 -15 -17 -12 -6 10 44 37 82 39
123 3 53 -14 -27 -33 -59 -43 -70 -10 -11 -28 -51 -40 -90 -13 -38 -51 -135
-85 -215 -34 -80 -66 -156 -70 -170 -21 -68 -264 -328 -378 -405 -29 -19 -47
-35 -40 -35 6 0 44 22 85 49 69 46 138 112 237 226 l43 50 -32 -47 c-56 -80
-167 -194 -233 -238 -34 -23 -62 -46 -62 -50 0 -17 -21 -29 -62 -36 -41 -6
-43 -6 -43 20 0 14 4 26 9 26 5 0 44 23 86 51 152 102 285 265 385 473 63 130
95 219 104 281 11 75 25 113 71 190 23 39 57 99 75 135 44 89 60 104 151 140
66 27 86 41 118 81 22 27 47 69 58 94 10 25 26 48 35 50 40 14 73 55 123 157
30 60 64 119 77 130 13 12 59 38 103 59 44 21 123 63 175 94 52 30 105 55 118
55 14 0 63 15 111 34 168 67 457 72 694 12 140 -36 199 -71 329 -198 62 -60
136 -124 163 -142 28 -18 70 -55 93 -82 55 -62 126 -206 153 -309 32 -124 21
-206 -76 -565 -71 -263 -87 -296 -179 -368 -93 -74 -166 -148 -166 -168 0 -14
-10 -15 -77 -9 -127 12 -171 25 -62 18 66 -3 99 -2 103 6 5 7 -8 11 -41 12
-26 1 -37 3 -23 6 53 8 70 14 70 24 0 6 -13 7 -35 3 -22 -4 -35 -2 -35 4 0 6
26 13 58 17 72 8 93 12 112 24 26 18 6 18 -109 3 -71 -9 -121 -11 -134 -5 -16
7 -4 13 64 32 46 13 107 25 136 28 47 5 53 4 53 -13 0 -15 6 -12 34 15 30 29
47 63 115 225 2 5 -1 6 -7 2 -5 -3 -13 1 -16 10 -11 29 -6 62 10 68 9 4 14 9
12 12 -3 3 -28 -2 -54 -11 -73 -23 -224 -54 -224 -46 0 15 96 60 170 80 l75
21 -70 -4 c-69 -5 -69 -4 -29 9 22 7 60 23 83 35 l44 22 -7 -36 c-4 -22 -3
-36 3 -36 12 0 18 36 25 145 3 45 8 89 12 100 5 13 4 16 -5 11 -7 -5 -49 -5
-93 -1 -102 9 -84 23 38 30 48 2 92 9 98 15 7 7 5 10 -7 10 -13 0 -17 9 -17
40 0 37 2 39 38 45 70 12 82 26 16 20 -51 -5 -63 -3 -68 10 -9 24 -8 25 14 25
26 0 71 21 65 31 -3 4 -23 5 -46 2 l-40 -6 15 38 c9 21 16 39 16 41 0 2 5 4
10 4 6 0 10 -7 10 -15 0 -8 5 -15 10 -15 18 0 10 40 -10 52 -25 16 -26 28 -2
29 9 1 4 5 -13 9 -16 4 -22 8 -12 9 27 2 20 18 -13 30 -17 5 -30 17 -30 27 0
9 -16 38 -35 64 -19 26 -35 53 -35 59 0 6 -18 20 -40 31 -39 20 -93 82 -106
122 -4 13 1 25 13 34 17 14 16 15 -14 11 -28 -3 -45 6 -110 58 -43 34 -84 69
-92 78 -7 9 -23 17 -35 17 -33 0 -80 36 -81 61 0 12 -6 24 -12 26 -8 3 -13 -4
-13 -17 0 -20 -3 -19 -60 12 -47 26 -62 30 -69 20 -6 -10 -14 -10 -32 -3 -30
12 -149 32 -159 26 -4 -2 -105 -27 -224 -54 -230 -54 -296 -79 -364 -136 -30
-26 -48 -35 -62 -30 -15 5 -18 3 -14 -8 4 -11 -8 -16 -47 -20 -83 -10 -133
-48 -229 -174 -47 -62 -101 -129 -121 -150 -46 -49 -79 -93 -79 -106 0 -6 9
-2 20 8 24 22 24 23 5 -39 -8 -27 -15 -77 -15 -110 1 -54 2 -59 14 -43 18 24
30 6 21 -33 -7 -30 -30 -57 -38 -43 -2 4 -8 31 -12 58 -8 59 -26 104 -49 128
-43 42 -56 -7 -24 -89 21 -55 22 -72 20 -231 -2 -95 -1 -173 3 -173 3 0 17 7
30 16 23 15 25 22 25 94 0 42 3 97 6 122 6 42 8 45 55 61 69 25 144 99 243
241 95 136 185 227 242 246 46 15 47 13 68 -102 35 -187 78 -250 236 -342 59
-35 120 -83 200 -161 63 -61 141 -126 173 -144 31 -18 57 -34 57 -37 0 -10
-105 50 -198 111 l-97 66 58 -56 c56 -53 220 -145 259 -145 15 0 168 -78 168
-85 0 -5 -141 47 -223 81 -34 14 -110 51 -168 81 -103 53 -107 56 -113 93 -3
22 -11 42 -16 45 -6 4 -8 -21 -3 -71 l6 -77 -25 6 c-15 4 -34 10 -45 14 -16 6
-16 5 -4 -10 7 -9 19 -17 25 -17 31 -1 38 -17 21 -51 -10 -19 -19 -35 -20 -37
-1 -1 -14 2 -29 7 -15 6 -26 7 -26 1 0 -5 9 -12 20 -15 11 -3 20 -10 20 -14 0
-18 -44 -62 -105 -107 -59 -44 -78 -64 -57 -64 4 0 30 17 57 38 l51 39 157
-85 c86 -46 162 -82 169 -80 12 4 -223 139 -281 160 l-30 12 31 38 c16 21 35
38 40 38 6 0 59 -27 118 -59 168 -94 298 -157 395 -191 101 -35 104 -26 5 15
-119 49 -501 246 -507 261 -3 8 2 25 11 39 l16 25 108 -54 c281 -141 457 -205
486 -176 7 7 3 10 -12 10 -49 0 -218 65 -389 149 -179 88 -183 91 -183 121 0
18 3 30 8 28 4 -1 81 -40 172 -85 172 -86 293 -128 405 -139 36 -4 65 -11 65
-15 0 -5 -7 -9 -16 -9 -8 0 -13 -4 -10 -9 3 -5 15 -7 27 -4 19 5 20 3 13 -33
-10 -55 -10 -55 -67 -48 -81 9 -125 22 -225 66 -51 22 -95 38 -97 36 -3 -3 32
-23 77 -46 91 -45 184 -72 247 -72 30 0 41 -4 41 -15 0 -22 163 -20 263 4 42
10 77 14 77 9 0 -14 -48 -28 -98 -28 -34 0 -43 -3 -35 -11 6 -6 32 -10 57 -8
50 4 56 -8 15 -28 -29 -15 -145 -17 -154 -3 -3 6 4 10 17 10 13 0 29 4 37 9
22 14 -60 24 -129 16 l-60 -7 -61 -76 c-87 -108 -112 -166 -113 -262 -1 -76
-1 -76 -26 -73 -14 2 -19 0 -12 -3 10 -5 9 -9 -5 -20 -17 -13 -16 -14 12 -12
28 3 30 1 33 -35 4 -44 28 -60 48 -32 8 10 14 42 14 71 l0 51 38 7 c88 14 152
2 152 -30 0 -15 -45 -109 -62 -131 -8 -10 -18 -9 -45 2 -20 8 -47 15 -62 14
-21 0 -16 -5 28 -25 30 -13 57 -26 59 -28 3 -4 -27 -117 -33 -124 -2 -2 -20 4
-41 13 -75 32 -84 35 -84 25 0 -11 63 -44 102 -54 19 -4 28 -14 33 -35 7 -31
32 -48 48 -32 6 6 11 41 12 78 1 87 25 140 138 305 47 70 91 145 98 168 9 31
28 54 68 89 106 88 165 156 189 215 28 71 125 439 148 561 29 159 8 287 -76
460 -42 86 -89 141 -185 213 -33 25 -115 99 -182 164 -105 102 -134 124 -205
158 -93 43 -202 73 -327 89 -80 11 -228 13 -281 4z m134 -188 c12 -32 -16
-256 -31 -241 -3 2 0 44 6 93 7 53 8 100 3 118 -8 26 -10 21 -16 -40 -15 -162
-38 -325 -57 -400 -25 -100 -70 -238 -75 -232 -4 4 29 173 43 221 3 12 1 16
-6 12 -8 -5 -9 9 -4 51 5 32 8 140 8 240 l-1 182 51 9 c56 9 71 7 79 -13z
m149 0 c22 -9 22 -3 -14 -131 -42 -147 -139 -391 -156 -391 -20 0 -17 12 43
192 43 131 57 184 59 244 2 42 2 65 -1 51 -37 -171 -146 -512 -159 -498 -2 2
12 55 31 118 52 175 77 303 72 371 -3 47 -1 59 11 61 19 4 89 -6 114 -17z
m114 -25 l42 -27 -58 -144 c-69 -171 -132 -311 -138 -305 -6 5 23 95 86 274
56 159 63 192 25 118 -29 -55 -154 -411 -154 -439 0 -10 -13 -41 -30 -70 -16
-29 -30 -45 -30 -38 0 25 -16 0 -43 -69 -15 -36 -27 -56 -27 -44 0 11 23 67
50 123 45 91 67 152 40 111 -25 -38 -7 27 36 132 57 138 95 249 118 345 12 49
22 71 30 66 6 -4 30 -19 53 -33z m-422 -7 c10 -28 17 -281 6 -258 -4 11 -12
45 -15 75 -13 98 -28 170 -37 170 -10 0 -7 -26 17 -175 22 -131 28 -235 16
-275 l-10 -35 -1 52 c-1 28 -6 55 -12 59 -8 4 -10 -30 -8 -117 2 -68 -1 -161
-5 -206 -6 -58 -6 -83 2 -83 13 0 63 104 88 183 10 31 21 57 26 57 12 0 11 -3
-26 -100 -37 -95 -53 -160 -40 -160 4 0 16 8 27 18 20 17 20 16 13 -17 l-6
-35 27 25 c49 43 73 70 73 81 0 6 3 9 6 6 3 -3 -14 -42 -37 -87 -42 -80 -43
-81 -63 -62 -12 10 -56 41 -98 69 -42 29 -79 56 -83 62 -10 16 17 12 37 -7 10
-9 21 -14 24 -10 3 3 8 101 11 219 4 161 1 236 -10 308 -14 93 -51 210 -66
210 -4 0 3 -42 16 -92 30 -119 49 -288 38 -353 l-8 -50 -9 35 c-5 19 -19 67
-31 105 l-21 70 -6 -55 -5 -55 -28 100 c-30 107 -56 166 -90 203 -36 39 -37
24 -1 -35 47 -78 73 -168 81 -277 4 -50 9 -82 11 -71 2 11 9 25 14 30 7 7 8 3
4 -10 -13 -44 -24 -119 -19 -132 3 -7 0 -13 -6 -13 -6 0 -11 12 -11 28 -1 15
-7 44 -14 64 -8 21 -10 35 -5 32 13 -8 11 1 -16 65 -13 33 -27 78 -31 100 -4
23 -10 41 -15 41 -5 0 -9 16 -9 36 0 29 -3 35 -20 32 -10 -2 -26 6 -34 17 -20
27 -36 10 -43 -44 -5 -40 -23 -48 -23 -11 0 11 -10 39 -22 64 l-21 44 38 33
c21 19 43 34 49 34 12 0 98 -158 123 -227 21 -59 34 -63 21 -6 -13 60 -40 117
-87 187 -23 33 -41 64 -41 69 0 13 96 36 110 27 19 -12 59 -102 81 -180 19
-69 55 -165 63 -165 9 0 -58 230 -84 287 -17 37 -29 68 -27 69 2 2 30 10 63
18 32 8 77 19 99 24 22 6 43 10 46 11 4 1 10 -7 14 -16z m557 -123 c-3 -8 -15
-28 -27 -45 -12 -16 -46 -73 -75 -125 -64 -115 -139 -239 -157 -261 -23 -28
-14 -33 14 -8 14 13 1 -8 -30 -48 -63 -80 -73 -102 -26 -57 l31 29 -23 -45
c-13 -25 -43 -69 -67 -99 -52 -65 -77 -111 -61 -111 7 0 10 -12 7 -30 -5 -33
3 -38 22 -15 10 12 16 13 26 4 11 -9 32 6 99 69 91 87 165 146 258 207 31 21
57 43 57 50 0 18 97 58 237 99 138 41 143 41 143 22 0 -8 -25 -20 -67 -30
-195 -49 -428 -182 -572 -324 -24 -24 -40 -39 -37 -33 13 21 0 11 -35 -26 -29
-30 -30 -33 -7 -17 15 10 28 23 28 27 0 5 4 6 9 3 10 -6 121 40 171 71 20 12
47 34 60 48 71 77 164 115 334 140 56 8 117 17 136 20 23 4 30 2 20 -4 -19
-11 -242 -76 -293 -85 -50 -9 -152 -65 -207 -114 -31 -28 -128 -79 -123 -65
13 34 -144 -55 -197 -112 -13 -14 -28 -25 -34 -25 -6 0 -32 19 -59 41 l-47 41
30 34 c16 19 40 52 52 74 13 22 29 40 37 40 7 0 11 6 8 14 -3 7 1 23 9 35 8
12 13 25 10 30 -3 5 5 25 19 45 14 20 25 42 25 49 0 7 46 91 101 187 56 96
122 215 147 265 36 72 46 86 52 70 4 -11 5 -27 2 -35z m123 -41 c0 -8 -36 -48
-80 -89 -43 -41 -73 -65 -65 -53 8 11 34 49 58 83 46 67 57 104 16 55 -13 -16
-65 -87 -115 -157 -136 -192 -138 -180 -6 37 26 44 62 108 78 143 l31 63 41
-34 c23 -19 42 -41 42 -48z m75 -47 c0 -4 -13 -15 -29 -25 -88 -52 -312 -259
-317 -293 -2 -9 -6 -20 -11 -23 -4 -3 -14 -18 -22 -33 -8 -15 -27 -42 -43 -60
l-30 -33 27 50 c15 28 39 71 52 97 33 61 132 171 244 270 77 67 92 77 109 68
11 -6 20 -14 20 -18z m49 -96 c-11 -13 -89 -46 -89 -38 0 4 16 17 35 30 19 12
35 27 35 32 0 14 -67 -29 -174 -112 -50 -38 -104 -76 -120 -85 -27 -13 -25 -9
19 37 56 58 194 169 240 193 30 15 30 15 46 -16 9 -18 12 -36 8 -41z m108 -97
c26 -10 43 -25 43 -41 0 -5 -19 -8 -42 -8 -68 0 -174 -27 -228 -56 -28 -15
-49 -29 -47 -30 1 -2 34 8 71 22 92 33 95 25 3 -10 -63 -25 -161 -77 -234
-124 -13 -8 -23 -12 -23 -9 0 2 36 28 80 56 79 52 112 82 74 67 -66 -25 -200
-123 -296 -216 -59 -58 -108 -102 -108 -99 0 17 94 131 155 188 114 106 266
194 430 247 82 27 85 27 122 13z m128 -276 c-9 -20 -17 -38 -18 -39 -1 -1 -43
-9 -94 -18 -117 -20 -217 -57 -378 -139 -71 -36 -131 -64 -132 -63 -6 6 164
112 240 149 79 39 195 71 302 83 57 7 58 8 25 15 -18 4 -59 3 -89 -2 -30 -5
-57 -7 -59 -4 -7 7 156 52 196 54 22 1 22 0 7 -36z m2 -187 c-3 -8 -36 -15
-94 -20 -99 -7 -221 -35 -314 -71 -34 -14 -64 -23 -66 -21 -9 9 103 70 167 92
69 23 201 51 270 56 35 3 47 -9 37 -36z m-628 -222 c-11 -13 -5 -12 29 5 23
12 42 19 42 16 0 -2 -13 -11 -30 -20 -32 -17 -42 -42 -12 -30 9 4 40 10 67 15
28 5 59 12 70 16 11 4 17 4 13 0 -3 -4 -34 -17 -68 -29 -65 -23 -78 -40 -35
-45 20 -3 25 -7 20 -23 -8 -25 14 -25 84 1 83 32 95 18 17 -18 l-70 -32 -72
34 c-40 19 -89 45 -109 59 l-35 24 45 17 c25 10 45 23 45 28 0 6 3 8 6 5 4 -4
1 -14 -7 -23z m161 -655 c20 0 16 -3 -15 -13 -38 -11 -39 -12 -15 -19 49 -13
144 -7 188 13 23 10 42 15 42 10 0 -20 -51 -42 -137 -58 -85 -16 -87 -17 -39
-20 26 -2 62 2 79 7 38 14 50 5 12 -9 -33 -13 -192 -22 -199 -12 -2 4 1 31 6
60 10 47 13 53 32 48 12 -3 32 -6 46 -7z m-2763 -868 c-7 -85 -54 -336 -68
-361 -10 -18 -10 129 0 271 5 87 9 99 36 132 17 19 32 36 34 36 2 1 1 -35 -2
-78z m-89 4 c1 -1 -10 -91 -24 -199 -15 -107 -29 -194 -31 -193 -1 2 -8 50
-13 107 -6 56 -17 117 -24 134 l-13 31 -13 -25 c-8 -14 -16 -65 -18 -113 -3
-48 -6 -86 -8 -84 -2 1 -17 66 -33 142 -16 77 -32 147 -35 156 -15 35 60 59
159 51 28 -3 51 -6 53 -7z m-196 -207 c47 -207 58 -334 39 -423 -6 -30 -6 -30
-29 24 -44 101 -58 220 -54 439 1 45 5 82 10 82 4 0 19 -55 34 -122z m3696
-54 c21 -16 58 -46 82 -68 37 -34 42 -42 34 -63 -6 -16 -22 -30 -45 -37 -20
-7 -64 -31 -98 -54 -33 -22 -69 -39 -78 -37 -64 13 -75 18 -83 38 -7 17 -9 18
-9 5 -1 -22 -21 -24 -21 -2 0 8 -4 13 -8 10 -4 -2 -14 -1 -21 3 -16 10 -9 25
37 75 54 59 82 107 82 139 0 29 1 30 44 25 28 -3 60 -17 84 -34z m-502 5 c8
-14 -42 -66 -131 -137 -38 -30 -87 -71 -107 -91 -42 -39 -50 -28 -25 32 22 52
65 95 151 153 83 55 100 62 112 43z m-3623 -141 c12 -288 72 -515 178 -677
l23 -34 -25 13 -24 13 23 -25 c14 -16 22 -37 22 -61 0 -45 -8 -46 -45 -7 -16
16 -31 28 -34 25 -2 -3 8 -18 22 -33 34 -36 46 -77 35 -120 -9 -33 -9 -33 -33
-18 -33 22 -32 7 1 -19 48 -39 -4 -85 -55 -48 -45 33 -57 37 -33 11 15 -17 20
-28 13 -33 -6 -3 -11 -26 -11 -51 0 -24 -3 -44 -6 -44 -3 0 -20 11 -38 25 -54
41 -52 29 3 -23 45 -42 51 -53 51 -87 0 -47 9 -54 -122 100 -138 162 -198 245
-244 338 -45 88 -98 253 -92 282 4 23 61 -56 165 -228 92 -154 164 -255 212
-301 42 -40 39 -27 -8 35 -58 77 -135 231 -169 339 -31 96 -63 245 -61 284 1
38 57 -93 110 -259 57 -179 94 -256 145 -306 l35 -34 -19 45 c-11 25 -41 92
-67 150 -89 197 -125 331 -125 463 l1 72 58 -140 c85 -206 190 -427 213 -450
14 -13 19 -15 15 -5 -3 8 -24 62 -47 120 -51 128 -104 313 -129 443 -15 84
-16 97 -3 97 12 0 12 3 2 15 -43 52 -37 -57 15 -260 20 -75 34 -139 32 -141
-2 -2 -23 46 -47 108 -51 136 -110 252 -121 241 -12 -12 -14 -65 -6 -158 l7
-80 -19 40 c-11 22 -20 45 -20 51 -1 6 -12 21 -26 34 l-25 23 0 -65 c0 -70 33
-211 75 -324 14 -37 24 -71 23 -75 -2 -4 -41 55 -86 132 -76 125 -119 179
-143 179 -14 0 -10 -61 7 -125 30 -110 29 -114 -7 -60 -19 27 -42 51 -53 53
-16 4 -18 -1 -11 -50 19 -155 76 -295 205 -502 53 -87 -6 -17 -81 96 -84 125
-139 192 -172 210 -19 10 -19 8 -13 -38 4 -27 23 -84 41 -127 24 -56 29 -77
18 -73 -36 14 24 -128 103 -242 24 -35 44 -65 44 -68 0 -3 -30 22 -67 56 -38
34 -85 71 -106 81 -34 18 -38 18 -44 4 -14 -38 6 -134 46 -220 23 -48 41 -90
41 -93 0 -2 -18 12 -41 33 -22 20 -43 34 -46 32 -10 -11 91 -189 134 -237 25
-28 42 -50 39 -50 -3 0 -29 16 -56 36 -68 49 -74 37 -8 -14 29 -22 105 -88
168 -147 63 -59 154 -138 202 -175 48 -37 84 -70 81 -74 -3 -3 5 -10 18 -15
13 -6 33 -19 45 -29 24 -20 49 -62 37 -62 -4 0 -57 18 -118 40 -114 42 -164
74 -202 130 -28 41 -30 19 -3 -25 25 -41 75 -76 170 -117 103 -46 132 -62 155
-88 l20 -22 -64 7 c-46 5 -62 4 -57 -4 4 -6 22 -11 39 -11 18 0 39 -5 47 -10
12 -8 9 -10 -13 -10 -36 0 -331 122 -343 142 -3 4 1 17 8 28 12 19 8 25 -42
67 -130 110 -235 227 -280 311 -25 46 -60 103 -78 125 -83 106 -88 156 -33
332 16 55 35 127 40 160 18 105 34 326 28 393 -4 47 1 87 14 140 25 96 48 140
118 230 101 131 121 163 121 194 0 58 28 96 116 153 65 43 88 65 110 104 24
46 83 99 110 100 7 1 13 -48 17 -141z m4247 -93 c0 -8 19 -24 43 -36 209 -106
394 -419 467 -795 51 -261 43 -344 -86 -849 -8 -33 -42 -125 -76 -205 -33 -80
-105 -277 -160 -439 -55 -162 -122 -353 -150 -425 -27 -72 -65 -176 -85 -231
-20 -55 -81 -197 -136 -315 -171 -370 -220 -487 -277 -668 -59 -188 -105 -282
-169 -349 -11 -12 -21 -31 -21 -41 0 -23 -64 -83 -117 -111 -21 -10 -85 -38
-143 -60 -57 -23 -110 -47 -117 -53 -23 -18 -23 -4 -3 50 11 29 20 62 20 75 0
20 3 19 33 -14 17 -20 40 -39 50 -43 32 -10 19 25 -28 75 -49 53 -54 72 -30
139 23 65 18 95 -7 40 -11 -25 -26 -52 -32 -60 -7 -8 -18 -34 -24 -57 -7 -22
-33 -69 -58 -103 -25 -34 -43 -64 -41 -66 8 -8 66 56 88 95 l20 36 -5 -40 c-9
-63 -24 -110 -49 -146 -26 -39 -81 -79 -109 -79 -11 0 -36 -13 -56 -29 -32
-25 -165 -81 -193 -81 -14 0 10 42 111 196 l90 137 0 -46 c0 -26 -13 -81 -29
-127 -29 -78 -30 -102 -2 -58 7 12 21 45 31 73 10 29 34 73 54 99 37 49 96
164 96 187 -1 22 -27 -17 -71 -103 -47 -94 -64 -101 -54 -23 3 30 5 55 2 55
-5 0 -127 -163 -148 -197 -9 -16 -20 -21 -34 -17 -27 7 -48 -17 -43 -48 4 -23
5 -22 16 5 14 33 35 37 23 4 -5 -13 -30 -55 -55 -94 -39 -61 -51 -72 -82 -77
-20 -4 -39 -5 -42 -1 -3 3 11 38 31 78 21 39 37 77 37 83 0 5 13 20 29 32 43
32 130 181 91 157 -5 -3 -28 -37 -50 -75 -23 -39 -43 -70 -47 -70 -3 0 -3 15
-1 34 4 40 -7 39 -17 -1 -3 -16 -22 -62 -40 -104 -19 -43 -38 -94 -44 -115 -9
-34 -21 -46 -93 -91 -150 -94 -242 -127 -393 -139 -91 -7 -102 -1 -65 36 10
10 41 30 67 44 51 26 98 65 89 73 -3 3 -19 -6 -36 -21 -47 -39 -53 -32 -19 24
33 54 73 149 65 157 -2 2 -23 -31 -47 -74 -48 -88 -110 -183 -131 -200 -8 -7
-26 -9 -48 -4 l-35 8 27 8 c16 4 26 11 23 15 -3 4 15 24 39 43 120 99 187 308
165 518 -5 47 -13 97 -18 110 -8 18 -9 6 -4 -42 7 -88 -13 -255 -43 -351 -14
-43 -44 -106 -67 -140 -75 -110 -271 -241 -382 -254 l-50 -6 73 37 c117 59
212 167 296 334 42 83 43 106 1 34 -60 -103 -148 -223 -200 -272 -75 -71 -235
-143 -235 -106 0 9 21 20 58 31 31 9 73 25 93 35 41 20 108 91 91 97 -6 2 6
36 28 80 36 71 95 250 86 259 -2 2 -27 -56 -56 -129 -29 -73 -63 -152 -77
-175 -25 -43 -94 -112 -133 -133 -27 -15 -26 -12 42 77 76 101 122 202 153
338 19 80 34 245 23 245 -10 0 -22 -54 -43 -184 -30 -197 -92 -340 -175 -406
-39 -31 -128 -75 -136 -67 -2 2 29 28 68 58 62 46 138 133 138 158 0 4 -42
-33 -92 -84 -94 -92 -193 -155 -245 -155 -36 0 -21 15 65 65 93 53 139 99 186
186 104 190 129 403 65 548 -10 24 -18 45 -17 46 9 8 87 44 108 50 14 4 59 23
100 42 41 19 120 52 175 72 178 68 204 84 312 204 l42 47 93 0 c70 0 99 4 117
16 22 16 23 19 16 118 l-7 102 51 65 c27 35 72 95 98 133 47 68 48 69 44 135
-2 36 -5 99 -5 139 l-1 72 87 83 c79 75 87 86 93 130 3 26 3 67 0 91 -4 24 -2
69 5 100 10 47 21 67 67 117 l56 60 7 82 c4 45 17 107 29 137 45 113 95 210
107 210 18 0 55 68 99 183 20 53 47 112 59 130 12 17 69 70 128 117 58 47 115
96 126 110 54 70 69 150 32 170 -19 10 -18 13 27 49 128 102 564 568 605 646
l11 20 -23 -20 c-12 -11 -86 -90 -163 -175 -77 -85 -208 -224 -291 -308 -141
-143 -202 -192 -241 -192 -30 0 4 41 190 230 99 102 205 213 233 248 59 71
156 212 150 217 -2 2 -46 -48 -98 -112 -132 -162 -268 -319 -329 -378 -44 -43
-51 -46 -51 -27 0 28 -21 28 -79 2 -24 -11 -45 -19 -47 -17 -2 2 35 53 83 113
105 133 259 291 373 387 108 90 124 106 80 79 -81 -49 -153 -108 -249 -207
-71 -72 -101 -97 -97 -80 4 16 1 27 -9 32 -12 7 13 38 118 144 74 74 166 159
205 188 79 59 93 75 35 40 -101 -60 -231 -177 -353 -318 -30 -34 -71 -71 -92
-81 -20 -9 -53 -27 -72 -40 -20 -12 -36 -20 -36 -18 0 14 50 104 92 165 92
133 259 275 450 382 l56 31 31 -25 c45 -38 108 -139 203 -326 116 -225 133
-278 133 -404 0 -106 -12 -148 -62 -225 -32 -49 -29 -85 13 -145 25 -37 35
-63 36 -92 0 -46 -54 -236 -129 -451 -29 -84 -53 -156 -53 -159 0 -16 34 26
55 68 27 53 128 358 150 454 20 85 11 144 -32 206 -18 27 -33 54 -33 60 0 7
21 51 47 98 43 79 47 93 51 171 3 58 -1 107 -12 150 -17 70 -155 350 -242 491
-53 86 -149 186 -212 222 -46 26 -41 3 9 -43 l42 -38 -44 -19 c-134 -60 -263
-157 -448 -338 -138 -134 -142 -138 -106 -80 87 139 213 271 380 399 116 89
121 94 58 61 -29 -16 -83 -53 -120 -83 -38 -30 -57 -43 -43 -27 14 15 69 63
123 107 54 44 96 82 93 85 -2 3 -33 -14 -67 -38 -69 -46 -200 -173 -325 -313
-43 -49 -87 -97 -97 -106 -10 -9 -15 -23 -12 -31 3 -8 -24 -64 -61 -124 -37
-61 -91 -155 -120 -210 -30 -55 -54 -97 -54 -93 0 23 90 249 132 329 62 119
282 416 386 522 88 89 148 136 236 183 69 38 76 40 76 19z m-316 -38 c16 -12
7 -26 -111 -161 -185 -213 -328 -384 -365 -436 l-31 -45 47 45 c26 25 90 99
141 165 51 66 108 134 125 150 18 17 -2 -14 -44 -69 -89 -113 -133 -180 -190
-286 -22 -41 -43 -77 -46 -80 -20 -16 -92 -229 -134 -395 -24 -98 -116 -509
-116 -522 0 -3 -2 -4 -5 -1 -8 7 18 164 75 456 28 139 50 261 49 270 -2 40
-33 -89 -75 -318 -46 -252 -62 -321 -63 -285 -2 36 38 287 65 410 36 167 85
309 154 450 47 95 94 165 225 339 189 250 251 326 269 326 7 0 20 -6 30 -13z
m-2489 -155 c-22 -100 -62 -203 -147 -382 -85 -178 -106 -249 -112 -365 -3
-57 -12 -112 -26 -150 -37 -106 -138 -469 -240 -865 -54 -212 -110 -428 -124
-480 -39 -144 -57 -259 -57 -380 -1 -102 2 -116 37 -217 38 -107 39 -109 39
-263 0 -85 -3 -167 -8 -182 -7 -25 -12 -28 -50 -28 -23 0 -99 -16 -169 -36
-71 -19 -138 -34 -150 -32 -18 2 -13 9 36 43 32 22 62 47 67 57 5 10 19 18 30
18 11 0 17 5 14 10 -9 14 -48 12 -117 -6 -33 -8 -62 -14 -64 -12 -5 6 108 93
161 124 27 15 85 38 130 50 44 13 71 23 60 23 -11 0 -45 -6 -75 -14 -74 -20
-77 -19 -49 12 l24 27 -25 -17 c-50 -35 -114 -59 -211 -80 -54 -11 -102 -18
-105 -14 -13 12 26 50 74 72 28 13 83 55 124 95 88 86 62 77 -42 -14 -85 -74
-110 -86 -56 -26 20 22 36 51 36 63 0 16 14 34 43 55 46 34 187 167 187 177 0
12 -37 -15 -100 -75 -36 -33 -77 -70 -92 -81 l-28 -20 0 24 c0 52 33 103 124
189 50 48 86 88 80 88 -6 0 -19 -9 -29 -20 -27 -30 -29 -17 -6 29 27 52 26
107 -2 153 -12 20 -35 57 -50 82 -35 56 -37 106 -8 199 27 88 48 246 65 502
16 227 25 267 99 426 65 140 87 234 162 684 40 242 76 466 80 498 6 57 6 58
-14 47 -27 -14 -51 -61 -51 -99 0 -16 -4 -33 -10 -36 -16 -10 -12 69 7 139
l16 62 38 -10 c31 -8 59 -5 141 13 144 32 352 51 356 33 2 -7 -4 -48 -13 -90z
m101 -37 c26 -98 9 -187 -76 -394 -66 -160 -135 -376 -159 -498 -11 -56 -36
-142 -55 -192 -43 -112 -71 -244 -91 -431 -8 -80 -18 -170 -21 -200 -3 -30
-14 -100 -24 -155 -12 -61 -21 -167 -24 -270 -3 -106 -16 -257 -35 -400 -19
-140 -31 -275 -31 -345 -1 -289 -29 -482 -84 -573 -52 -87 -55 -88 -126 -85
l-65 3 37 25 c21 14 38 31 38 39 0 11 -3 11 -15 1 -25 -21 -27 -6 -6 42 46
108 63 190 68 333 4 128 2 148 -21 235 -57 205 -60 234 -47 365 13 134 22 176
86 420 25 94 77 298 115 455 65 268 197 726 222 773 6 12 14 75 18 141 8 138
14 155 109 351 106 216 151 338 151 412 0 34 14 54 18 26 1 -10 10 -45 18 -78z
m3225 -230 c-16 -42 -17 -53 -5 -81 7 -17 22 -74 34 -125 11 -52 34 -141 51
-197 31 -102 31 -105 20 -195 -7 -51 -16 -96 -20 -100 -4 -4 -8 25 -8 65 -2
177 -40 389 -94 526 -24 60 -27 77 -18 95 13 25 51 69 55 64 2 -2 -5 -25 -15
-52z m-1917 -15 c43 -38 67 -90 101 -215 15 -55 30 -106 33 -115 9 -27 -34 33
-58 80 -13 25 -38 90 -56 145 l-33 100 -1 -130 c0 -125 17 -307 40 -436 16
-87 6 -83 -18 8 -57 211 -90 593 -51 593 4 0 24 -14 43 -30z m-3206 -155 c27
-44 71 -120 98 -170 40 -74 73 -115 188 -232 76 -79 136 -143 132 -143 -4 0
-17 5 -28 11 -18 10 -20 9 -15 -5 6 -14 -4 -16 -68 -16 l-74 0 -44 58 c-63 81
-128 185 -171 270 -43 85 -102 257 -112 322 l-6 45 26 -30 c14 -16 48 -66 74
-110z m3128 -37 c-13 -103 1 -183 59 -354 25 -72 45 -143 45 -158 0 -15 -12
-88 -26 -164 -15 -83 -28 -200 -33 -297 -8 -150 -11 -168 -50 -290 -23 -71
-51 -159 -62 -195 -20 -65 -67 -150 -82 -150 -5 0 -6 4 -3 8 3 5 16 78 30 163
14 85 30 181 35 214 l10 60 -5 -80 c-2 -44 -7 -96 -10 -115 -3 -29 -3 -31 5
-13 14 32 29 161 35 303 4 97 3 117 -5 90 -6 -19 -24 -70 -40 -112 -16 -42
-45 -145 -64 -227 -36 -159 -56 -228 -154 -541 -67 -210 -109 -372 -137 -515
-12 -66 -23 -97 -41 -117 -22 -23 -23 -27 -8 -30 16 -3 18 -15 16 -96 -2 -74
1 -93 13 -98 8 -3 76 18 151 46 75 29 139 50 141 47 3 -2 -45 -26 -106 -51
-140 -59 -212 -102 -187 -112 10 -3 42 3 72 14 63 24 75 14 15 -13 -46 -21
-75 -49 -65 -65 6 -9 -82 -57 -90 -48 -1 1 -13 23 -25 47 -12 24 -46 80 -76
124 -76 113 -93 154 -110 257 -17 104 -30 144 -44 135 -18 -11 -32 48 -26 115
6 77 32 180 86 345 22 66 49 165 60 220 31 152 54 212 166 435 56 113 109 225
117 250 9 25 31 124 51 221 19 97 50 222 68 278 l32 101 36 0 c19 0 46 7 58
16 39 27 24 2 -40 -64 -54 -57 -60 -65 -44 -74 14 -8 29 -3 68 21 28 18 53 30
55 27 2 -2 -26 -29 -64 -59 -37 -30 -79 -67 -93 -82 l-25 -28 30 7 c17 4 63
27 103 52 40 24 76 44 79 44 11 0 -47 -58 -150 -148 -53 -47 -95 -87 -93 -90
8 -7 126 89 220 179 80 78 88 88 66 89 -25 0 -64 -17 -125 -54 -32 -20 13 26
110 112 26 23 45 45 42 48 -8 8 -71 -21 -131 -61 -29 -19 -57 -35 -61 -35 -5
0 22 31 58 69 59 61 83 101 59 101 -4 0 -28 -11 -55 -25 -54 -29 -61 -21 -16
21 35 33 119 143 119 157 0 5 -39 -37 -87 -92 -48 -55 -89 -99 -90 -97 -11 11
98 260 175 396 31 57 37 62 42 42 3 -13 1 -60 -4 -104z m-2465 -32 c46 -24
101 -49 122 -56 45 -14 45 -13 11 -185 -33 -167 -27 -284 12 -231 15 22 16 21
34 -12 10 -20 17 -23 46 -18 23 5 56 -1 110 -20 79 -27 99 -24 92 12 -2 12
-22 26 -55 39 -29 11 -53 25 -53 30 0 6 9 24 20 40 l20 30 0 -25 c1 -72 79
-71 94 1 3 18 9 30 12 27 8 -9 -17 -138 -38 -198 -30 -82 -98 -223 -105 -217
-3 4 -2 36 2 72 6 64 7 65 36 65 22 0 29 5 29 20 0 26 -34 47 -100 61 -62 13
-110 35 -110 49 0 6 -7 10 -15 10 -33 0 -39 -41 -41 -295 -4 -285 -12 -546
-19 -553 -8 -8 -276 138 -379 207 -117 79 -156 116 -49 48 87 -57 155 -91 264
-133 82 -31 146 -47 89 -21 -277 123 -436 220 -516 313 -25 30 -49 53 -52 50
-17 -18 162 -214 248 -271 90 -60 343 -201 374 -209 25 -6 26 -10 26 -71 l0
-65 -32 14 c-60 25 -168 78 -168 81 0 2 10 1 23 -2 37 -10 14 5 -74 48 -57 28
-102 59 -141 97 -31 31 -76 73 -99 92 -22 19 -56 58 -74 86 -19 29 -57 78 -85
109 -44 49 -80 107 -80 131 0 3 31 5 69 2 l68 -4 78 -72 c42 -39 145 -118 228
-174 133 -90 157 -102 201 -105 l51 -4 -65 27 c-86 36 -162 82 -252 150 -40
31 -95 72 -121 91 -53 39 -56 54 -6 28 20 -11 44 -15 66 -12 28 5 58 -7 181
-70 81 -42 160 -85 175 -96 16 -10 30 -17 33 -14 9 8 -89 83 -191 147 -112 70
-193 132 -178 137 19 7 104 -37 209 -107 107 -72 143 -85 85 -31 -27 25 -28
28 -9 23 l22 -5 -23 32 c-13 18 -42 46 -64 62 -47 34 -44 36 21 10 59 -24 92
-18 92 14 0 13 -7 25 -15 29 -18 7 -20 -5 -2 -23 10 -11 4 -12 -33 -7 -66 9
-158 58 -250 131 -85 68 -110 82 -69 39 l24 -26 -30 4 c-25 3 -31 9 -41 46 -8
26 -9 42 -3 42 16 0 68 -29 144 -80 113 -75 219 -115 236 -88 5 7 9 16 9 21 0
11 -18 8 -22 -4 -5 -16 -122 31 -206 83 -79 48 -182 133 -182 150 0 16 120 4
160 -17 19 -10 55 -34 80 -55 66 -54 90 -68 138 -79 54 -12 50 -8 -37 37 -71
37 -174 112 -166 121 3 2 43 -22 90 -54 73 -50 92 -59 132 -59 68 -1 66 20 -2
26 -48 4 -68 13 -140 63 l-85 58 0 50 c0 49 0 49 23 35 88 -57 149 -88 196
-102 92 -27 81 -18 -59 50 -74 35 -142 72 -152 81 -12 11 -18 31 -18 61 0 43
1 44 28 38 15 -4 51 -24 79 -44 84 -59 134 -82 178 -81 l40 0 -56 18 c-31 10
-83 34 -115 54 -97 60 -90 53 -72 74 8 10 17 24 19 31 3 9 28 -2 77 -34 55
-35 85 -47 120 -50 l47 -4 -41 14 c-54 18 -100 42 -152 80 -41 29 -43 32 -36
66 3 19 7 41 7 48 0 17 10 15 38 -7 36 -28 106 -61 128 -61 36 0 31 17 -7 24
-47 7 -154 76 -147 94 3 8 5 27 5 43 0 16 2 29 4 29 2 0 41 -20 87 -44z m3360
-90 c-34 -70 -61 -113 -82 -128 -44 -33 -69 -79 -69 -126 0 -46 -31 -124 -87
-215 -20 -33 -47 -86 -60 -116 -26 -65 -28 -51 -12 78 7 59 20 106 42 151 48
99 145 268 190 330 44 61 119 142 125 136 2 -3 -19 -52 -47 -110z m-4013 -171
c59 -82 137 -181 174 -220 38 -38 68 -75 68 -81 0 -7 3 -20 7 -30 10 -28 -9
-14 -106 75 -102 94 -183 188 -231 271 -33 56 -80 170 -80 193 1 19 53 -45
168 -208z m4126 113 c-71 -77 -244 -249 -244 -243 0 19 68 139 100 177 43 50
117 101 107 73 -9 -22 -2 -19 31 15 52 52 57 33 6 -22z m-725 -25 c-37 -126
-137 -527 -150 -601 -7 -39 -14 -70 -17 -68 -7 8 19 188 44 304 46 207 118
432 138 432 2 0 -4 -30 -15 -67z m2077 -110 c16 -118 31 -633 18 -620 -4 4
-13 101 -20 215 -20 333 -27 527 -19 520 4 -3 13 -55 21 -115z m-5511 -95 c81
-110 176 -211 251 -264 48 -35 63 -52 73 -85 7 -22 11 -43 9 -45 -2 -1 -31 14
-63 35 -57 36 -146 120 -197 185 -29 39 -148 236 -148 247 0 22 19 3 75 -73z
m4102 -55 c-19 -27 -40 -47 -46 -46 -6 2 -31 -23 -56 -55 -51 -65 -249 -459
-285 -567 -12 -38 -58 -145 -102 -236 -61 -128 -82 -185 -94 -250 -18 -101
-29 -132 -56 -156 -21 -18 -21 -18 -13 42 4 33 23 114 42 180 19 66 38 147 42
180 l7 60 8 -48 c15 -85 21 -58 21 86 0 140 13 227 60 407 l14 55 -5 -75 c-3
-41 -12 -117 -20 -170 -15 -101 -11 -150 12 -150 29 0 47 62 55 195 10 154 20
184 103 338 35 64 69 130 75 146 10 22 17 27 35 24 13 -3 34 1 47 8 23 12 23
12 8 -12 -69 -104 -196 -355 -186 -365 2 -3 33 48 68 111 154 278 159 285 224
315 33 16 64 29 68 29 5 1 -7 -20 -26 -46z m-4157 -62 c24 -20 93 -82 152
-138 59 -56 129 -114 154 -130 53 -31 119 -91 112 -99 -3 -3 -37 9 -76 27 -62
27 -75 30 -103 20 -18 -6 -54 -11 -80 -11 -35 0 -51 -5 -58 -17 -7 -12 -13
-14 -18 -8 -103 141 -159 264 -176 387 l-6 38 27 -17 c15 -9 47 -33 72 -52z
m4201 -111 c-7 -49 -41 -99 -118 -169 -81 -74 -108 -76 -59 -4 14 20 23 39 20
42 -7 8 -29 -22 -66 -91 -31 -59 -73 -106 -84 -95 -14 13 20 99 82 209 35 62
64 118 64 123 0 6 34 10 83 10 82 0 82 0 78 -25z m1057 -107 c-4 -45 -25 -127
-61 -238 -31 -93 -88 -278 -126 -410 -97 -335 -163 -520 -193 -548 -27 -25
-42 -96 -54 -269 l-7 -86 -34 21 c-18 12 -36 31 -38 42 -3 11 22 99 56 195 34
96 96 279 139 405 43 127 117 336 165 465 48 129 102 292 119 362 17 70 33
128 35 128 2 0 1 -30 -1 -67z m-1982 -605 l7 -158 -71 -92 c-68 -90 -122 -149
-122 -134 0 4 28 67 61 139 63 134 99 228 99 255 0 23 -28 -4 -51 -51 -11 -21
-22 -37 -25 -35 -2 3 7 43 21 89 14 46 33 112 43 147 17 62 17 63 24 30 4 -18
11 -104 14 -190z m-2310 24 c13 -158 -9 -328 -51 -399 -16 -28 -16 -33 5 -109
12 -43 30 -91 41 -106 10 -15 19 -29 19 -32 0 -2 -30 4 -67 15 -105 30 -129
21 -29 -11 106 -34 116 -42 91 -70 -20 -22 -62 -35 -147 -45 l-57 -6 11 34
c13 41 4 85 -18 94 -20 8 -34 -13 -34 -53 0 -50 -37 -76 -140 -99 -51 -11 -53
-13 -30 -23 l25 -10 -28 -11 c-16 -6 -43 -12 -60 -12 -30 -2 -31 -2 -4 -6 33
-5 33 -6 5 -43 -13 -18 -33 -32 -52 -34 -152 -23 -188 -27 -192 -23 -2 2 41
21 96 43 55 21 100 42 100 46 0 11 -41 -3 -125 -41 -77 -35 -84 -36 -185 -35
-102 2 -277 20 -214 23 18 0 34 7 37 15 7 17 65 32 234 56 157 23 173 27 170
42 -1 5 55 41 126 79 104 56 198 112 227 136 2 2 -1 8 -9 12 -9 6 -2 15 26 31
45 27 83 60 83 72 0 16 -25 8 -38 -12 -6 -11 -40 -34 -74 -51 -59 -30 -62 -30
-75 -13 -7 10 -12 22 -10 27 1 5 32 19 67 32 36 12 85 32 110 44 44 20 44 21
10 15 -19 -4 -67 -19 -106 -34 -84 -34 -150 -48 -140 -32 4 7 48 31 98 54 50
23 86 44 79 46 -6 2 -55 -17 -109 -42 -105 -49 -128 -54 -157 -32 -17 12 -13
15 46 34 35 12 126 37 202 55 125 32 137 33 137 17 0 -29 27 -45 46 -29 15 12
16 35 10 210 -8 219 -4 264 24 266 16 1 19 -9 26 -85z m-311 -142 c44 -24 107
-54 140 -66 l60 -22 3 -50 3 -50 -53 -11 c-29 -7 -64 -15 -77 -18 -18 -4 -22
-3 -16 7 6 10 0 11 -26 7 -19 -4 -63 -9 -99 -12 l-65 -5 40 16 c26 11 69 17
123 17 45 1 82 2 82 4 0 9 -52 26 -113 37 -54 9 -73 16 -75 29 -6 31 26 30 95
-3 71 -33 153 -54 153 -39 0 5 -5 9 -10 9 -6 0 -52 16 -103 36 l-93 35 -33 66
c-17 36 -28 63 -24 61 5 -1 44 -23 88 -48z m2390 -112 c-9 -37 -38 -121 -65
-188 -28 -67 -50 -124 -50 -126 0 -11 22 -1 49 22 44 36 40 11 -9 -64 -65
-102 -91 -162 -69 -162 6 0 50 37 97 83 85 81 88 74 11 -26 -43 -57 -99 -161
-99 -186 0 -24 94 73 160 165 78 109 151 238 145 255 -3 8 10 32 28 53 25 29
37 37 48 30 8 -5 23 -9 34 -9 18 0 20 -8 23 -63 2 -36 -4 -86 -12 -115 -15
-51 -69 -148 -114 -203 l-24 -29 20 35 c11 19 32 57 47 83 15 26 25 50 22 53
-7 7 -59 -70 -87 -131 -64 -137 -109 -178 -270 -249 -36 -16 -82 -40 -102 -53
l-38 -23 0 27 c0 40 54 272 88 383 16 52 59 190 96 307 36 117 69 231 73 255
l8 43 3 -50 c2 -27 -4 -80 -13 -117z m-2762 73 c73 -32 155 -66 182 -75 28 -9
56 -19 63 -21 10 -4 10 -11 -2 -34 -17 -32 -33 -38 -127 -47 -89 -9 -163 13
-212 62 -20 21 -37 32 -37 25 0 -9 -6 -11 -17 -6 -10 4 -24 9 -30 12 -7 3 -13
0 -13 -6 0 -6 24 -24 54 -41 29 -17 61 -39 71 -50 18 -20 17 -20 -16 -21 -19
0 -52 -3 -74 -8 l-40 -7 48 -17 c27 -9 72 -31 100 -48 29 -18 75 -40 102 -50
54 -19 53 -19 -27 -44 -41 -13 -42 -14 -12 -14 17 -1 51 6 74 14 49 17 70 19
70 6 0 -5 -32 -17 -71 -25 -38 -9 -78 -21 -87 -27 -12 -8 -39 -7 -94 4 -43 8
-78 11 -78 7 0 -4 37 -15 83 -26 81 -18 82 -19 42 -26 -22 -4 -58 -7 -81 -7
-39 -1 -41 1 -52 38 -7 21 -36 72 -66 112 -61 85 -81 135 -73 190 7 53 38 93
115 144 37 25 68 45 70 45 2 0 63 -26 135 -59z m5507 -181 c12 -74 24 -196 27
-270 l4 -135 -25 43 c-41 70 -46 107 -45 338 2 236 5 238 39 24z m-2508 74
c-1 -25 -7 -54 -13 -65 -16 -30 -149 -185 -249 -289 l-91 -95 27 55 c33 67
114 185 209 305 39 50 80 103 90 118 23 35 29 29 27 -29z m-2672 -259 c21 -26
4 -41 -72 -63 -92 -26 -248 -35 -234 -13 12 18 145 53 190 49 25 -2 46 0 46 4
0 5 -4 8 -10 8 -17 0 -11 18 8 23 35 9 60 7 72 -8z m28 -70 c-20 -14 -97 -56
-170 -95 -73 -38 -132 -74 -131 -79 1 -5 -41 -10 -95 -11 -53 0 -152 -4 -219
-9 -67 -4 -144 -4 -170 -1 l-48 6 35 6 c19 4 107 12 195 18 294 20 309 22 294
31 -8 5 -63 9 -124 9 -122 0 -146 7 -120 34 9 9 26 21 38 28 23 12 256 27 263
17 2 -4 -17 -12 -41 -19 -25 -7 -48 -17 -51 -21 -10 -16 54 -9 100 10 25 11
62 23 83 27 21 3 46 13 55 22 17 14 111 51 133 52 5 0 -7 -11 -27 -25z m2812
-63 c0 -26 -9 -65 -19 -87 -28 -61 -138 -178 -180 -191 -20 -6 -46 -16 -58
-23 -13 -6 -23 -8 -23 -4 1 9 113 93 118 88 2 -2 -1 -13 -8 -24 -21 -40 -1
-21 25 23 14 23 34 51 45 61 11 10 20 29 20 42 0 13 14 50 30 83 17 33 30 67
30 75 0 9 5 13 10 10 6 -3 10 -27 10 -53z m-2452 -111 c-7 -10 -33 -43 -58
-74 l-45 -57 -105 0 -105 0 45 26 c25 15 69 37 99 49 61 25 52 35 -35 35 -30
0 -54 5 -54 10 0 6 1 10 3 10 41 2 225 43 241 53 19 14 21 13 24 -10 2 -13 -2
-32 -10 -42z m629 -62 c-11 -8 25 -20 155 -53 99 -25 165 -52 103 -43 -16 3
-101 13 -188 23 l-158 18 2 75 c1 42 4 79 6 83 2 4 23 -16 47 -45 23 -28 38
-55 33 -58z m-1767 22 c0 -10 -59 -24 -185 -42 -153 -21 -125 -46 42 -36 52 3
93 4 91 2 -12 -12 -189 -47 -263 -52 -87 -5 -175 8 -175 26 0 12 46 30 119 46
36 9 102 26 146 40 81 24 225 35 225 16z m906 2 c-4 -4 -42 -21 -84 -38 -65
-25 -77 -34 -77 -53 0 -13 -7 -28 -15 -33 -12 -9 -11 -9 5 -3 24 8 222 19 215
11 -6 -7 -269 -77 -287 -77 -9 0 -9 12 2 47 19 64 78 122 141 139 54 14 111
18 100 7z m1104 -137 c90 -17 158 -40 206 -68 19 -11 34 -21 32 -22 -5 -3
-267 12 -408 24 -142 11 -170 17 -170 35 0 27 168 24 353 -6 38 -6 71 -9 73
-6 14 14 -155 40 -283 45 -88 3 -143 8 -143 15 0 14 243 2 340 -17z m-1010 2
c0 -2 -7 -21 -15 -43 -8 -22 -14 -59 -15 -83 0 -52 -19 -99 -52 -130 -33 -30
-271 -125 -264 -105 3 8 6 29 6 46 0 29 4 33 43 45 45 14 231 121 223 129 -3
3 -45 -18 -94 -45 -88 -50 -156 -82 -173 -82 -5 0 -9 29 -9 65 l0 65 53 -6
c57 -7 132 9 159 33 24 22 14 33 -30 33 l-37 0 33 20 c46 28 173 71 172 58z
m4505 -60 c-3 -29 -13 -100 -20 -158 -8 -58 -22 -179 -30 -270 -8 -91 -23
-205 -34 -255 -17 -80 -47 -266 -67 -410 -4 -27 -8 -45 -11 -39 -6 17 60 532
112 877 25 164 45 300 45 302 0 3 3 5 6 5 3 0 3 -24 -1 -52z m-2101 -9 c-6
-35 -7 -35 -112 -68 -59 -18 -113 -35 -120 -38 -8 -3 -10 1 -6 14 14 37 48 62
130 93 46 17 87 36 90 42 12 19 23 -8 18 -43z m-1594 -18 c112 -9 144 -21 56
-21 -37 0 -55 -4 -51 -10 4 -7 28 -8 66 -4 55 6 59 5 68 -17 5 -13 7 -26 5
-28 -5 -5 -163 -3 -219 4 -72 9 -79 15 -71 59 6 31 10 36 26 31 11 -4 65 -10
120 -14z m-1218 -294 c-5 -21 -16 -34 -33 -38 -15 -5 -18 -7 -6 -8 9 -1 17 -5
17 -9 0 -17 -49 -73 -93 -107 -25 -19 -48 -44 -52 -54 -3 -11 -5 -69 -3 -130
2 -64 -1 -114 -7 -120 -7 -7 -9 16 -6 69 1 44 -1 80 -5 80 -5 0 -10 -24 -12
-53 -6 -129 -10 -143 -55 -172 -23 -15 -57 -43 -74 -63 -28 -31 -33 -34 -33
-17 0 11 6 29 14 40 7 11 17 40 21 64 11 66 8 249 -4 305 -10 42 -9 51 5 67
16 18 16 21 -7 45 -34 36 -146 86 -264 119 -55 15 -107 31 -115 36 -9 5 61 9
167 9 100 0 216 5 258 11 42 6 79 9 81 6 5 -5 -214 -57 -238 -57 -25 0 -22
-17 3 -31 20 -10 279 -30 289 -22 15 13 -39 23 -132 23 -59 0 -109 4 -112 8
-3 5 48 21 112 36 64 16 135 38 157 50 l40 21 -48 3 c-26 2 -102 -6 -168 -17
-164 -28 -206 -26 -76 3 15 4 37 16 48 27 11 11 60 32 107 46 109 31 164 58
140 68 -10 4 -25 5 -33 1 -8 -3 -15 -2 -15 2 0 4 28 18 63 32 l62 25 8 -133
c4 -73 4 -147 -1 -165z m2818 185 c6 -25 6 -50 0 -74 -9 -29 -16 -36 -43 -41
-17 -3 -40 -8 -50 -12 -29 -12 -9 24 24 41 33 17 39 35 9 27 -23 -6 -23 -8
-11 35 13 45 -3 40 -18 -5 l-11 -38 -153 -51 c-83 -28 -161 -54 -172 -58 -14
-5 -12 -1 8 16 39 32 387 209 398 203 4 -3 13 -23 19 -43z m-2593 -177 c-28
-41 -41 -53 -54 -48 -15 5 -14 3 2 -10 11 -8 18 -17 15 -19 -17 -11 -218 -108
-224 -108 -4 0 8 19 28 41 19 23 40 57 46 75 10 29 24 40 113 82 56 27 104 48
106 46 2 -2 -12 -28 -32 -59z m-924 -4 c5 -5 -10 -11 -33 -15 -50 -8 -120 -35
-120 -47 0 -4 21 -1 48 7 124 38 153 45 170 42 10 -3 -13 -19 -63 -43 -103
-49 -83 -57 25 -9 66 29 92 35 123 31 66 -9 66 -23 1 -52 -126 -56 -261 -59
-360 -9 -30 15 -54 30 -54 34 0 4 18 14 40 23 22 8 40 11 40 7 0 -5 28 4 63
21 59 28 98 31 120 10z m1157 -40 c-67 -58 -139 -99 -189 -107 -41 -7 -44 -6
-37 12 4 10 10 31 13 45 5 25 14 29 117 57 146 39 149 39 96 -7z m-1490 -31
c31 -22 39 -45 18 -52 -18 -6 5 -61 56 -126 24 -32 51 -64 60 -71 24 -20 20
-27 -34 -60 l-51 -31 -58 62 c-144 155 -171 191 -171 229 0 46 18 69 60 78 42
9 79 0 120 -29z m648 -32 c31 -19 33 -22 18 -34 -16 -12 -16 -14 -1 -38 22
-33 39 -232 26 -296 -9 -45 -9 -44 -10 25 -1 39 -8 98 -16 130 -18 68 -46 147
-51 142 -2 -2 8 -55 22 -118 23 -101 25 -128 20 -234 -9 -167 -10 -175 -21
-175 -6 0 -10 66 -10 177 0 143 -4 189 -18 236 -23 73 -84 144 -133 153 -19 3
-34 9 -34 13 0 13 85 40 129 40 28 1 56 -7 79 -21z m558 -14 c-3 -9 -9 -26
-12 -39 -4 -16 -20 -28 -50 -40 -25 -9 -85 -43 -134 -75 -93 -61 -100 -62
-100 -4 0 21 5 24 33 24 36 0 124 27 132 40 3 5 -27 -1 -66 -12 -39 -11 -73
-17 -76 -14 -4 3 27 20 68 38 41 18 101 47 134 65 69 37 80 39 71 17z m309
-30 c-68 -56 -136 -97 -200 -120 -37 -14 -70 -23 -72 -20 -10 10 11 77 27 86
23 13 242 79 260 79 9 0 3 -9 -15 -25z m2165 19 c-1 -5 -7 -19 -15 -33 -8 -14
-14 -34 -15 -46 0 -17 -21 -29 -115 -67 -63 -26 -141 -53 -174 -61 -57 -13
-59 -13 -65 7 -3 12 -4 22 -3 23 1 2 60 23 130 48 70 24 151 58 180 75 85 50
38 38 -101 -25 -79 -36 -168 -64 -202 -64 -50 0 -27 16 67 45 49 15 135 44
193 66 113 41 120 43 120 32z m-3159 -111 c40 -44 49 -91 52 -254 2 -132 0
-146 -20 -180 -12 -21 -18 -38 -13 -38 6 0 10 -12 9 -27 -1 -37 -104 -123
-146 -123 -37 1 -131 40 -174 73 -20 15 -65 40 -100 56 -95 43 -178 154 -195
259 -4 23 -9 42 -13 42 -3 0 -31 -7 -61 -15 -75 -20 -114 -20 -106 1 4 11 1
14 -12 10 -9 -2 -94 -27 -188 -55 -94 -28 -178 -51 -186 -51 -19 0 -42 109
-27 125 10 10 158 14 219 5 33 -5 36 -3 63 48 28 51 28 54 11 73 -21 23 -34
25 -34 4 0 -30 -19 -14 -26 21 -8 41 4 54 49 54 53 0 97 -31 155 -108 l56 -74
40 7 c82 15 88 14 101 -30 7 -22 13 -33 14 -25 1 10 6 7 17 -8 13 -18 13 -26
3 -38 -27 -33 5 -24 68 19 161 110 177 124 203 173 39 72 80 97 154 92 51 -4
63 -9 87 -36z m4722 -210 c51 -35 63 -50 70 -80 7 -34 -8 -172 -19 -172 -3 0
-9 12 -15 28 l-11 27 -15 -29 c-8 -16 -25 -65 -37 -110 -27 -97 -49 -141 -79
-161 -20 -13 -67 -11 -67 3 0 2 17 24 39 47 61 67 72 98 15 45 -69 -65 -70
-65 -132 -113 -31 -24 -67 -49 -79 -56 -13 -6 -23 -21 -23 -32 0 -11 -27 -49
-60 -84 -59 -63 -74 -90 -46 -79 20 8 45 -71 28 -88 -20 -20 -13 -32 8 -13 19
17 20 17 35 -19 8 -20 22 -52 30 -72 49 -118 74 -379 56 -574 -17 -176 -72
-430 -93 -430 -5 0 -8 19 -8 43 0 23 -10 92 -21 152 -17 91 -20 148 -20 330 1
286 -20 436 -84 581 -22 50 -79 124 -96 124 -22 0 -5 -113 45 -297 65 -242 68
-253 61 -253 -7 0 -53 95 -105 212 -23 54 -60 127 -82 164 -39 64 -39 66 -21
86 18 21 18 21 -4 9 -28 -14 -33 -14 -33 3 0 17 56 66 76 66 7 0 20 13 29 29
8 16 33 50 55 76 22 25 40 50 40 54 0 5 35 36 78 69 141 110 251 240 321 379
17 34 31 65 31 69 0 4 -23 -29 -52 -72 -85 -129 -215 -294 -233 -294 -3 0 26
46 63 103 73 111 118 210 127 279 6 42 5 42 -18 -17 -28 -74 -62 -144 -101
-210 -40 -67 -127 -187 -132 -182 -8 8 32 91 110 227 85 150 134 266 142 338
5 41 0 34 -36 -58 -53 -137 -113 -265 -118 -251 -5 15 29 116 89 264 27 66 49
127 49 135 0 7 41 -24 91 -70 50 -46 118 -102 152 -126z m-3503 86 c-11 -29
-20 -60 -20 -68 0 -11 -30 -22 -112 -42 -62 -14 -115 -24 -117 -22 -3 2 16 24
41 48 42 40 89 64 163 82 46 11 5 16 -43 5 -40 -8 -56 -1 -30 15 12 8 103 32
125 33 9 1 7 -14 -7 -51z m-290 16 c-26 -30 -98 -74 -189 -113 -71 -31 -91
-36 -91 -24 0 26 33 71 64 88 33 18 218 74 225 69 2 -2 -2 -11 -9 -20z m-290
-8 c0 -25 -58 -64 -112 -75 -128 -25 -132 -25 -125 -7 4 10 7 28 7 41 0 29 14
34 108 39 40 2 76 6 79 10 12 12 43 6 43 -8z m28 -276 c-23 -22 -46 -40 -53
-40 -6 0 -33 -14 -58 -31 -67 -44 -125 -149 -83 -149 29 0 46 13 79 59 33 46
38 49 153 86 196 63 276 82 413 101 156 21 182 17 293 -49 40 -24 100 -54 133
-67 33 -13 121 -49 195 -81 201 -85 232 -93 335 -94 50 0 97 4 106 8 28 14 44
-52 44 -183 0 -92 -5 -130 -24 -190 -26 -85 -68 -169 -111 -220 -24 -29 -32
-33 -47 -24 -13 8 -32 6 -75 -7 -94 -30 -294 -68 -441 -84 -194 -22 -585 -37
-609 -24 -11 6 -52 40 -91 76 -61 56 -74 64 -101 60 -21 -3 -37 1 -52 14 -11
10 -38 28 -60 39 l-39 20 60 -5 c33 -3 98 -10 145 -16 47 -5 120 -10 163 -12
42 -1 77 -5 77 -9 0 -4 -25 -26 -55 -48 -66 -49 -71 -60 -13 -28 48 26 138
110 138 129 0 8 -6 7 -17 -4 -16 -14 -20 -14 -42 4 -18 15 -39 19 -95 19 l-71
0 76 44 c70 42 113 76 93 76 -5 0 -36 -18 -69 -40 -77 -52 -132 -72 -181 -68
l-39 3 72 39 c40 21 93 56 117 77 40 35 50 39 98 39 30 0 62 6 71 13 16 11 16
14 3 32 -12 17 -23 19 -83 15 -105 -7 -274 -5 -316 4 l-38 7 46 51 c25 28 43
53 40 56 -3 3 -27 -17 -53 -45 -45 -49 -86 -71 -114 -60 -8 3 14 30 57 71 39
36 64 66 58 66 -7 0 -34 -21 -60 -47 -108 -107 -157 -126 -92 -35 63 87 90
111 130 122 38 10 89 45 89 60 0 15 -63 22 -93 11 -15 -6 -56 -33 -91 -59 -60
-47 -68 -50 -170 -66 -58 -9 -229 -30 -379 -46 -149 -17 -335 -39 -412 -49
-77 -11 -187 -25 -245 -31 -124 -13 -390 -56 -475 -75 -340 -80 -1056 -211
-1360 -249 -66 -9 -205 -22 -310 -31 -183 -15 -362 -40 -510 -70 -38 -8 -187
-39 -330 -69 -245 -52 -506 -96 -567 -96 -23 0 -28 4 -28 25 0 32 23 43 180
90 131 39 183 64 200 96 9 16 22 19 74 19 34 0 66 3 70 8 4 4 56 8 114 8 63 1
155 10 222 23 63 12 151 28 195 36 129 23 281 58 600 138 384 96 452 110 805
156 153 20 456 72 535 91 66 16 302 48 435 60 69 6 269 24 445 40 176 16 391
35 478 41 163 13 192 22 185 58 -4 18 -50 21 -128 8 -29 -5 -40 -4 -31 2 8 5
42 13 75 17 60 8 60 8 21 14 -36 5 -29 8 75 30 l115 25 -86 3 c-47 1 -127 -3
-177 -11 -84 -12 -90 -12 -77 3 22 24 18 32 -7 19 -21 -11 -22 -10 -7 6 21 22
61 30 264 50 125 13 183 24 220 40 125 56 124 55 73 5z m4173 -165 c20 -99 24
-151 24 -295 0 -196 -2 -203 -83 -328 -23 -35 -44 -73 -47 -83 -6 -17 -9 -18
-33 -5 -55 29 -227 158 -238 179 -10 18 -12 19 -15 4 -4 -16 -7 -15 -37 3 -18
11 -35 27 -39 36 -7 20 73 104 100 104 28 0 14 -25 -16 -28 -15 -2 -27 -8 -27
-14 0 -7 14 -8 38 -5 36 6 38 5 62 -41 13 -26 25 -48 26 -50 4 -6 98 49 151
89 45 33 87 84 118 139 4 8 -16 -9 -45 -38 -53 -55 -165 -142 -181 -142 -5 0
-9 8 -9 19 0 11 31 43 83 82 97 75 123 101 148 151 27 53 24 57 -9 12 -54 -74
-222 -211 -243 -198 -15 9 1 29 77 94 41 36 90 85 108 110 34 46 70 110 62
110 -2 0 -39 -42 -81 -94 -89 -110 -181 -188 -196 -165 -15 23 -10 33 27 58
96 66 175 196 216 354 13 48 25 81 29 74 3 -7 17 -66 30 -132z m-5341 -416
c-120 -31 -444 -88 -647 -114 -308 -40 -776 -130 -1098 -211 -597 -150 -1742
-343 -1869 -314 -35 8 -76 35 -76 49 0 4 15 8 32 9 68 5 294 45 608 107 485
96 591 112 920 140 96 9 225 22 287 30 130 18 952 171 1151 215 251 55 663
117 782 118 14 0 -27 -13 -90 -29z m881 12 c-14 -25 10 -35 36 -16 10 8 38 14
63 15 l45 0 -35 -22 c-86 -52 -111 -70 -107 -75 3 -3 33 12 65 32 73 45 125
64 175 65 63 0 50 -11 -88 -79 -33 -16 -69 -32 -79 -36 -10 -3 -17 -8 -14 -11
14 -13 105 23 168 68 67 46 73 49 130 47 33 -1 60 -5 60 -9 0 -14 -38 -41
-120 -85 -91 -49 -116 -53 -230 -34 -73 12 -105 35 -116 82 -5 26 -2 34 22 54
35 28 38 28 25 4z m-805 -106 c-33 -30 -56 -57 -52 -64 12 -18 -47 -93 -153
-194 -98 -92 -103 -100 -171 -235 -38 -78 -80 -169 -94 -204 -40 -106 -63
-145 -128 -208 -34 -33 -65 -60 -69 -60 -3 0 -52 -50 -108 -110 -55 -61 -101
-107 -101 -102 0 17 73 113 155 202 119 130 139 165 185 311 37 117 46 134
113 222 102 134 230 278 306 345 35 31 77 77 93 102 25 40 63 65 78 52 3 -2
-21 -28 -54 -57z m4447 -117 c137 -302 152 -372 28 -130 -33 64 -71 135 -85
157 -38 60 -31 17 7 -46 50 -83 51 -85 30 -64 -11 11 -41 53 -67 93 l-46 72
33 20 c17 11 35 20 38 20 4 0 31 -55 62 -122z m450 -2 c18 -36 41 -115 63
-219 19 -89 50 -232 69 -317 33 -150 38 -193 14 -134 -38 97 -67 194 -124 413
-35 135 -71 266 -79 290 -20 56 -20 56 6 39 12 -8 35 -40 51 -72z m-697 -8
c157 -162 234 -286 289 -465 17 -56 11 -55 -14 2 -31 69 -103 173 -243 349
-70 88 -125 163 -122 168 11 18 32 5 90 -54z m-111 26 c35 -14 387 -485 373
-500 -2 -2 -51 53 -109 123 -57 70 -150 182 -206 250 -57 67 -103 125 -103
128 0 7 25 6 45 -1z m1002 -102 l63 -37 -6 -90 c-8 -111 7 -292 46 -552 16
-109 31 -239 34 -288 l6 -90 -29 60 c-61 127 -93 260 -136 565 -23 163 -54
329 -71 382 -8 25 9 22 44 -7 17 -14 33 -25 36 -25 16 0 1 24 -54 84 -33 37
-60 69 -60 72 0 3 15 -4 33 -15 17 -12 60 -38 94 -59z m-571 -243 c14 -22 40
-70 58 -105 l32 -64 -4 90 c-5 96 5 115 29 58 15 -35 16 -158 3 -238 l-7 -45
-12 50 c-8 37 -16 50 -29 50 -14 0 -24 19 -42 83 -13 46 -33 101 -44 123 -27
51 -17 50 16 -2z m-4766 -185 c-17 -67 -30 -138 -28 -156 3 -32 4 -31 51 49
26 45 66 101 88 125 24 25 35 33 27 18 -38 -67 -67 -111 -116 -178 l-54 -74 7
-101 c4 -56 9 -110 10 -119 2 -9 0 -29 -4 -45 -7 -26 -9 -25 -27 32 -16 49
-19 89 -19 220 1 172 10 223 63 335 39 81 39 40 2 -106z m720 27 c14 -10 39
-44 55 -76 28 -55 30 -65 30 -174 0 -100 -4 -123 -24 -168 -25 -56 -51 -87
-51 -61 0 9 10 62 21 119 25 124 22 195 -14 271 -13 29 -40 68 -58 87 -32 32
-33 33 -9 27 14 -4 36 -16 50 -25z m3395 -45 c-22 -15 -95 -40 -163 -57 l-42
-10 15 -29 c9 -17 11 -30 5 -30 -5 0 -10 4 -10 8 0 5 -6 16 -12 25 -12 15 -21
15 -113 1 -91 -13 -632 -30 -595 -19 8 3 110 14 225 24 216 20 235 22 368 42
59 9 77 15 73 25 -3 8 -1 14 3 14 5 0 11 -5 13 -11 3 -8 35 -6 113 8 140 26
144 26 120 9z m1340 -716 c79 -195 176 -428 214 -516 59 -135 118 -303 108
-309 -1 -1 -33 -22 -72 -47 -38 -26 -84 -49 -101 -53 -19 -3 -35 -15 -42 -29
-14 -31 -61 -38 -222 -30 -88 5 -130 4 -130 -3 0 -16 56 -24 164 -22 54 1 100
-1 102 -4 8 -8 -63 -58 -103 -73 -77 -27 -248 -11 -427 41 -166 48 -282 114
-348 199 -22 28 -49 62 -60 75 l-20 24 21 71 c11 39 37 136 56 216 62 256 69
280 76 280 22 0 103 -289 121 -430 11 -95 25 -132 39 -109 5 8 9 24 9 37 0 32
14 27 31 -12 14 -31 14 -42 -3 -122 -10 -49 -17 -107 -17 -129 0 -37 1 -38 10
-15 6 14 15 52 20 85 9 59 55 322 125 715 43 240 85 432 126 570 16 58 33 113
35 123 8 25 -12 21 -26 -5 -9 -18 -10 -18 -5 -3 3 11 11 61 17 112 l11 91 74
-186 c40 -103 138 -347 217 -542z m-495 365 c15 -138 -2 -352 -31 -405 -10
-18 -11 241 -2 440 7 160 13 153 33 -35z m-723 -159 c40 -89 81 -184 90 -210
l18 -48 59 7 c52 6 58 4 47 -8 -6 -8 -26 -21 -44 -28 -43 -17 -48 -27 -31 -67
17 -41 19 -71 4 -56 -6 6 -16 30 -23 55 -8 24 -18 43 -23 42 -106 -19 -240
-23 -434 -12 -118 7 -222 16 -230 21 -9 6 15 7 63 3 89 -7 102 -3 86 26 -6 12
-8 23 -6 26 3 3 13 -10 22 -27 l17 -33 101 7 c141 9 339 26 354 31 15 5 -16
98 -84 250 -71 157 -85 195 -70 189 6 -2 45 -78 84 -168z m626 112 c4 -42 -6
-217 -22 -388 -8 -82 -8 -80 -10 65 -1 105 -6 159 -16 180 -12 26 -14 -13 -12
-327 1 -196 0 -355 -2 -352 -2 2 -16 52 -31 111 -15 60 -42 143 -59 185 l-32
77 36 123 c74 251 116 368 134 368 5 0 11 -19 14 -42z m-3947 -201 c43 -24
122 -71 174 -104 176 -112 351 -198 645 -318 72 -29 184 -78 250 -108 66 -29
149 -59 184 -66 36 -7 98 -31 145 -56 44 -24 131 -59 191 -79 112 -36 440
-126 461 -126 6 0 18 -9 25 -20 11 -16 36 -22 129 -33 l115 -14 -55 -17 c-37
-12 -100 -20 -192 -23 -132 -5 -137 -5 -132 14 7 25 -60 61 -181 98 -100 30
-165 62 -165 81 0 24 -38 34 -123 34 -105 0 -157 17 -331 109 -90 48 -170 81
-256 107 -154 45 -227 81 -353 173 -54 39 -102 71 -107 71 -4 0 -10 -6 -12
-12 -7 -20 -44 2 -128 77 -107 95 -150 114 -150 65 0 -31 -31 -32 -80 -2 -34
21 -64 30 -115 35 -72 7 -102 24 -92 51 8 20 44 20 90 1 49 -20 57 -19 57 9 0
31 -43 66 -83 66 -25 0 -28 2 -17 15 7 8 16 15 19 15 4 0 43 -19 87 -43z
m-257 -119 c-12 -24 -59 -101 -104 -173 -103 -163 -219 -366 -320 -560 -43
-82 -96 -181 -118 -220 -43 -75 -125 -195 -134 -195 -2 0 7 21 22 48 66 114
161 296 209 397 29 61 79 155 111 210 59 101 344 535 351 535 3 0 -5 -19 -17
-42z m-1519 -150 c-30 -51 -117 -196 -195 -323 -230 -374 -294 -491 -399 -737
-58 -136 -90 -188 -172 -284 -94 -109 -181 -239 -218 -325 l-27 -65 -46 0
c-43 1 -48 -2 -67 -34 -14 -24 -21 -52 -21 -92 0 -61 -9 -74 -24 -35 -16 42
-15 92 3 134 14 33 29 47 71 69 57 30 75 56 75 105 0 22 16 46 69 103 90 98
154 197 253 391 101 200 143 269 287 475 77 111 143 220 201 335 47 93 100
192 118 218 49 71 133 169 139 163 3 -3 -18 -47 -47 -98z m4008 -144 c57 -8
114 -19 127 -24 15 -6 27 -6 30 0 4 6 12 4 20 -4 8 -8 34 -17 57 -21 52 -9
262 -75 256 -80 -17 -17 -495 81 -653 135 l-60 20 60 -6 c33 -3 106 -12 163
-20z m1412 -50 c-7 -16 -22 -83 -36 -149 -30 -148 -51 -215 -69 -215 -7 0 -15
-3 -17 -7 -1 -5 -86 -6 -188 -3 l-185 5 120 28 c208 50 255 65 255 86 0 10 9
26 21 37 29 26 35 40 58 126 24 91 40 132 47 126 2 -3 0 -18 -6 -34z m-5024
-204 c121 -31 164 -36 164 -22 0 5 7 17 16 28 16 20 16 13 -2 -31 -5 -11 1
-15 22 -15 16 -1 46 -7 67 -14 37 -14 39 -13 49 10 11 24 28 33 28 14 0 -5 -5
-20 -12 -34 -11 -25 -13 -26 -87 -20 -42 3 -103 11 -136 19 -76 17 -265 95
-231 95 2 0 57 -13 122 -30z m3524 -27 c93 -44 182 -53 291 -30 207 45 479 79
479 59 0 -8 -41 -22 -105 -36 -11 -2 5 -4 35 -5 30 0 98 8 150 19 114 24 109
23 85 6 -11 -7 -67 -29 -125 -48 l-105 -34 -305 7 c-264 5 -315 9 -382 27 -74
20 -178 66 -178 78 0 15 91 -9 160 -43z m-1846 5 c48 -14 44 -14 -165 -27
-118 -6 -234 -14 -259 -17 -33 -3 -40 -2 -25 5 11 5 37 10 58 10 34 1 56 21
22 21 -29 0 -15 19 18 23 60 9 302 -2 351 -15z m-1815 -65 c66 -34 109 -40
127 -17 14 18 15 18 9 -2 -5 -20 -1 -22 67 -28 40 -3 87 -10 103 -15 l30 -8
-35 -6 c-88 -15 -120 -16 -180 -6 -78 12 -142 42 -187 87 -40 40 -43 61 -5 36
15 -10 47 -29 71 -41z m6936 -392 l150 -7 -115 -2 c-111 -2 -297 -16 -600 -46
-293 -29 -293 -29 -288 -15 7 20 93 71 136 80 38 8 451 2 717 -10z m-6129 -16
c3 -8 -4 -35 -16 -61 -21 -43 -25 -46 -53 -40 -17 3 -36 1 -43 -5 -20 -16 -17
-88 4 -130 40 -78 241 -306 278 -315 15 -4 45 -39 89 -105 68 -103 175 -238
351 -445 169 -200 218 -269 299 -419 20 -38 66 -114 101 -167 76 -115 318
-454 346 -484 19 -21 19 -22 -5 -47 l-24 -26 -38 52 c-65 87 -75 103 -270 392
-199 296 -299 439 -400 570 -34 44 -115 157 -182 250 -158 223 -188 260 -316
397 -133 143 -192 217 -225 286 -23 49 -63 84 -78 69 -8 -8 14 -74 41 -122
l23 -40 -94 0 c-52 0 -94 1 -94 3 0 6 51 95 86 149 18 29 34 55 34 58 0 4 43
72 58 90 4 6 20 31 35 58 23 39 33 47 58 47 17 0 32 -6 35 -15z m-294 -237
c-39 -57 -79 -135 -150 -294 -82 -182 -125 -256 -185 -317 -52 -52 -216 -171
-201 -145 28 48 127 190 249 358 131 181 172 240 269 394 20 32 40 56 43 53 3
-3 -8 -25 -25 -49z m-1061 -294 c42 -44 83 -73 144 -104 104 -52 115 -65 49
-56 -111 17 -183 71 -269 202 -30 46 -55 87 -55 91 0 4 17 -10 37 -32 20 -22
62 -67 94 -101z m-88 -312 c72 -51 169 -99 232 -116 60 -15 61 -30 2 -34 -83
-5 -230 78 -343 195 -34 35 -67 63 -73 63 -6 0 -11 8 -11 19 0 10 -7 24 -15
31 -8 7 -15 17 -15 22 0 5 36 -23 80 -64 45 -40 109 -92 143 -116z m-237 -147
c54 -112 72 -139 126 -191 73 -70 140 -100 245 -109 37 -3 83 -8 102 -11 l33
-5 -20 -20 c-13 -12 -19 -26 -15 -36 4 -11 3 -14 -6 -9 -6 4 -10 15 -9 24 3
13 -6 15 -49 13 -29 -1 -78 3 -109 9 -181 38 -279 151 -368 427 -41 128 -44
148 -14 83 12 -25 50 -104 84 -175z m774 -185 c0 -48 -1 -50 -47 -77 -79 -45
-113 -74 -134 -114 -27 -53 -24 -88 12 -143 41 -62 32 -86 -47 -121 -32 -14
-58 -24 -58 -23 -10 21 -108 141 -135 165 -19 17 -33 35 -29 38 3 4 34 -18 67
-49 83 -76 131 -86 145 -31 5 21 1 37 -18 64 -30 42 -32 51 -12 51 17 0 66 55
96 108 12 22 37 46 54 55 22 10 42 33 62 71 16 31 32 56 37 56 4 0 7 -22 7
-50z m-1202 -22 c94 -108 172 -183 223 -218 31 -21 136 -78 235 -126 110 -54
172 -89 161 -92 -20 -4 -30 1 -266 126 -227 122 -327 204 -385 320 -22 43 -13
40 32 -10z m232 -383 c110 -49 176 -71 243 -80 51 -7 56 -13 29 -38 -16 -14
-25 -13 -117 19 -116 39 -288 123 -293 143 -6 18 18 10 138 -44z m3457 -161
c213 -346 344 -566 340 -571 -8 -7 -109 119 -174 219 -54 82 -309 565 -289
547 3 -3 59 -91 123 -195z m-3567 145 c61 -48 175 -99 256 -116 44 -8 81 -17
83 -19 2 -2 -2 -11 -10 -20 -18 -22 -137 -12 -224 20 -80 29 -215 106 -215
122 0 17 52 54 65 46 5 -3 26 -18 45 -33z m-84 -144 c115 -62 189 -85 274 -85
l71 0 -18 -31 c-35 -59 -38 -60 -143 -33 -141 36 -310 122 -310 158 0 14 20
36 34 36 5 0 47 -20 92 -45z m34 -139 c35 -15 102 -34 147 -43 46 -10 83 -20
83 -23 0 -4 -6 -14 -12 -23 -12 -15 -21 -13 -113 17 -98 33 -141 50 -257 103
-61 28 -64 33 -48 63 10 18 14 16 73 -24 34 -24 91 -56 127 -70z m3601 -703
c169 -216 209 -265 265 -329 35 -39 88 -88 119 -109 30 -21 55 -42 55 -47 0
-19 42 -48 70 -48 52 0 88 -25 100 -70 8 -29 17 -41 35 -46 16 -4 25 -14 27
-32 4 -38 41 -40 145 -7 47 14 87 24 89 22 6 -5 -58 -47 -116 -77 -55 -28
-156 -38 -208 -20 -30 10 -59 40 -153 159 -165 208 -436 578 -483 659 -19 31
7 6 55 -55z m903 16 c-16 -17 -50 -47 -76 -67 -53 -40 -57 -52 -28 -100 32
-52 22 -61 -18 -15 l-37 43 -53 -20 c-54 -21 -107 -26 -116 -12 -3 5 20 16 50
26 32 10 60 26 69 40 9 13 32 28 53 34 21 7 69 32 108 57 38 24 71 45 73 45 3
0 -8 -14 -25 -31z m451 -99 c-17 -19 -17 -20 6 -28 23 -9 22 -10 -20 -36 -23
-15 -49 -25 -57 -22 -7 3 -64 -36 -131 -91 -194 -158 -306 -220 -373 -207 -16
4 -30 9 -30 13 0 3 48 28 107 56 124 58 304 173 418 268 78 65 117 87 80 47z
m254 -861 c24 -9 31 -16 26 -28 -4 -9 -14 -35 -22 -58 -14 -39 -18 -43 -49
-43 -33 0 -34 1 -35 43 l-1 42 -10 -45 c-9 -37 -12 -41 -19 -25 -4 11 -8 40
-8 65 -2 61 -21 32 -21 -31 0 -58 -27 -89 -32 -37 -4 40 -20 40 -30 1 -6 -23
-19 -34 -63 -52 -31 -13 -57 -22 -59 -20 -5 8 -28 105 -29 128 -2 28 43 56
114 71 53 11 193 5 238 -11z m103 -361 c-6 -62 -8 -128 -5 -146 9 -53 -7 -159
-27 -184 -10 -13 -21 -20 -25 -16 -7 6 28 382 41 448 5 21 10 28 17 21 7 -7 7
-47 -1 -123z m-362 -236 c0 -37 -25 -122 -36 -122 -7 0 -38 9 -69 21 -56 21
-61 29 -49 76 5 16 15 23 43 26 71 7 111 7 111 -1z m215 -151 c-7 -92 -6 -95
11 -79 12 12 19 37 21 80 4 69 12 113 18 106 12 -12 -16 -183 -35 -215 l-21
-35 27 6 c16 4 -30 -37 -117 -105 -79 -62 -157 -124 -173 -138 -61 -55 -7 14
69 89 75 73 113 126 100 138 -3 3 -15 1 -25 -6 -25 -16 -30 -15 -30 3 0 21
-29 7 -58 -27 -13 -15 -27 -28 -32 -28 -11 0 7 90 22 107 10 13 13 12 20 -7
10 -28 42 -22 46 8 2 15 8 22 18 18 7 -3 36 -8 64 -12 44 -6 50 -4 50 11 0 10
-7 26 -16 36 -14 15 -14 20 -1 41 8 12 18 44 22 71 4 28 10 45 16 41 7 -4 8
-40 4 -103z m1161 -498 c13 -32 44 -166 44 -193 0 -12 -85 -46 -205 -81 -61
-17 -127 -40 -147 -50 -37 -19 -78 -25 -78 -12 0 4 9 16 20 28 10 11 16 26 12
32 -12 19 -125 20 -153 2 -42 -28 -202 -88 -289 -109 -215 -51 -391 -47 -735
17 -326 60 -356 64 -510 70 -173 6 -257 -7 -363 -57 -35 -16 -68 -30 -73 -30
-12 0 -11 57 1 81 15 26 58 47 150 70 43 10 86 22 94 25 11 4 13 0 9 -15 -6
-24 15 -28 49 -10 15 8 19 8 13 -1 -4 -6 10 -3 32 8 100 51 306 67 403 31 30
-11 98 -26 150 -34 52 -7 129 -21 170 -30 262 -56 276 -58 420 -58 142 -1 147
0 255 37 115 39 297 122 456 207 96 52 224 108 246 109 7 0 20 -17 29 -37z
m252 -590 c67 -3 122 -10 122 -15 0 -10 -752 -11 -870 0 l-85 7 135 5 c214 9
566 11 698 3z m-593 -193 l100 -7 -90 -2 c-49 -1 -216 -8 -370 -16 -347 -17
-752 -30 -745 -22 9 10 248 39 383 46 170 10 593 11 722 1z"/>
<path d="M10202 11913 c-92 -115 -267 -298 -380 -398 -50 -44 -89 -81 -87 -83
2 -3 41 25 87 61 125 98 272 252 419 437 45 57 52 70 41 70 -5 0 -41 -39 -80
-87z"/>
<path d="M10245 11799 c-135 -135 -306 -287 -402 -358 -40 -30 -73 -56 -73
-58 0 -13 146 85 240 161 113 91 362 348 349 361 -3 2 -54 -46 -114 -106z"/>
<path d="M10315 11704 c-38 -36 -83 -74 -99 -86 l-29 -21 16 24 c8 13 18 37
21 53 13 53 -9 27 -107 -127 -25 -38 -67 -81 -127 -128 -86 -68 -155 -144
-145 -159 13 -20 -517 -462 -533 -445 -3 3 7 29 22 59 15 30 26 63 23 73 -5
23 -62 -95 -112 -235 -20 -57 -65 -165 -100 -240 -34 -76 -66 -147 -70 -159
-12 -40 12 -25 34 21 21 46 41 67 41 44 1 -7 18 40 40 104 21 65 57 149 79
187 l41 69 72 22 c100 30 200 78 293 139 43 28 79 50 81 49 1 -2 -14 -28 -34
-58 -23 -34 -59 -69 -95 -94 -60 -40 -71 -59 -18 -32 39 20 40 20 34 -5 -11
-39 31 -17 54 29 47 94 122 160 308 272 127 76 203 131 255 186 57 59 47 53
-130 -76 -80 -58 -152 -110 -160 -114 -14 -8 23 32 250 267 143 148 58 76
-157 -133 -118 -116 -218 -209 -221 -206 -5 6 123 152 143 164 7 4 74 63 149
132 121 110 292 297 282 307 -2 2 -32 -27 -67 -64 -176 -187 -330 -323 -367
-323 -11 0 -32 -16 -47 -36 -15 -20 -41 -44 -59 -55 -17 -10 -25 -19 -17 -19
19 0 -68 -71 -181 -147 -91 -60 -287 -157 -298 -146 -3 2 2 9 11 14 80 44 334
278 590 542 106 109 227 227 269 262 73 61 161 156 143 155 -4 -1 -39 -30 -78
-66z"/>
<path d="M10263 11088 c-26 -22 -68 -51 -93 -62 -25 -12 -61 -33 -80 -47 -19
-15 -47 -34 -63 -44 -24 -16 -27 -16 -21 -1 9 24 -4 20 -40 -12 -18 -15 -125
-94 -238 -175 -114 -81 -210 -153 -214 -159 -14 -22 109 54 225 139 181 133
241 163 191 95 -12 -16 -20 -37 -18 -46 5 -27 67 22 128 101 61 79 99 114 155
144 55 29 103 66 115 89 15 29 7 25 -47 -22z"/>
<path d="M10265 10899 c-33 -22 -161 -90 -285 -151 -218 -107 -404 -210 -417
-231 -7 -12 -23 -19 207 97 369 186 560 295 560 317 0 12 5 14 -65 -32z"/>
<path d="M9985 10573 c-121 -57 -290 -138 -375 -180 -85 -41 -200 -95 -255
-120 -121 -54 -206 -104 -202 -118 2 -5 21 -16 43 -24 30 -10 79 -12 214 -6
96 3 190 8 208 9 49 5 35 -14 -36 -50 -76 -38 -187 -63 -315 -71 -71 -4 -94
-9 -82 -16 10 -5 59 -7 114 -3 61 4 88 3 75 -3 -26 -12 -38 -39 -23 -57 6 -7
36 -18 67 -25 90 -19 92 -26 11 -38 -141 -22 -264 -49 -303 -65 -44 -18 -44
-32 0 -16 16 7 119 27 228 45 180 31 202 32 227 19 47 -24 89 -18 144 21 28
20 70 49 95 66 l45 31 -35 -7 -35 -8 25 21 c39 33 18 26 -85 -28 -118 -62
-154 -64 -267 -18 l-78 32 31 13 c55 23 112 40 254 78 122 32 293 100 281 112
-2 2 -30 -7 -62 -20 -59 -25 -229 -77 -249 -77 -5 1 2 7 17 16 15 8 33 24 39
36 10 18 8 24 -7 35 -10 7 -26 13 -36 13 -23 0 -23 16 0 23 82 26 376 156 368
164 -8 8 -249 -89 -338 -136 -121 -65 -198 -78 -368 -65 l-115 10 58 26 c93
44 286 104 492 154 52 12 -44 -28 -204 -86 -96 -35 -169 -66 -164 -67 13 -5
302 68 408 102 94 30 267 114 310 150 20 16 -4 7 -75 -28 -98 -50 -267 -113
-276 -104 -3 2 24 14 58 27 59 21 237 105 248 117 3 3 -6 2 -20 -2 -14 -4 -32
-10 -40 -12 -8 -3 8 9 37 25 53 30 111 72 100 72 -4 0 -48 -22 -99 -49 -152
-80 -323 -141 -458 -164 -32 -5 -33 -5 -10 5 14 6 151 73 305 149 177 87 291
149 309 168 17 17 28 31 25 30 -2 0 -103 -48 -224 -106z"/>
<path d="M9553 9127 c-7 -14 -32 -36 -55 -48 -39 -21 -56 -22 -193 -21 -82 1
-167 4 -187 8 -46 7 -52 -11 -7 -20 17 -3 70 -6 118 -7 117 -1 147 -14 52 -23
-91 -8 -190 8 -237 40 -40 27 -54 30 -54 11 0 -18 33 -46 100 -86 30 -18 69
-43 85 -57 l30 -24 -50 5 c-36 4 -44 3 -30 -4 11 -5 38 -10 60 -10 29 -1 57
-11 95 -36 30 -19 63 -38 73 -41 33 -10 32 6 -4 36 l-34 29 80 1 c113 1 123
15 12 16 -60 1 -109 7 -142 19 -48 17 -94 44 -95 56 0 3 47 9 104 13 111 7
182 24 233 55 35 22 66 72 61 99 -2 11 -6 9 -15 -11z"/>
<path d="M8685 8988 c29 -225 114 -390 237 -457 l43 -24 -21 24 c-11 13 -41
48 -67 77 -78 90 -126 189 -141 292 l-6 45 20 -25 c12 -14 39 -50 60 -82 58
-82 130 -153 187 -182 28 -14 53 -22 57 -19 9 10 7 58 -4 87 -5 14 -8 26 -6
26 7 0 70 -92 118 -171 59 -97 73 -137 60 -169 -9 -23 -15 -15 -71 99 -33 68
-61 115 -61 104 0 -34 27 -98 65 -155 39 -60 52 -109 37 -148 -9 -23 -10 -20
-21 30 -17 82 -32 98 -25 25 7 -66 27 -125 43 -125 6 0 8 7 5 15 -3 8 3 31 14
52 11 21 23 50 26 66 8 36 19 34 34 -5 18 -48 23 -29 7 27 -8 26 -16 67 -16
89 -1 23 -3 33 -6 24 -7 -28 -17 -21 -36 25 -9 23 -51 85 -93 137 -72 89 -130
188 -122 210 6 18 98 -71 195 -187 65 -79 114 -127 156 -154 33 -21 62 -37 64
-35 9 8 -12 38 -36 51 -39 21 -81 64 -171 174 -94 117 -192 201 -235 201 -25
0 -18 -63 15 -148 42 -103 37 -115 -27 -61 -53 45 -127 132 -198 234 -73 104
-90 112 -80 33z"/>
<path d="M8200 8209 c25 -11 86 -38 136 -60 51 -22 100 -46 110 -53 16 -12 12
-15 -35 -25 -28 -6 -73 -11 -99 -11 -26 0 -64 -5 -85 -11 -31 -8 -38 -14 -34
-30 3 -11 -1 -23 -11 -29 -14 -7 -11 -9 13 -10 38 0 70 -22 90 -61 15 -28 14
-31 -26 -90 -45 -67 -45 -92 1 -38 l30 34 -6 -29 c-5 -22 -4 -28 7 -24 20 6
49 68 49 104 0 17 7 48 15 67 8 20 15 47 15 60 0 20 6 25 37 30 20 4 39 5 41
2 2 -2 -11 -24 -29 -49 -42 -59 -33 -68 13 -13 38 46 68 98 68 120 0 8 -51 40
-114 72 -93 47 -124 59 -172 62 l-59 3 45 -21z"/>
<path d="M7185 12553 c-189 -12 -295 -32 -295 -55 0 -7 30 -4 68 8 6 2 12 0
12 -5 0 -4 -19 -13 -42 -20 -50 -15 -118 -51 -118 -63 0 -16 31 -8 180 47 83
30 156 55 163 55 7 -1 -51 -31 -129 -69 -124 -60 -174 -91 -147 -91 4 0 53 22
108 49 55 28 101 48 103 46 8 -7 -66 -130 -114 -190 -45 -58 -46 -59 -40 -26
3 18 3 52 -1 75 -6 36 -9 26 -24 -84 -11 -80 -14 -127 -7 -131 5 -3 7 -21 3
-41 -4 -19 1 -99 10 -177 18 -161 15 -204 -21 -247 l-25 -29 5 155 c4 85 8
191 11 235 4 78 4 77 -14 -37 -10 -64 -22 -157 -26 -207 l-7 -92 -57 -57 c-56
-57 -102 -132 -115 -184 -10 -41 16 -36 71 15 35 31 43 35 31 16 -15 -24 -78
-203 -78 -222 0 -5 5 -5 12 -1 8 5 9 0 5 -17 -19 -69 -38 -181 -35 -206 3 -26
4 -25 20 17 9 25 32 92 50 150 31 98 33 102 36 64 2 -34 -24 -186 -53 -304 -5
-19 -1 -16 13 10 26 47 39 109 57 270 17 147 22 173 34 165 5 -2 11 21 14 53
6 64 29 138 58 185 l19 32 0 -37 c0 -20 5 -49 12 -65 l11 -28 8 45 c4 25 8
116 8 203 l1 158 49 48 c52 51 85 111 96 176 6 39 5 38 -17 -15 -32 -74 -108
-184 -108 -155 0 3 34 71 75 152 75 146 107 229 119 313 l7 45 -22 -25 c-15
-17 -23 -21 -26 -12 -4 10 -8 10 -19 1 -8 -6 -14 -7 -14 -2 0 17 33 40 80 59
25 9 51 22 58 27 13 10 17 28 5 25 -5 -1 -30 -3 -58 -5z"/>
<path d="M7953 9989 c-40 -102 -83 -231 -83 -252 0 -27 46 36 78 106 19 42 37
76 39 73 2 -2 -7 -73 -22 -157 -14 -84 -25 -167 -24 -184 2 -68 80 363 79 438
-1 21 -1 21 -15 3 -8 -10 -26 -51 -41 -90 -15 -39 -31 -75 -37 -81 -7 -7 -8
-3 -3 10 49 137 76 220 73 228 -1 5 -21 -37 -44 -94z"/>
<path d="M8066 9778 c-3 -17 -26 -86 -51 -152 -49 -133 -68 -210 -63 -253 3
-28 3 -28 25 12 11 22 31 78 44 125 12 47 26 89 30 94 4 5 6 -52 4 -125 -3
-97 -2 -123 5 -94 10 44 26 425 18 425 -3 0 -8 -14 -12 -32z"/>
<path d="M5078 8716 c-43 -15 -88 -43 -88 -54 0 -19 69 -109 99 -129 58 -39
108 -26 191 48 l45 41 -45 -22 c-25 -13 -57 -31 -72 -42 -16 -11 -28 -15 -28
-10 0 5 -10 13 -22 19 -22 10 -22 10 12 28 56 28 172 107 166 112 -3 3 -38
-15 -78 -40 -125 -76 -136 -81 -163 -63 -23 15 -42 52 -32 62 3 3 35 0 71 -7
37 -6 70 -9 73 -6 15 15 -9 56 -38 66 -39 14 -45 13 -91 -3z"/>
<path d="M6014 8531 c-21 -9 -38 -37 -30 -49 2 -4 111 -7 243 -7 185 0 244 3
266 14 15 8 27 18 27 22 0 17 -469 35 -506 20z"/>
<path d="M9826 7118 c-9 -29 -23 -116 -31 -193 -9 -77 -36 -243 -61 -370 -25
-126 -54 -291 -64 -365 -22 -154 -50 -446 -49 -499 l1 -36 13 29 c7 16 16 82
19 145 14 242 85 746 102 729 2 -3 -8 -117 -22 -254 -30 -300 -36 -497 -14
-534 14 -24 15 -21 26 61 6 47 15 155 18 240 14 318 28 542 35 562 4 11 11
-69 14 -182 12 -374 40 -645 73 -716 l19 -40 3 135 c2 74 -1 203 -7 285 -17
244 -22 396 -10 350 21 -92 80 -442 88 -529 5 -52 15 -105 23 -118 l13 -23 3
29 c2 15 -3 69 -12 120 -18 108 -89 803 -83 820 2 6 7 -11 11 -39 21 -142 170
-655 217 -747 36 -70 37 -38 2 55 -112 302 -231 779 -249 999 -4 51 -11 86
-17 85 -6 -1 -13 9 -16 22 -11 43 -29 35 -45 -21z m23 -458 c6 -74 16 -238 21
-365 5 -126 12 -279 16 -340 3 -60 3 -107 0 -104 -19 18 -47 421 -60 839 -5
173 7 158 23 -30z"/>
<path d="M9931 6934 c-1 -6 15 -68 34 -139 101 -368 183 -583 310 -809 58
-103 56 -85 -3 36 -80 166 -144 332 -248 643 -51 154 -93 275 -93 269z"/>
<path d="M9076 13337 c-15 -40 -52 -164 -82 -277 -29 -113 -71 -268 -93 -345
-33 -119 -65 -311 -48 -295 2 3 14 55 27 115 28 142 53 238 151 583 44 156 79
285 77 288 -2 2 -17 -29 -32 -69z"/>
<path d="M7460 12572 c0 -27 32 -109 56 -143 15 -22 59 -63 98 -92 39 -29 100
-75 136 -101 110 -83 180 -105 211 -68 10 12 59 28 145 46 161 35 329 86 414
125 80 37 75 38 -21 6 -79 -28 -312 -95 -326 -95 -15 0 71 45 182 94 127 56
197 99 240 147 l30 33 -45 -36 c-42 -33 -140 -88 -157 -88 -4 0 26 30 66 66
47 44 69 70 62 77 -14 14 -53 1 -96 -33 -65 -51 -128 -64 -297 -58 -135 5
-175 0 -132 -16 22 -8 302 4 339 15 l30 9 -28 -25 c-37 -33 -79 -43 -233 -56
-153 -13 -208 -33 -64 -23 52 3 114 9 138 14 23 4 42 4 42 1 0 -13 -127 -79
-190 -100 -36 -12 -97 -24 -136 -28 -69 -6 -73 -5 -120 27 -130 89 -193 143
-235 202 -59 84 -109 130 -109 100z"/>
<path d="M8124 11568 c-102 -106 -157 -177 -342 -441 -58 -83 -98 -163 -119
-237 -20 -72 -12 -84 49 -76 33 4 132 64 176 108 72 71 106 118 86 118 -3 0
-47 -40 -99 -89 -65 -62 -105 -93 -132 -100 -35 -10 -73 -14 -73 -8 1 14 71
193 84 212 9 14 44 39 79 56 76 39 160 95 250 166 110 88 76 79 -55 -15 -131
-93 -220 -152 -232 -152 -20 0 106 143 254 287 91 90 159 163 152 163 -8 0
-65 -50 -128 -112 -63 -61 -114 -107 -114 -102 0 5 48 62 108 126 92 100 153
178 139 178 -2 0 -39 -37 -83 -82z"/>
<path d="M7416 11128 c3 -95 12 -324 20 -508 16 -351 11 -501 -21 -606 l-14
-49 20 24 c10 13 26 47 35 76 13 47 14 104 4 482 -9 369 -31 737 -44 751 -3 2
-2 -74 0 -170z"/>
<path d="M7448 9490 c12 -10 59 -31 105 -46 77 -26 137 -66 137 -93 0 -18 -39
-28 -125 -35 -116 -10 -173 -25 -190 -50 -14 -19 -14 -22 5 -38 33 -27 180
-52 165 -28 -3 6 -16 10 -28 11 -17 0 -12 5 18 19 53 24 66 24 35 0 -20 -16
-21 -19 -5 -14 41 14 225 103 225 109 0 9 -35 -3 -92 -30 -56 -27 -63 -20 -13
13 39 25 43 41 19 77 -13 20 -14 25 -3 25 25 0 91 21 85 27 -3 3 -32 0 -64 -7
-52 -11 -63 -10 -84 4 -22 14 -193 77 -207 76 -3 -1 4 -9 17 -20z"/>
<path d="M3185 6160 c-114 -15 -509 -32 -584 -26 -42 4 -119 12 -172 18 -88
10 -99 9 -142 -10 -26 -12 -47 -25 -47 -29 0 -5 26 -9 58 -10 31 -1 89 -9 127
-19 80 -19 260 -22 415 -5 52 6 161 11 241 11 143 0 244 11 262 29 12 12 -29
38 -68 44 -16 2 -57 1 -90 -3z"/>
<path d="M2800 5988 c-80 -4 -264 -10 -409 -12 -262 -3 -280 -6 -281 -37 0
-15 135 -29 275 -29 241 0 837 21 862 31 26 10 31 44 7 53 -21 8 -272 5 -454
-6z"/>
<path d="M11265 5869 c-55 -5 -200 -18 -322 -29 -122 -11 -247 -20 -277 -20
-30 0 -58 -4 -61 -10 -9 -15 82 -12 303 10 108 11 277 24 375 29 97 6 185 15
195 20 21 13 -64 12 -213 0z"/>
<path d="M6230 5712 c0 -24 13 -63 36 -106 55 -107 78 -139 161 -228 328 -350
702 -861 918 -1253 49 -88 115 -205 148 -260 32 -55 76 -129 97 -165 184 -317
250 -431 268 -465 32 -63 85 -120 105 -112 27 10 20 36 -31 116 -77 120 -232
384 -312 531 -84 153 -306 535 -383 655 -73 116 -170 252 -348 490 -162 217
-189 249 -397 480 -104 115 -130 150 -164 223 -37 82 -71 132 -90 132 -4 0 -8
-17 -8 -38z"/>
<path d="M11655 5510 c-3 -6 -4 -18 -1 -28 5 -15 0 -17 -43 -14 -26 2 -117 -6
-202 -18 -110 -16 -237 -25 -444 -31 -159 -4 -416 -12 -570 -18 -154 -5 -716
-13 -1250 -18 -1125 -9 -1010 -9 -1336 2 -186 6 -320 4 -495 -6 -131 -7 -344
-13 -471 -14 -128 0 -233 -3 -233 -7 0 -14 54 -48 93 -59 29 -8 77 -8 171 0
291 24 604 34 821 26 412 -15 2333 -1 2780 20 61 3 270 10 465 15 251 7 380
14 440 26 47 9 133 16 192 15 98 0 109 2 122 21 14 19 21 21 103 15 106 -7
137 -17 157 -54 l15 -28 1 52 c0 49 -2 54 -31 68 -19 10 -76 20 -145 25 -62 5
-118 11 -123 14 -5 4 -12 2 -16 -4z"/>
<path d="M2790 5269 c-25 -4 -142 -8 -260 -8 -217 -1 -567 -15 -672 -27 -56
-6 -58 -8 -58 -35 l0 -29 83 0 c45 0 136 7 202 15 82 10 214 15 420 15 169 0
316 4 336 10 42 12 80 47 58 54 -35 11 -67 12 -109 5z"/>
<path d="M10385 4524 c-49 -9 -159 -13 -365 -13 -344 0 -819 -14 -1215 -37
-212 -13 -337 -15 -515 -8 -129 4 -307 6 -395 3 -246 -6 -455 -5 -504 4 l-44
8 15 -23 c29 -45 83 -63 193 -62 55 1 381 3 725 6 482 4 706 10 980 27 202 12
529 24 760 27 348 5 410 8 440 22 23 11 35 24 35 37 0 25 -19 27 -110 9z"/>
<path d="M10509 4478 c-10 -24 -14 -83 -13 -218 0 -223 26 -461 85 -775 44
-239 52 -365 30 -468 -7 -32 -10 -61 -6 -65 14 -14 61 25 74 63 21 62 7 239
-38 495 -55 309 -72 465 -80 740 -4 130 -11 241 -15 248 -12 20 -23 14 -37
-20z"/>
<path d="M4330 4480 c-135 -6 -182 -24 -149 -57 8 -8 58 -10 170 -6 86 3 312
0 501 -8 391 -16 467 -16 499 1 l23 13 -21 17 c-19 15 -64 18 -380 24 -197 4
-396 11 -443 14 -47 4 -137 5 -200 2z"/>
<path d="M1726 4418 c-3 -13 -6 -26 -6 -29 0 -4 28 -10 63 -13 108 -11 529
-36 607 -36 95 0 152 15 148 38 -4 22 -60 27 -383 36 -132 4 -271 11 -310 16
-104 14 -112 13 -119 -12z"/>
<path d="M9767 4423 c-16 -15 -3 -45 70 -163 148 -242 271 -535 334 -795 25
-105 24 -115 -11 -230 -16 -54 -30 -115 -30 -136 0 -35 2 -38 22 -35 19 2 28
20 57 107 52 157 50 228 -13 429 -87 275 -117 348 -249 592 -112 208 -152 259
-180 231z"/>
<path d="M2624 4278 c-25 -23 -98 -102 -162 -177 -64 -74 -145 -165 -178 -202
-34 -37 -64 -77 -67 -88 -4 -18 -1 -21 26 -21 36 0 77 40 220 215 49 61 120
142 158 182 57 60 89 105 89 129 0 2 -9 4 -20 4 -11 0 -41 -19 -66 -42z"/>
<path d="M2025 3802 c-106 -63 -161 -119 -177 -178 -12 -44 -17 -48 -83 -81
-115 -58 -206 -123 -280 -199 -38 -39 -104 -96 -145 -126 -42 -31 -81 -63 -89
-72 -8 -9 -32 -25 -55 -35 -23 -10 -87 -46 -141 -81 -207 -131 -316 -166 -487
-158 -55 3 -118 1 -141 -3 -23 -5 -86 -15 -140 -24 -150 -23 -202 -57 -195
-128 2 -26 7 -32 27 -32 19 0 27 7 33 30 6 26 17 34 80 57 40 15 89 28 108 28
19 -1 121 3 225 8 242 11 280 23 486 147 50 31 118 69 152 87 34 17 79 48 101
69 21 21 63 53 94 71 30 17 73 49 95 71 38 38 40 38 90 32 63 -9 107 -26 126
-49 16 -19 16 -18 -100 -123 l-25 -23 -62 25 c-63 26 -116 32 -141 16 -10 -7
4 -22 57 -60 82 -60 91 -75 56 -98 -25 -16 -27 -16 -37 3 -6 10 -25 34 -43 52
-25 25 -40 33 -61 30 -28 -3 -33 -15 -18 -50 9 -24 -23 -24 -63 -1 -18 10 -36
14 -48 9 -18 -7 -18 -8 5 -27 13 -11 21 -22 17 -26 -3 -4 -12 -1 -18 5 -16 16
-28 15 -28 -1 0 -19 -29 -42 -68 -55 -27 -9 -38 -9 -58 5 -31 20 -56 4 -34
-22 7 -8 11 -17 9 -18 -2 -2 -26 -15 -54 -29 -27 -14 -72 -37 -99 -52 -27 -14
-61 -26 -76 -26 -19 0 -29 -6 -33 -20 -8 -32 -34 -34 -83 -5 -44 26 -46 26
-39 6 5 -17 2 -21 -17 -21 -13 1 -34 7 -48 15 -33 19 -43 19 -36 -1 6 -14 -3
-15 -83 -9 -137 11 -228 -13 -266 -71 -14 -22 -14 -26 1 -49 9 -14 76 -70 148
-125 114 -86 196 -164 184 -175 -1 -2 -34 24 -73 57 -100 86 -260 217 -328
267 -55 42 -58 43 -77 26 -28 -25 -70 -114 -70 -147 0 -42 48 -88 167 -161 60
-36 162 -111 228 -167 154 -129 302 -230 412 -282 49 -22 167 -78 263 -123 96
-46 201 -89 233 -95 93 -18 247 7 359 60 34 16 72 30 83 30 11 0 49 -14 85
-31 56 -27 77 -31 145 -32 103 0 177 16 242 53 64 37 84 65 85 121 0 34 -5 48
-25 65 l-25 22 30 22 c36 27 49 55 99 227 49 165 56 202 69 363 12 143 33 217
76 264 15 15 64 52 109 81 45 29 93 67 108 84 50 59 77 200 57 295 -13 62 -29
69 -45 20 -13 -40 -14 -41 -31 -15 -12 17 -22 21 -40 17 -18 -5 -37 4 -79 39
-63 51 -95 58 -95 21 0 -13 10 -38 23 -57 25 -37 25 -72 1 -62 -9 3 -48 -2
-88 -12 -41 -9 -84 -15 -97 -13 -13 1 20 11 74 22 115 21 112 13 50 148 l-36
78 -36 -6 c-46 -9 -46 -9 -22 -33 21 -21 28 -41 14 -41 -5 1 -25 23 -47 51
-31 40 -41 47 -52 38 -10 -8 -14 -8 -14 -1 0 6 -14 27 -31 47 l-32 36 59 -22
c33 -12 155 -62 272 -112 163 -69 216 -87 225 -78 29 29 -15 57 -228 145 -439
182 -428 175 -423 236 2 28 8 36 26 38 27 4 28 14 4 35 -27 24 -38 22 -127
-31z m47 -107 c28 -47 24 -60 -7 -25 -19 21 -45 27 -45 9 0 -48 100 -184 173
-235 19 -13 29 -31 34 -57 6 -40 1 -43 -42 -27 -20 8 -26 15 -22 30 3 11 0 20
-6 20 -7 1 -22 22 -34 48 -12 26 -54 85 -93 132 -38 46 -70 87 -70 90 1 6 71
60 79 60 3 0 18 -21 33 -45z m-83 -152 c82 -98 87 -109 60 -124 -37 -19 -115
-5 -165 30 -25 17 -46 31 -48 31 -2 0 -1 -11 2 -25 4 -25 4 -25 -69 -25 -69 1
-73 2 -54 16 11 9 47 29 80 45 74 37 102 63 110 101 4 16 11 28 15 26 4 -2 35
-36 69 -75z m377 -1135 c-9 -44 -25 -111 -37 -149 -19 -61 -25 -69 -46 -69
-17 0 -23 4 -20 14 3 8 11 32 17 53 7 23 21 43 34 49 27 12 36 64 10 64 -14 0
-16 7 -10 52 4 29 13 60 20 68 8 8 11 21 9 28 -3 8 3 32 13 55 l19 42 3 -63
c2 -35 -4 -100 -12 -144z m-2228 155 c20 -15 100 -77 177 -138 272 -214 360
-269 570 -358 33 -14 130 -59 215 -100 168 -80 283 -124 354 -133 59 -8 114 6
228 60 129 61 177 69 280 51 158 -29 162 -29 213 -6 26 11 49 21 50 21 1 0 5
-19 9 -41 6 -35 3 -46 -15 -65 -34 -36 -123 -65 -219 -71 -78 -5 -89 -3 -134
21 -73 39 -135 36 -293 -15 -100 -32 -145 -42 -203 -43 -75 -1 -76 0 -255 85
-99 48 -205 97 -235 109 -124 50 -251 133 -444 289 -65 53 -160 126 -210 163
-50 36 -106 79 -125 95 -33 28 -33 30 -22 66 7 20 15 37 17 37 3 0 22 -12 42
-27z"/>
<path d="M8655 188 c-110 -4 -335 -5 -500 -3 -178 3 -290 1 -275 -4 14 -5 98
-9 187 -10 111 -1 164 -5 169 -13 5 -8 -58 -10 -257 -5 -145 4 -291 9 -324 11
-51 5 -54 4 -20 -3 149 -33 575 -37 1025 -10 96 6 292 11 435 12 272 2 279 12
15 22 -85 3 -177 7 -205 8 -27 2 -140 -1 -250 -5z"/>
</g>
</svg>
