<?xml version="1.0" standalone="no"?>
<!DOCTYPE svg PUBLIC "-//W3C//DTD SVG 20010904//EN"
 "http://www.w3.org/TR/2001/REC-SVG-20010904/DTD/svg10.dtd">
<svg version="1.0" xmlns="http://www.w3.org/2000/svg"
 width="290.000000pt" height="500.000000pt" viewBox="0 0 290.000000 500.000000"
 preserveAspectRatio="xMidYMid meet">
<metadata>
Created by potrace 1.16, written by Peter Selinger 2001-2019
</metadata>
<g transform="translate(0.000000,500.000000) scale(0.100000,-0.100000)"
fill="#704A3E" stroke="none">
<path d="M1580 4981 c-57 -18 -112 -54 -140 -93 -17 -22 -30 -47 -30 -55 0 -7
-7 -16 -15 -19 -17 -7 -20 -41 -5 -64 7 -11 8 -5 3 19 -5 29 -4 33 10 28 11
-4 17 -1 17 9 0 25 34 12 44 -18 7 -20 5 -30 -7 -42 -17 -18 -12 -49 7 -43 6
2 11 28 12 61 0 40 5 61 17 74 15 14 19 15 27 3 7 -12 11 -12 24 -2 14 12 18
8 32 -24 14 -33 14 -39 -1 -61 -9 -14 -20 -22 -25 -19 -15 9 -42 -42 -44 -85
-1 -22 -1 -40 1 -40 1 0 16 27 33 61 23 44 36 59 48 57 9 -3 15 -11 13 -19 -3
-8 -3 -44 -2 -81 l2 -66 -43 5 c-24 3 -49 10 -55 16 -24 19 -14 -13 12 -37 32
-30 32 -44 -2 -58 -16 -7 -29 -13 -31 -14 -2 -1 2 -12 8 -24 10 -18 9 -25 -5
-39 -15 -15 -17 -14 -35 9 -18 24 -19 24 -39 6 -21 -19 -21 -19 -21 3 0 18 -4
21 -20 16 -12 -4 -20 -2 -20 5 0 6 -11 22 -24 35 -13 13 -29 45 -34 70 -9 43
-8 47 14 62 23 15 26 14 38 -2 12 -17 16 -17 57 -2 24 8 36 16 27 16 -9 1 -28
-3 -42 -9 -14 -5 -28 -5 -31 0 -3 4 7 13 22 18 l28 10 -25 1 c-14 0 -44 -8
-68 -19 -35 -16 -43 -24 -40 -42 2 -16 -3 -24 -17 -26 -27 -5 -55 -32 -55 -52
0 -10 9 -38 21 -64 11 -26 17 -55 14 -65 -5 -18 -48 -36 -63 -27 -4 2 -27 -6
-52 -17 -41 -20 -45 -25 -44 -57 1 -19 4 -48 8 -65 9 -42 -3 -55 -64 -68 -73
-17 -95 -46 -79 -108 23 -88 -25 -129 -76 -65 l-22 28 -7 -35 c-13 -72 36
-120 124 -121 41 -1 45 -3 50 -31 14 -65 119 -251 192 -337 33 -40 37 -51 28
-68 -6 -11 -8 -25 -5 -31 4 -5 1 -16 -5 -24 -7 -9 -10 -28 -7 -44 3 -15 1 -33
-4 -38 -6 -6 -7 -25 -1 -50 6 -25 6 -47 0 -58 -7 -12 -6 -21 5 -32 14 -14 14
-18 1 -39 -10 -15 -12 -24 -4 -29 6 -3 8 -11 5 -16 -3 -5 0 -7 7 -4 9 4 13 -7
15 -40 1 -25 8 -52 17 -61 9 -8 16 -20 16 -25 0 -5 5 -9 11 -9 8 0 9 4 0 13
-6 8 -8 17 -4 20 3 4 -2 9 -11 13 -10 4 -15 13 -11 24 3 10 1 21 -5 25 -8 5
-7 11 2 22 10 13 8 19 -11 34 -22 18 -23 20 -7 38 14 16 15 21 4 32 -8 8 -13
33 -12 62 1 26 -3 50 -8 53 -5 3 -4 12 3 20 6 8 9 27 6 44 -4 16 -2 32 4 36 6
3 9 17 6 30 -8 43 8 46 54 9 24 -19 52 -35 62 -35 23 0 22 -9 -5 -38 l-23 -25
28 18 c15 9 27 21 27 26 0 10 42 29 49 23 2 -2 -3 -12 -11 -21 -16 -18 -30
-95 -16 -87 4 3 8 20 8 39 0 20 6 35 15 39 8 3 15 11 15 19 0 7 23 20 50 29
52 17 69 10 25 -10 -14 -6 -25 -18 -25 -25 0 -8 -8 -21 -18 -31 -11 -9 -25
-35 -32 -59 -7 -23 -16 -51 -20 -62 -11 -26 -9 -85 2 -85 4 0 8 -7 8 -16 0
-25 -35 -12 -38 14 -2 14 -9 22 -17 19 -7 -3 -18 0 -24 6 -8 8 -11 8 -11 -2 0
-7 9 -15 20 -18 10 -3 22 -14 25 -24 4 -10 13 -19 22 -19 8 0 30 -7 49 -16 27
-13 37 -14 49 -4 8 7 15 17 15 23 0 6 -7 2 -15 -9 -15 -18 -15 -18 -29 0 -8
10 -19 15 -25 12 -5 -4 -9 2 -9 11 0 10 -1 24 -3 32 -2 8 7 20 21 27 32 17 60
54 60 81 0 12 5 25 10 28 6 3 10 17 10 30 0 13 10 31 21 39 13 9 25 30 28 52
5 32 11 39 44 50 22 8 37 9 37 3 0 -5 -7 -12 -15 -15 -8 -4 -15 -16 -14 -28 0
-20 0 -20 9 -1 17 37 45 64 75 70 30 7 30 7 8 -9 -13 -10 -23 -23 -23 -29 1
-7 15 4 33 24 18 20 52 43 77 51 25 9 54 19 65 23 15 6 12 -1 -12 -26 -18 -19
-33 -42 -33 -51 0 -9 -7 -18 -15 -22 -8 -3 -20 -17 -25 -31 -5 -14 -14 -25
-19 -25 -5 0 -13 -9 -16 -21 -11 -33 -51 -90 -95 -135 -26 -26 -40 -49 -39
-65 0 -13 -3 -40 -6 -59 -3 -19 -7 -49 -9 -67 -2 -18 -7 -38 -13 -45 -5 -7
-13 -21 -16 -30 -3 -10 -12 -16 -19 -14 -7 1 -10 1 -5 -1 16 -9 6 -34 -18 -45
-14 -6 -25 -15 -25 -20 0 -5 -9 -7 -19 -3 -11 3 -22 1 -26 -5 -5 -8 -13 -6
-26 6 -15 13 -22 15 -31 6 -17 -17 -25 -15 -31 9 -5 18 -11 20 -36 14 -27 -6
-31 -4 -31 14 0 12 -4 21 -10 21 -10 0 -3 -27 13 -48 6 -7 17 -10 24 -7 8 3
23 -5 33 -17 16 -19 22 -21 38 -11 13 8 23 8 29 2 12 -12 83 -1 83 11 0 5 9
11 20 15 11 3 27 23 37 43 10 20 25 46 35 56 11 12 14 24 9 30 -10 12 9 106
21 106 12 0 28 -37 28 -63 0 -14 -11 -45 -25 -68 -14 -24 -25 -48 -25 -54 1
-5 5 -2 11 8 5 9 15 17 21 17 9 0 9 -3 0 -12 -20 -20 -13 -30 9 -14 27 19 76
2 58 -21 -8 -9 -8 -13 -1 -13 6 0 14 5 17 11 7 11 47 -10 77 -42 15 -15 16
-23 6 -51 -16 -49 -75 -125 -130 -168 -53 -42 -197 -125 -204 -117 -12 12 36
94 65 110 18 11 30 21 27 24 -3 3 -12 0 -21 -7 -9 -7 -18 -10 -22 -7 -3 4 26
41 66 82 40 42 77 87 83 100 9 20 19 25 52 26 23 1 44 1 49 0 4 0 7 3 7 9 0 5
-24 11 -52 12 -67 1 -70 2 -86 11 -34 22 -82 -34 -112 -130 -17 -55 -71 -120
-91 -108 -4 3 -9 -1 -12 -8 -3 -7 -57 -39 -121 -71 -135 -66 -223 -90 -517
-141 -127 -22 -241 -49 -304 -70 -55 -20 -104 -36 -110 -38 -11 -3 -46 -24
-108 -65 -88 -59 -186 -192 -202 -277 -5 -27 -4 -27 9 6 31 80 62 126 125 189
76 75 186 135 311 169 74 20 520 94 527 88 3 -4 -85 -26 -132 -33 -47 -8 -286
-66 -350 -85 -83 -24 -228 -93 -270 -129 -68 -57 -126 -125 -155 -183 -16 -33
-38 -69 -47 -80 -17 -18 -18 -18 -24 0 -6 14 -8 12 -8 -10 -1 -15 -8 -40 -18
-55 -10 -17 -4 -13 17 11 25 29 35 35 41 25 6 -9 9 -7 9 10 0 26 64 71 146
101 54 21 234 51 299 51 34 0 37 -2 31 -22 -3 -13 -8 -43 -11 -68 -4 -36 -2
-33 9 17 19 80 21 83 61 83 53 0 262 38 356 65 109 31 201 72 290 130 68 44
70 45 50 16 -24 -34 -87 -86 -142 -119 -19 -12 -111 -46 -204 -77 -269 -88
-491 -214 -570 -324 -39 -54 -75 -141 -74 -179 1 -25 2 -24 9 6 14 58 41 122
52 122 6 0 9 3 5 6 -9 9 63 94 79 94 8 0 14 4 14 9 0 11 83 66 172 114 82 44
228 103 317 128 179 51 275 106 347 196 21 26 41 52 45 56 4 5 5 -13 3 -40
l-3 -48 9 50 c5 28 11 60 13 73 2 12 21 41 43 65 23 25 27 32 10 17 -24 -20
-28 -21 -23 -7 4 10 7 24 7 31 0 7 30 28 67 47 36 18 85 51 107 71 22 21 45
37 51 35 5 -2 28 11 50 30 l40 34 3 -43 c1 -24 12 -98 22 -166 11 -67 20 -128
20 -135 0 -6 -19 25 -41 71 -23 45 -43 81 -45 79 -3 -2 12 -39 32 -83 20 -43
45 -101 54 -129 l19 -50 0 75 c1 41 -8 136 -19 210 -22 148 -20 187 16 264 13
28 24 61 24 74 0 15 6 22 20 22 11 0 28 4 38 9 9 5 46 14 82 20 36 7 77 21 92
32 36 26 52 25 38 -1 -6 -11 -48 -73 -94 -138 -107 -150 -142 -214 -160 -287
l-14 -60 -1 45 c-2 119 38 251 96 321 l38 44 -35 -26 c-46 -34 -96 -109 -115
-172 -21 -72 -18 -156 10 -281 l25 -110 -26 -80 c-14 -45 -27 -92 -29 -106 -2
-14 -8 -54 -14 -90 -18 -109 -10 -122 9 -17 10 55 22 102 26 105 4 4 4 -5 1
-19 -4 -14 -11 -110 -17 -215 -7 -117 -17 -208 -27 -239 -71 -223 -218 -443
-393 -589 l-45 -38 49 33 c72 49 195 175 251 257 27 40 50 70 52 69 16 -16
-185 -407 -209 -407 -5 0 -7 -4 -3 -9 3 -5 1 -12 -5 -16 -5 -3 -15 -16 -20
-28 -16 -32 74 68 119 133 21 30 50 78 63 105 31 61 78 207 78 241 0 14 4 22
10 19 6 -3 7 1 4 10 -6 14 14 68 55 155 10 23 11 21 6 -15 -7 -47 -45 -225
-81 -375 -14 -58 -43 -150 -65 -206 -45 -115 -129 -260 -148 -256 -7 1 -9 -2
-6 -8 4 -6 1 -19 -7 -29 -7 -10 9 5 35 33 45 47 148 202 153 229 1 7 14 41 28
77 l26 65 -3 -187 c-2 -132 -7 -192 -15 -200 -10 -10 -14 -8 -19 10 -7 30 -56
28 -61 -3 -2 -18 -2 -18 8 -3 15 24 40 23 40 -2 0 -13 7 -20 20 -20 13 0 24
-10 31 -26 8 -22 6 -30 -10 -45 -10 -10 -22 -24 -25 -31 -5 -10 -7 -10 -12 0
-3 6 -12 12 -20 12 -10 0 -13 7 -8 25 4 15 2 25 -5 25 -6 0 -11 -8 -11 -17 0
-13 -2 -15 -8 -5 -5 7 -16 10 -25 6 -21 -8 -22 9 -2 26 10 9 12 16 5 25 -6 8
-6 15 2 23 9 9 9 12 0 12 -12 0 -16 -12 -13 -37 1 -6 -3 -14 -9 -18 -5 -3 -10
-15 -10 -27 0 -15 5 -19 18 -16 18 5 42 -13 42 -32 0 -5 6 -9 13 -7 16 3 14
-18 -17 -148 -37 -158 -43 -230 -21 -298 14 -45 20 -54 36 -50 19 5 59 48 59
63 0 4 -9 18 -21 31 l-21 24 16 -25 c20 -31 20 -36 -4 -60 -27 -27 -36 -25
-49 11 -18 51 -13 142 13 257 32 141 50 187 69 186 9 -1 13 4 10 11 -2 8 5 18
16 25 23 12 28 39 10 57 -8 8 -8 34 -1 95 6 45 14 172 17 280 4 143 12 236 30
340 14 79 29 220 35 313 20 350 42 557 66 615 21 49 190 264 248 315 20 17 96
151 119 207 15 40 21 76 21 145 l1 91 19 -46 c66 -168 92 -387 71 -610 -6 -60
-9 -72 -17 -57 -10 17 -6 175 7 285 5 38 4 41 -5 20 -29 -66 -43 -175 -36
-296 l6 -121 -73 -154 c-40 -85 -84 -181 -97 -214 -13 -33 -26 -62 -29 -65 -3
-3 -7 -12 -8 -20 -1 -8 -13 -60 -27 -114 -19 -72 -29 -145 -36 -261 -12 -198
-28 -261 -125 -503 -41 -104 -75 -194 -75 -200 0 -6 -8 -16 -17 -22 -16 -9
-15 -10 5 -5 16 5 22 2 22 -9 0 -9 9 -16 20 -16 28 0 25 -25 -2 -27 -13 -1
-34 -5 -47 -8 -20 -5 -23 -3 -18 15 3 11 0 23 -7 28 -7 4 -15 15 -19 25 -7 18
-32 23 -41 8 -3 -5 2 -8 12 -7 12 1 17 -6 16 -21 0 -13 4 -23 11 -23 6 0 11
-9 11 -20 0 -11 -6 -20 -13 -20 -7 0 -13 -5 -13 -10 0 -6 15 -8 39 -4 33 5 41
3 50 -14 9 -17 7 -20 -19 -24 -17 -3 -30 -1 -30 4 0 4 -4 8 -10 8 -5 0 -10 -7
-10 -16 0 -12 -6 -15 -26 -10 -17 5 -23 3 -19 -4 3 -5 18 -10 33 -10 27 0 27
-1 28 -73 0 -39 8 -105 18 -145 18 -70 18 -123 0 -166 -5 -13 -4 -17 4 -12 25
15 33 82 18 158 -25 128 -27 146 -20 198 5 38 11 50 24 50 31 0 80 31 80 50 0
10 -4 22 -10 25 -5 3 -10 19 -10 34 0 21 -6 30 -21 34 -26 7 -26 6 63 216 106
252 119 302 128 521 7 169 10 194 39 283 33 100 89 233 95 226 8 -9 -24 -259
-42 -328 -22 -85 -6 -75 29 18 30 79 42 172 37 273 l-5 86 52 97 52 97 11 -57
c72 -355 11 -642 -202 -954 -42 -61 -87 -134 -101 -161 -28 -56 -56 -151 -54
-190 1 -14 7 4 15 40 20 90 59 165 163 310 227 316 287 581 217 961 -26 139
-26 150 -12 205 19 79 27 127 36 242 4 53 15 131 25 172 29 126 5 272 -62 388
-28 47 -44 51 -20 5 40 -76 77 -329 59 -394 l-10 -34 -1 32 c-2 83 -47 239
-100 347 l-36 75 18 43 c10 23 15 39 11 35 -4 -4 -13 1 -20 11 -12 16 -13 15
-14 -5 0 -16 -6 -23 -20 -23 -32 0 -25 36 9 48 23 8 32 7 42 -4 16 -20 23 -10
10 14 -12 22 -63 46 -83 39 -7 -2 -1 -8 15 -12 31 -8 37 -25 8 -25 -12 0 -25
12 -33 30 -9 21 -31 39 -68 58 -61 31 -86 65 -99 135 -7 41 -6 51 15 78 13 17
26 46 30 63 3 17 12 35 18 39 14 11 34 17 -274 -86 -278 -93 -466 -143 -502
-134 -97 25 -328 357 -328 473 0 96 74 168 201 195 59 13 69 6 69 -47 0 -17 3
-34 7 -37 3 -4 7 -34 9 -66 1 -33 5 -64 9 -70 10 -17 -6 -13 -27 6 -10 9 -18
11 -18 6 0 -6 7 -16 15 -23 8 -6 24 -37 35 -68 12 -32 32 -76 45 -99 l23 -42
-26 -11 c-26 -10 -26 -10 -2 -4 14 3 68 17 120 30 52 13 222 41 377 61 269 35
286 36 355 23 144 -27 185 -25 289 14 127 47 171 55 94 17 -33 -16 -70 -38
-82 -48 -23 -18 -22 -18 65 -18 48 0 110 -3 137 -7 l50 -8 -55 21 c-41 15 -70
19 -115 16 l-60 -5 60 27 c33 15 66 35 74 44 12 15 10 17 -23 17 -55 0 -72 43
-105 273 -22 147 -43 208 -94 272 l-32 40 -1 140 c0 110 -4 148 -17 178 -24
51 -29 47 -10 -9 12 -35 14 -66 8 -137 -12 -167 -13 -167 28 -227 47 -71 70
-138 96 -288 12 -67 28 -141 36 -163 8 -23 15 -43 15 -45 0 -2 -23 12 -50 32
-28 20 -83 47 -123 60 -108 36 -116 42 -119 83 -2 30 -9 39 -40 56 -38 20 -38
20 -32 71 6 47 4 53 -17 67 -13 8 -48 20 -76 27 -55 13 -63 23 -38 56 22 28
18 51 -15 99 -32 46 -37 82 -19 134 15 42 4 93 -27 126 -36 39 -41 59 -30 124
11 69 5 99 -31 142 -33 38 -105 73 -134 64 l-21 -7 21 -22 c27 -28 51 -88 51
-126 0 -29 -2 -30 -42 -30 -24 0 -49 4 -56 9 -8 5 8 6 37 3 36 -3 51 -1 51 8
0 8 -8 10 -25 6 -23 -6 -85 16 -85 30 0 2 13 -2 30 -11 36 -19 41 -19 66 0 18
13 16 14 -16 9 -30 -4 -38 -1 -54 23 l-19 28 24 -22 c14 -13 33 -23 42 -23 51
0 13 81 -60 129 -40 27 -55 31 -107 30 -34 0 -72 -4 -86 -8z m210 -243 c41 -9
56 -9 72 1 16 10 24 9 46 -5 45 -29 51 -44 50 -127 -1 -57 3 -81 13 -87 8 -6
16 -4 21 3 4 6 11 8 15 3 4 -4 -4 -18 -19 -31 -22 -18 -28 -33 -28 -62 0 -28
-14 -61 -50 -123 -57 -96 -81 -120 -119 -120 -33 0 -97 34 -93 50 1 6 -2 9 -7
6 -5 -3 -28 15 -52 41 -35 41 -39 43 -23 15 25 -44 98 -111 135 -124 29 -10
40 -40 19 -53 -5 -3 -10 -17 -10 -31 0 -23 -3 -33 -29 -82 -6 -13 -9 -27 -6
-32 3 -6 -1 -20 -9 -31 -10 -15 -12 -28 -6 -45 6 -15 6 -34 0 -50 -6 -14 -10
-51 -10 -82 -1 -54 -13 -85 -35 -88 -6 -1 -24 -5 -41 -8 l-32 -7 -12 63 c-7
35 -14 77 -15 93 -2 17 -8 42 -13 56 -6 14 -9 47 -7 75 2 27 -3 67 -10 88 -8
22 -12 43 -9 48 3 4 2 14 -3 20 -4 7 -6 66 -4 130 2 96 0 118 -11 118 -8 0
-19 5 -25 11 -9 9 -6 17 13 31 18 15 23 26 18 41 -4 14 0 25 16 37 12 9 23 28
24 41 1 18 8 25 31 29 22 4 30 11 31 28 1 12 2 35 3 50 1 22 7 30 34 37 23 7
33 17 35 34 4 27 22 50 39 51 6 0 35 -5 63 -12z m-300 -539 c4 -6 11 -39 15
-72 4 -34 9 -71 10 -82 1 -11 6 -28 10 -38 4 -10 2 -24 -5 -32 -7 -8 -9 -15
-4 -15 5 0 9 -21 10 -46 1 -25 6 -49 13 -53 6 -4 11 -18 11 -32 0 -43 3 -64
11 -69 5 -3 9 -26 11 -50 l3 -44 -75 -22 c-86 -25 -95 -22 -111 40 -6 22 -22
59 -36 80 -21 32 -23 43 -14 58 7 12 8 18 1 18 -7 0 -9 13 -5 34 4 20 2 36 -4
40 -8 5 -8 13 -1 26 7 12 6 21 -3 28 -7 6 -12 31 -11 59 1 30 -5 55 -14 65
-13 16 -13 18 2 24 9 3 16 12 16 19 0 18 55 69 82 76 32 8 80 2 88 -12z m386
-79 c0 -14 4 -31 8 -39 7 -10 12 -84 18 -251 0 -8 -1 -26 -2 -40 -1 -14 1 -35
5 -46 6 -20 1 -23 -57 -33 -137 -24 -164 -25 -152 -10 6 8 15 44 19 81 3 38
13 72 21 79 10 8 14 8 14 0 0 -6 9 -2 20 9 24 24 25 36 4 44 -14 5 -15 4 -5
-8 17 -20 -18 -31 -38 -12 -12 12 -12 20 -3 41 7 14 12 32 12 39 0 8 7 30 16
51 14 35 16 36 29 19 11 -16 11 -21 -1 -35 -11 -12 -11 -18 -2 -27 7 -7 16
-12 21 -12 10 0 4 61 -8 80 -4 6 1 20 11 31 9 10 12 19 6 19 -6 0 -14 -4 -17
-10 -11 -18 -26 -10 -23 13 2 15 11 23 28 25 14 2 29 8 35 13 17 17 40 5 41
-21z m191 -32 c15 -6 34 -12 42 -14 8 -1 17 -7 20 -12 3 -5 16 -14 28 -21 12
-6 29 -23 38 -39 27 -45 95 -89 170 -110 93 -26 152 -54 195 -92 19 -17 29
-29 23 -25 -7 3 -13 2 -13 -3 0 -16 -142 -56 -195 -55 -27 0 -78 8 -111 17
-34 9 -89 16 -122 16 -61 0 -61 0 -67 33 -4 18 -2 45 4 60 16 40 13 57 -4 27
-8 -14 -14 -48 -15 -76 l0 -50 -70 -10 c-60 -8 -70 -8 -71 6 -1 8 -2 76 -4
151 -1 75 -4 140 -7 145 -10 17 9 49 33 55 39 11 96 10 126 -3z m-112 -653
c22 0 50 4 63 8 15 6 23 4 26 -5 2 -7 9 -32 15 -56 15 -55 54 -95 114 -117 42
-15 61 -38 39 -47 -5 -1 -22 -24 -40 -50 -35 -51 -127 -148 -141 -148 -5 0
-30 -10 -57 -22 -55 -24 -175 -36 -208 -20 -11 6 -33 13 -48 16 -23 5 -28 12
-28 37 0 16 -9 48 -20 70 l-21 39 27 35 c14 19 30 32 35 29 5 -3 16 13 25 36
9 22 25 45 35 50 10 6 16 17 13 25 -4 8 1 18 10 21 9 3 16 14 16 23 0 10 11
28 25 41 14 13 25 30 25 37 0 10 7 11 28 6 15 -5 45 -8 67 -8z m309 -437 c3
-13 6 -55 6 -95 0 -127 -55 -237 -210 -423 -39 -47 -93 -118 -121 -158 l-49
-74 0 62 c0 36 6 73 16 92 9 17 62 79 118 139 109 115 151 184 180 294 8 32
14 61 12 62 -2 2 -13 -23 -25 -55 -30 -79 -87 -165 -170 -254 -37 -40 -80 -91
-94 -113 -15 -22 -27 -33 -27 -25 0 28 56 124 143 247 93 132 127 191 127 222
0 19 66 101 80 101 4 0 10 -10 14 -22z m-764 -432 c0 -2 -9 -24 -19 -49 -18
-41 -25 -46 -102 -79 -160 -68 -215 -87 -334 -113 -243 -53 -304 -83 -382
-189 -25 -34 -46 -62 -48 -64 -1 -1 -60 -11 -131 -22 -138 -20 -221 -45 -291
-85 -24 -14 -43 -22 -43 -17 0 18 62 101 103 139 107 99 247 156 542 222 220
49 284 68 406 116 96 39 173 76 244 119 39 24 55 30 55 22z m-56 -163 c-4 -16
-10 -34 -13 -40 -10 -20 -202 -144 -212 -137 -5 3 -9 1 -9 -5 0 -24 -241 -100
-395 -125 -163 -27 -175 -28 -175 -18 0 16 80 101 124 131 54 37 113 57 228
75 118 19 282 68 373 111 38 18 73 34 78 34 4 1 4 -11 1 -26z"/>
<path d="M2750 4668 c0 -14 -11 -40 -25 -59 -62 -85 -84 -123 -109 -193 l-28
-75 65 -133 c69 -140 116 -263 141 -363 21 -83 36 -254 25 -282 -13 -34 -54
-46 -136 -40 -92 7 -96 -9 -5 -18 86 -8 141 8 161 49 19 41 0 252 -34 371 -24
82 -123 299 -176 385 l-21 35 32 88 c20 53 47 105 71 134 36 44 60 106 45 120
-3 4 -6 -5 -6 -19z"/>
<path d="M2402 3122 c96 -103 140 -207 141 -337 1 -64 -6 -107 -36 -211 -20
-72 -42 -156 -47 -185 -16 -83 -13 -387 5 -544 21 -181 22 -369 2 -462 -29
-134 -137 -370 -241 -526 -10 -15 -16 -27 -12 -27 10 0 124 176 175 272 125
233 153 401 116 683 -25 190 -26 205 -5 120 72 -297 70 -487 -7 -695 -13 -36
-75 -168 -138 -295 -105 -212 -165 -351 -165 -379 0 -6 18 32 39 84 22 52 93
201 158 330 151 297 192 425 193 600 l0 65 50 -85 c134 -230 153 -418 62 -599
-31 -62 -99 -141 -156 -183 -21 -15 -34 -28 -29 -28 20 0 115 78 155 127 80
96 122 212 121 338 0 131 -45 249 -157 413 -50 73 -56 89 -75 188 -11 59 -18
110 -16 113 3 2 5 -1 5 -8 0 -27 85 -180 151 -272 88 -123 110 -174 119 -274
l7 -80 2 92 c1 120 -11 153 -123 317 -125 183 -190 320 -206 431 -20 143 -9
287 35 435 61 208 58 321 -11 459 -32 65 -123 171 -146 171 -6 0 10 -22 34
-48z"/>
<path d="M2518 2318 c-4 -26 -3 -81 2 -122 17 -132 65 -247 186 -443 129 -208
155 -281 155 -435 0 -134 -36 -267 -108 -398 -14 -25 -17 -36 -8 -25 32 37
114 219 131 290 9 39 16 111 16 160 1 145 -32 232 -164 438 -148 230 -188 328
-197 482 -6 90 -7 95 -13 53z"/>
<path d="M1386 2093 c-16 -238 -31 -286 -141 -454 -35 -55 -74 -118 -86 -140
-11 -23 -22 -39 -25 -37 -6 7 15 196 27 242 14 51 45 113 73 146 l21 25 -29
-25 c-37 -33 -83 -125 -100 -202 -8 -35 -20 -115 -26 -178 -6 -67 -21 -145
-36 -188 -33 -98 -88 -212 -117 -244 -14 -15 -23 -29 -20 -31 8 -9 -83 -80
-132 -103 -59 -28 -46 -32 17 -5 86 37 159 113 223 232 39 72 40 67 20 -81 -8
-58 -14 -116 -14 -130 1 -14 12 45 25 130 47 306 65 365 166 518 84 127 134
222 147 283 11 50 27 339 18 339 -3 0 -8 -44 -11 -97z"/>
<path d="M1806 2103 c-11 -27 -71 -154 -134 -283 -62 -129 -159 -334 -214
-455 -219 -481 -347 -710 -382 -687 -6 4 -21 7 -33 7 -17 1 -24 -6 -29 -28 -3
-15 -13 -31 -22 -34 -10 -4 -20 -11 -23 -16 -4 -6 -19 -6 -35 -2 l-29 8 25 6
c17 5 26 15 28 31 3 24 3 24 -11 6 -17 -23 -50 -15 -41 9 4 10 0 15 -10 15
-19 0 -22 26 -4 32 7 3 13 13 13 24 0 22 34 32 46 12 6 -9 9 -9 9 -1 0 7 -7
16 -16 21 -19 11 -54 4 -54 -9 0 -5 -6 -9 -14 -9 -19 0 -46 -39 -45 -65 0 -13
4 -9 10 13 5 17 16 32 24 32 13 0 13 -3 3 -21 -11 -17 -10 -22 4 -33 14 -10
16 -21 9 -55 -1 -2 -13 4 -27 14 -15 9 -23 12 -19 5 4 -7 23 -18 41 -26 19 -8
34 -18 34 -22 0 -4 -11 -20 -25 -35 -14 -15 -22 -27 -18 -27 4 0 2 -5 -5 -12
-7 -7 -12 -18 -12 -26 0 -8 15 8 33 34 36 54 61 66 70 34 3 -12 15 -24 26 -27
12 -3 21 -9 21 -14 0 -18 -70 -149 -124 -231 -30 -46 -62 -104 -72 -128 -21
-55 -60 -110 -78 -110 -8 0 -19 7 -27 16 -10 13 -10 20 5 45 9 16 15 29 11 29
-3 0 -14 -14 -25 -32 -16 -26 -20 -29 -26 -15 -7 19 -3 29 23 67 l17 25 -27
-24 c-27 -24 -27 -24 -27 -3 0 11 5 24 10 27 6 3 10 12 10 18 0 7 -9 1 -20
-13 -19 -24 -20 -24 -20 -4 0 12 10 34 22 49 l21 27 -22 -13 c-28 -18 -37 -54
-20 -87 7 -15 13 -37 14 -48 1 -29 55 -84 82 -84 26 0 50 32 88 117 15 35 31
61 35 58 3 -2 7 2 7 9 0 17 61 106 73 106 6 0 9 3 8 8 -2 7 44 101 69 138 12
19 18 21 56 12 23 -5 49 -16 58 -24 24 -22 54 -17 88 15 46 43 38 122 -12 120
l-22 0 23 -9 c36 -15 31 -72 -9 -101 -30 -21 -33 -21 -63 -6 -17 9 -46 20 -64
23 -19 4 -39 15 -45 25 -7 11 -18 19 -25 19 -19 0 -26 28 -12 45 11 14 15 13
34 -2 20 -17 20 -17 6 1 -12 16 -12 20 1 30 8 6 13 18 11 27 -1 9 4 21 11 28
12 9 16 6 21 -20 4 -23 10 -30 21 -25 14 5 14 2 -1 -24 -10 -16 -22 -26 -28
-23 -5 4 -7 0 -3 -9 3 -9 0 -21 -6 -28 -9 -10 -9 -11 2 -5 11 6 13 4 8 -9 -4
-10 -3 -15 3 -11 6 3 10 14 10 24 0 10 11 24 25 31 16 9 21 16 14 21 -18 11
-1 29 27 29 16 0 24 -6 24 -17 0 -9 3 -13 7 -10 3 4 1 17 -6 30 -10 18 -19 22
-42 19 -16 -2 -29 -1 -29 2 0 4 28 47 63 95 35 48 69 102 76 119 7 18 17 30
21 27 4 -3 7 1 6 8 0 6 46 104 103 217 79 154 118 220 160 267 30 34 59 59 65
56 5 -3 6 -1 3 4 -4 6 14 42 39 79 59 88 90 156 115 251 26 103 23 135 -5 48
-30 -92 -89 -207 -170 -330 -36 -55 -66 -97 -66 -94 0 9 82 183 89 189 3 3 7
12 9 20 6 26 102 241 169 377 35 72 63 141 61 152 -2 16 -8 9 -22 -26z"/>
<path d="M1149 1978 c-155 -104 -262 -216 -327 -344 -11 -22 -43 -100 -72
-174 -74 -196 -117 -276 -184 -347 -64 -69 -162 -125 -258 -149 -29 -7 -45
-13 -34 -13 69 -3 261 80 312 136 64 70 126 181 184 331 34 86 66 159 71 160
5 2 7 8 4 12 -6 10 45 109 83 160 49 67 118 132 217 207 113 85 110 83 103 83
-2 0 -47 -28 -99 -62z"/>
<path d="M990 1997 c-42 -18 -101 -50 -133 -71 -71 -47 -164 -147 -202 -218
-16 -29 -33 -56 -39 -60 -6 -4 -8 -8 -4 -8 4 0 3 -12 -3 -27 -5 -15 -19 -84
-29 -155 -21 -140 -41 -190 -99 -252 -26 -29 -29 -34 -9 -19 74 56 108 123
137 275 11 59 30 129 42 155 12 27 23 50 23 53 1 3 16 29 35 59 63 103 199
218 323 275 29 13 49 25 43 25 -5 0 -44 -14 -85 -32z"/>
<path d="M1219 1960 c-131 -116 -246 -290 -373 -567 -44 -95 -83 -170 -87
-168 -4 3 -5 -3 -3 -12 8 -30 -81 -174 -143 -232 -39 -37 -48 -49 -27 -38 39
20 104 90 147 154 18 29 38 49 42 45 5 -4 5 -2 1 5 -7 12 247 543 259 543 4 0
4 -7 1 -16 -3 -9 -13 -84 -22 -167 -9 -82 -24 -184 -35 -226 -41 -164 -121
-274 -241 -332 -35 -17 -50 -28 -34 -24 58 13 123 51 177 105 105 104 142 215
164 495 8 99 20 196 26 215 14 40 76 130 90 130 6 0 8 4 5 9 -4 5 6 20 21 33
35 30 99 98 92 98 -2 0 -29 -22 -60 -50z"/>
<path d="M2311 1790 c-2 -172 -41 -350 -111 -512 -22 -50 -38 -93 -37 -95 6
-6 70 110 102 184 46 107 65 210 64 340 -2 138 -16 205 -18 83z"/>
<path d="M1702 1541 c-35 -150 -168 -380 -304 -527 -44 -47 -60 -69 -41 -56
33 23 146 122 151 132 1 3 21 30 43 60 81 108 177 352 167 424 -2 12 -8 -1
-16 -33z"/>
</g>
</svg>
