<?xml version="1.0" standalone="no"?>
<!DOCTYPE svg PUBLIC "-//W3C//DTD SVG 20010904//EN"
 "http://www.w3.org/TR/2001/REC-SVG-20010904/DTD/svg10.dtd">
<svg version="1.0" xmlns="http://www.w3.org/2000/svg"
 width="512.000000pt" height="508.000000pt" viewBox="0 0 512.000000 508.000000"
 preserveAspectRatio="xMidYMid meet">
<metadata>
Created by potrace 1.16, written by Peter Selinger 2001-2019
</metadata>
<g transform="translate(0.000000,508.000000) scale(0.100000,-0.100000)"
fill="#F3E603" stroke="none">
<path d="M2435 5073 c-16 -3 -34 -9 -39 -14 -6 -5 -20 -9 -33 -9 -35 0 -100
-45 -126 -88 -49 -77 -57 -139 -36 -272 9 -59 8 -72 -6 -94 -13 -19 -14 -29
-5 -45 8 -16 7 -28 -5 -50 -26 -51 -21 -59 35 -55 l50 3 0 -86 c0 -70 -3 -88
-17 -100 -32 -25 -67 -35 -133 -39 -36 -2 -83 -6 -105 -8 -22 -3 -67 -8 -100
-11 -33 -4 -69 -12 -80 -18 -32 -16 -222 -135 -318 -199 -48 -32 -91 -58 -95
-58 -4 0 -19 -12 -33 -27 -14 -16 -67 -68 -117 -117 -51 -49 -94 -97 -97 -108
-11 -32 61 -160 145 -258 44 -52 80 -100 80 -108 0 -8 16 -40 37 -70 33 -50
34 -56 20 -67 -26 -19 -21 -44 11 -51 52 -11 62 -15 62 -25 0 -5 15 -25 34
-44 19 -18 35 -38 37 -44 8 -22 64 -24 89 -3 21 17 26 32 33 108 5 49 9 99 9
111 0 15 7 23 21 25 12 2 23 10 25 19 5 25 -50 59 -115 72 -80 17 -108 46
-150 159 -19 51 -37 100 -39 108 -4 11 10 23 43 38 26 13 73 36 103 52 34 19
83 34 128 40 40 6 86 17 101 25 26 13 30 13 45 -4 24 -26 72 -171 85 -256 29
-187 30 -264 5 -296 -10 -13 -22 -60 -69 -267 -9 -40 -28 -101 -43 -135 -25
-61 -25 -66 -25 -312 0 -137 5 -270 11 -295 17 -78 44 -184 49 -200 3 -8 4
-43 3 -77 -1 -42 7 -90 23 -145 14 -46 30 -110 35 -143 14 -87 38 -165 60
-195 11 -14 22 -46 26 -73 8 -54 48 -172 77 -229 22 -44 59 -146 115 -323 20
-66 46 -140 57 -165 10 -25 20 -55 22 -68 3 -31 9 -35 57 -37 79 -3 88 -5 88
-20 0 -9 -9 -15 -25 -15 -21 0 -25 -5 -25 -30 0 -17 4 -38 9 -48 44 -85 47
-123 15 -162 -32 -37 -62 -53 -131 -69 -32 -8 -67 -26 -92 -48 -34 -29 -41
-41 -41 -72 0 -53 32 -81 93 -81 39 0 45 3 40 16 -5 13 -2 15 17 9 21 -7 39 6
40 28 0 17 -49 5 -73 -17 -17 -16 -29 -21 -33 -14 -11 18 35 48 73 48 37 0 37
19 0 21 -12 0 -16 3 -9 6 17 7 5 23 -19 23 -10 0 -19 5 -19 10 0 6 -10 10 -22
10 -21 1 -21 2 -5 11 10 6 50 21 89 35 39 13 79 31 88 39 28 25 90 47 104 36
14 -11 83 -3 92 10 3 5 16 9 29 9 13 0 27 4 30 10 3 5 13 10 22 10 8 0 26 9
40 20 14 11 29 20 33 20 8 0 47 -77 55 -111 11 -43 -28 -77 -100 -90 -33 -5
-83 -21 -112 -35 -28 -14 -75 -28 -103 -31 -33 -4 -62 -15 -80 -29 -15 -13
-38 -28 -51 -33 l-24 -10 24 0 c13 -1 38 8 55 18 17 10 55 24 84 30 29 6 78
24 110 40 32 16 82 32 114 36 47 5 62 12 83 36 33 40 32 61 -9 145 -35 74 -43
132 -16 125 42 -11 70 -12 70 -3 0 6 19 20 43 30 23 10 48 26 56 35 7 10 19
17 26 17 24 0 43 76 44 182 4 371 17 479 70 572 16 28 32 71 35 96 4 25 13 63
21 85 8 22 14 73 15 113 0 41 7 99 16 129 14 47 15 71 5 162 -19 179 -17 201
23 239 19 18 42 32 50 32 10 0 19 12 23 31 3 17 12 33 20 36 11 4 13 21 9 75
-3 39 -7 73 -10 75 -5 5 21 63 27 63 1 0 24 -7 51 -15 72 -22 113 -20 130 8 7
12 33 83 56 157 23 74 56 169 72 210 17 41 33 93 35 115 3 22 23 77 44 121
l38 82 -13 81 c-11 73 -17 86 -51 121 -51 52 -103 64 -210 50 -44 -6 -109 -13
-143 -16 -69 -5 -166 -43 -225 -88 -19 -15 -47 -26 -64 -26 -59 0 -138 -21
-173 -45 l-34 -25 -24 23 c-13 12 -34 44 -47 71 -22 45 -22 52 -9 77 8 16 14
55 14 89 0 34 6 73 14 88 8 15 19 53 25 85 6 32 19 78 30 103 11 25 23 62 27
82 4 20 15 49 25 63 16 23 27 27 96 32 80 6 293 -19 323 -38 8 -5 48 -9 90
-10 l76 -1 53 -50 52 -49 -7 -50 c-3 -27 -10 -60 -15 -72 -6 -17 -4 -23 12
-28 11 -4 26 -17 35 -30 8 -13 33 -30 55 -39 21 -9 39 -20 39 -24 0 -9 42 -63
77 -99 21 -22 53 -31 53 -15 0 4 -5 13 -11 19 -18 18 -1 33 31 26 37 -7 40 11
8 37 l-23 19 33 11 c40 15 41 32 1 47 -19 7 -28 16 -24 23 4 7 -2 18 -14 26
-28 20 -29 74 -1 92 41 25 18 97 -41 127 -16 9 -29 21 -29 29 0 22 -59 131
-83 154 -13 12 -53 31 -88 41 -35 11 -131 45 -214 76 -82 32 -172 62 -200 67
-27 5 -84 19 -125 30 -83 23 -105 25 -265 32 -125 5 -138 8 -160 43 -15 22
-15 26 -1 42 9 10 16 25 16 34 0 9 5 19 11 23 6 4 9 19 5 36 -5 24 -1 31 19
40 27 12 31 28 14 59 -8 15 -6 25 10 46 12 14 21 34 21 44 0 10 5 21 10 24 6
3 10 15 10 25 0 10 7 23 16 28 12 7 15 17 10 38 -13 58 -13 76 -1 80 17 7 11
106 -9 149 -9 18 -27 43 -41 56 -13 13 -25 27 -25 31 0 12 -54 63 -64 60 -5
-2 -16 4 -25 11 -16 14 -133 20 -206 10z m111 -176 c29 -27 66 -69 81 -95 24
-40 28 -58 28 -134 2 -98 -7 -123 -62 -188 -53 -61 -103 -83 -180 -78 -55 3
-67 8 -98 38 -43 42 -70 112 -85 221 -13 94 -8 134 23 187 43 73 93 101 175
98 61 -2 67 -4 118 -49z m65 -516 c-11 -47 -18 -95 -14 -115 4 -27 1 -38 -17
-53 -12 -10 -29 -24 -36 -32 -8 -7 -27 -13 -42 -12 -15 1 -47 1 -71 1 -24 0
-50 5 -57 11 -8 6 -14 9 -14 6 0 -3 -13 7 -30 21 -29 26 -30 29 -30 114 0 49
2 88 5 88 4 0 19 -7 35 -15 76 -39 214 -9 262 58 30 42 33 21 9 -72z m-14
-248 c-14 -32 -31 -80 -38 -106 -6 -27 -18 -51 -26 -54 -14 -6 -85 28 -112 52
-11 11 -4 14 38 20 55 7 58 12 36 54 -16 32 -12 41 22 41 13 0 23 5 23 10 0 6
6 10 13 10 6 0 23 9 37 20 14 10 27 17 29 15 2 -3 -8 -31 -22 -62z m-554 -58
c107 -205 106 -201 108 -300 1 -49 8 -107 15 -127 7 -20 10 -45 7 -56 -2 -11
0 -23 6 -26 6 -4 11 -17 11 -29 0 -12 7 -31 15 -41 8 -11 15 -27 15 -37 0 -9
13 -22 29 -29 16 -6 31 -20 34 -31 4 -15 14 -19 50 -19 86 0 97 -17 43 -69
l-34 -33 -44 26 c-54 31 -105 33 -150 6 -72 -43 -128 -9 -128 79 -1 44 -9 94
-25 154 -6 24 -4 27 16 27 23 1 23 1 -4 16 -30 16 -47 49 -47 92 0 15 -9 38
-20 52 -24 31 -25 40 -3 40 15 0 15 2 -1 19 -16 18 -16 19 11 29 l28 10 -29 1
c-25 1 -27 4 -21 24 4 12 9 63 10 112 l3 90 -9 -84 c-9 -84 -43 -169 -64 -160
-5 2 -9 6 -9 9 1 3 5 30 8 60 6 56 -6 47 -19 -14 -8 -37 -18 -26 -44 54 -12
36 -37 87 -55 114 l-34 50 21 16 c12 9 48 31 80 49 46 26 66 32 93 28 20 -3
34 -2 34 4 0 6 10 9 23 7 17 -2 35 -28 80 -113z m6 105 c16 0 61 -76 95 -160
19 -47 44 -104 56 -128 18 -37 21 -58 18 -137 -2 -65 -6 -96 -15 -99 -16 -7
-21 16 -26 129 -3 70 -10 101 -28 136 -13 26 -46 89 -72 140 -26 52 -52 98
-58 104 -14 14 -11 28 7 21 9 -3 19 -6 23 -6z m745 -6 c14 -5 14 -8 -1 -30
-20 -32 -6 -31 28 2 25 24 35 27 98 25 39 -1 98 -11 132 -21 34 -11 68 -20 76
-20 11 0 10 -5 -5 -25 -27 -34 -45 -106 -39 -152 14 -94 16 -88 -28 -85 -22 2
-57 8 -77 13 -38 10 -38 10 -38 60 0 27 -7 66 -15 86 -8 19 -15 46 -15 59 0
32 -16 31 -24 -2 -5 -17 -1 -35 9 -51 21 -31 32 -118 16 -127 -6 -4 -11 -2
-11 3 0 6 -6 11 -14 11 -12 0 -12 -7 0 -47 17 -57 12 -104 -23 -188 -30 -73
-27 -69 -51 -56 -20 10 -19 12 6 73 23 59 24 67 13 123 -19 88 -69 145 -131
145 -11 0 -20 2 -20 4 0 2 15 28 34 57 19 28 40 74 47 100 7 27 14 49 15 49 1
0 9 -3 18 -6z m-597 -80 c85 -54 101 -71 119 -133 20 -71 46 -120 77 -149 29
-28 26 -54 -12 -95 -22 -24 -23 -29 -11 -38 12 -9 12 -10 -2 -5 -12 3 -18 0
-18 -9 0 -21 -30 -33 -72 -28 l-36 5 -4 116 c-3 101 -7 125 -30 172 -37 78
-78 178 -78 190 0 15 4 13 67 -26z m1089 2 c19 -14 19 -15 -2 -38 -42 -46 -52
-132 -22 -190 8 -16 3 -18 -36 -18 -40 0 -47 4 -65 34 -43 69 -10 189 59 213
45 15 43 15 66 -1z m-1577 -104 c32 -64 61 -153 61 -189 0 -27 -25 -40 -89
-45 l-42 -3 -29 69 c-16 39 -44 85 -62 103 -17 18 -30 35 -27 37 21 20 144 94
151 90 5 -3 21 -31 37 -62z m1702 42 c6 -17 0 -30 -27 -59 -33 -37 -44 -78
-24 -90 6 -3 10 -17 10 -31 0 -33 -32 -32 -60 3 -18 23 -20 35 -15 73 14 97
92 167 116 104z m126 -33 c26 -10 71 -24 99 -30 29 -7 61 -22 72 -34 25 -27
82 -139 75 -149 -2 -5 -14 -8 -27 -8 -12 0 -44 -17 -70 -37 l-47 -36 -59 58
c-33 33 -60 65 -60 72 0 7 -4 13 -10 13 -5 0 -10 -9 -10 -21 0 -17 -5 -20 -37
-17 -33 3 -38 7 -46 38 -4 19 -11 45 -14 57 -4 18 2 26 26 40 20 11 34 29 38
46 7 32 8 32 70 8z m-779 -78 c54 -40 71 -148 33 -221 -24 -47 -38 -52 -21 -8
17 47 12 110 -13 147 -21 32 -60 51 -156 76 -11 3 -11 6 0 19 19 23 120 15
157 -13z m-89 -50 c38 -12 56 -24 67 -44 21 -41 17 -105 -8 -150 l-22 -39 -77
0 c-58 0 -82 4 -94 16 -9 9 -13 19 -10 22 3 4 10 0 14 -7 5 -7 14 -10 20 -6
17 10 3 45 -30 76 -36 34 -36 45 -1 63 15 8 34 30 42 50 16 41 26 43 99 19z
m-1279 -45 c0 -20 32 -48 54 -48 19 0 21 -6 21 -65 0 -70 -10 -80 -49 -50 -42
32 -44 13 -3 -27 37 -36 50 -59 76 -140 36 -109 37 -111 22 -116 -6 -2 -11 3
-11 11 0 45 -68 46 -89 1 l-12 -27 -35 34 c-56 54 -114 134 -145 200 l-29 61
47 55 c88 103 153 150 153 111z m2411 -137 c23 -23 29 -39 29 -70 0 -23 -3
-41 -7 -41 -4 0 -20 12 -35 27 -15 15 -28 22 -28 16 0 -15 80 -83 97 -83 7 0
13 -4 13 -10 0 -15 -31 -12 -75 9 -51 23 -79 54 -72 81 3 11 1 20 -4 20 -18 0
-20 -28 -5 -59 15 -29 22 -101 10 -101 -3 0 -19 9 -35 21 -33 23 -37 52 -14
95 17 34 19 54 5 54 -5 0 -10 -6 -10 -12 0 -18 -40 -81 -47 -75 -8 9 18 137
28 137 4 0 11 -4 14 -10 10 -16 25 -12 19 5 -8 19 22 19 56 0 36 -21 49 -18
21 5 -19 16 -20 20 -6 20 9 0 30 -13 46 -29z m-1091 -74 c0 -2 -11 -25 -24
-53 -13 -27 -26 -59 -30 -71 -4 -13 -13 -23 -19 -23 -7 0 -29 -14 -50 -31 -44
-36 -87 -35 -87 4 0 12 -3 32 -6 45 -10 34 22 28 41 -9 9 -17 19 -29 22 -26 2
3 -1 15 -7 27 -6 11 -10 33 -8 48 4 36 38 41 79 12 16 -12 32 -20 35 -17 3 2
-11 15 -30 27 -25 15 -36 29 -36 46 0 23 3 24 60 24 33 0 60 -1 60 -3z m79 -8
c28 -10 31 -15 31 -53 0 -23 -7 -51 -15 -62 -9 -12 -14 -43 -15 -90 0 -43 -5
-77 -14 -89 -12 -17 -14 -17 -37 -2 -31 22 -90 22 -120 -1 -40 -31 -58 -33
-70 -11 -6 11 -26 27 -45 35 -19 8 -34 18 -34 23 0 12 25 21 56 21 30 0 62 15
87 41 10 11 27 19 38 19 15 0 28 18 53 70 18 38 36 78 39 90 6 23 5 23 46 9z
m-1224 -285 c10 -14 15 -14 32 -3 18 10 28 10 62 -1 23 -7 41 -20 41 -28 0 -8
-6 -12 -15 -8 -25 9 -74 -5 -68 -19 7 -19 -52 -47 -90 -43 -29 3 -32 7 -35 39
-3 30 2 41 24 58 32 25 34 25 49 5z m724 -36 c20 -11 43 -30 52 -41 20 -25 42
-14 33 16 -6 18 -1 16 24 -11 21 -22 28 -39 25 -53 -5 -17 -2 -20 13 -17 11 2
18 11 18 21 -1 9 11 25 27 34 16 10 29 21 29 25 0 4 4 8 9 8 5 0 4 -11 -2 -25
-7 -14 -20 -25 -29 -25 -20 0 -24 -15 -6 -26 6 -4 16 0 22 8 6 8 19 17 30 21
11 4 16 13 12 22 -3 9 0 15 9 15 9 0 38 12 65 26 34 18 56 23 72 19 55 -17 50
-27 -30 -66 -47 -22 -104 -62 -144 -98 -36 -34 -71 -61 -77 -61 -6 0 -39 16
-74 35 -35 19 -117 53 -182 76 -65 22 -126 46 -136 52 -28 18 -17 32 22 29 19
-1 52 7 74 17 53 26 100 26 144 -1z m1376 3 c63 -29 84 -59 96 -135 12 -73 -1
-129 -26 -120 -14 6 -20 -8 -30 -76 -11 -70 -14 -82 -20 -88 -3 -3 -36 10 -73
30 -37 20 -111 49 -164 64 -83 23 -98 31 -103 51 -3 13 -10 21 -16 18 -5 -4
-7 -14 -5 -23 3 -10 2 -30 -2 -45 -6 -23 -18 -33 -57 -47 -28 -10 -59 -21 -69
-26 -18 -7 -19 -4 -12 36 9 55 40 128 68 157 12 13 19 26 15 29 -12 12 -67
-63 -87 -121 -12 -33 -30 -78 -40 -100 -52 -116 -81 -204 -89 -275 -6 -51 -16
-89 -29 -107 -32 -46 -60 -106 -63 -138 -4 -36 -55 -96 -76 -88 -20 8 -99 121
-123 177 -23 54 -24 66 -10 66 6 0 10 -6 10 -14 0 -22 91 -108 141 -134 l44
-23 -29 23 c-54 42 -117 101 -127 121 -8 14 -7 23 5 35 8 10 19 30 25 45 6 15
19 30 28 34 10 4 21 11 24 16 4 6 19 5 39 -2 41 -14 93 -15 85 -1 -3 6 -19 10
-35 10 -37 0 -80 19 -80 36 0 7 9 18 21 24 16 9 19 17 14 42 -4 17 -3 40 2 52
27 58 37 96 41 154 2 34 8 62 13 62 5 0 9 4 9 9 0 16 -42 17 -98 3 -30 -7 -74
-12 -99 -10 l-46 3 72 45 c39 25 87 57 106 71 43 33 124 57 134 40 10 -16 82
10 131 49 67 53 125 72 223 76 49 1 91 5 95 8 13 14 129 5 167 -13z m-1973
-51 c19 0 20 -4 12 -57 -8 -65 -12 -99 -13 -126 -1 -13 -6 -17 -20 -12 -13 4
-20 0 -24 -16 -5 -19 -8 -20 -22 -9 -14 11 -12 15 15 31 30 19 40 52 19 64 -6
4 -8 13 -5 21 5 12 2 12 -16 3 -26 -14 -165 -6 -181 10 -8 8 -7 11 4 11 112 2
170 7 180 17 8 8 -6 9 -54 6 -38 -3 -72 -1 -83 5 -14 9 -15 12 -4 12 15 2 22
3 86 15 18 3 38 12 45 21 7 8 19 12 26 9 8 -3 24 -5 35 -5z m1099 -34 c11 -24
29 -52 40 -62 24 -22 24 -31 -1 -39 -11 -4 -34 -18 -51 -32 -49 -41 -110 -46
-189 -16 -36 14 -68 29 -73 32 -13 12 85 87 163 125 41 19 78 36 82 36 5 0 17
-20 29 -44z m-619 -40 c93 -36 188 -84 188 -96 0 -6 -12 -15 -26 -20 -15 -6
-40 -20 -56 -32 -17 -11 -44 -24 -62 -27 -21 -5 -31 -13 -31 -26 0 -10 -4 -20
-10 -22 -5 -1 -10 8 -10 22 0 14 3 25 8 25 4 0 7 7 7 15 0 8 -4 15 -10 15 -5
0 -13 0 -17 0 -5 0 -8 -8 -8 -17 0 -9 -5 -18 -11 -20 -8 -3 -10 12 -7 43 3 45
3 46 -22 42 -27 -6 -32 1 -14 19 12 12 5 33 -11 33 -4 0 -17 -17 -27 -37 -21
-43 -20 -78 4 -69 8 3 17 6 19 6 2 0 4 7 4 15 0 15 12 20 23 9 3 -3 -3 -14
-14 -25 -25 -25 -9 -64 22 -54 10 4 19 2 19 -2 0 -5 -25 -20 -56 -32 -32 -14
-81 -47 -115 -78 -32 -31 -59 -49 -59 -42 0 8 11 47 25 88 14 40 28 99 31 130
4 31 11 66 15 79 10 27 29 21 29 -9 0 -28 34 -21 38 9 2 12 10 22 18 22 10 0
15 8 14 23 -1 12 -2 25 -1 30 2 13 40 7 103 -17z m272 -183 c7 -49 0 -56 -56
-56 -31 0 -38 -3 -36 -16 4 -17 53 -18 74 0 6 5 13 6 17 3 10 -10 122 18 130
32 4 8 15 14 22 14 8 0 15 5 15 10 0 6 9 10 20 10 21 0 27 -15 10 -25 -6 -4
-8 -11 -5 -16 9 -13 -9 -11 -23 3 -9 9 -13 7 -18 -5 -3 -9 -12 -17 -20 -17 -8
0 -14 -5 -14 -11 0 -6 -9 -8 -20 -4 -17 5 -20 2 -20 -25 0 -18 -4 -29 -10 -25
-5 3 -10 15 -10 26 0 23 -25 26 -34 3 -10 -27 -7 -53 25 -177 42 -165 43 -167
32 -167 -10 0 -73 275 -73 316 0 26 -9 36 -24 26 -6 -4 -20 -7 -31 -7 -24 0
-31 -27 -12 -47 18 -17 34 -278 18 -278 -7 0 -11 43 -11 126 0 96 -3 125 -12
122 -9 -3 -14 -40 -16 -127 -2 -76 -6 -120 -12 -116 -7 4 -8 53 -4 131 5 81 4
124 -3 124 -6 0 -13 -50 -17 -117 -4 -65 -11 -122 -15 -126 -16 -16 0 -47 25
-47 33 0 44 -28 44 -117 0 -43 7 -121 14 -173 8 -52 13 -97 10 -101 -5 -8 33
-125 62 -194 31 -74 41 -132 33 -182 -4 -26 -8 -54 -8 -62 -2 -36 -12 3 -21
75 -8 76 -44 248 -60 289 -4 11 -7 -19 -6 -70 1 -98 -9 -126 -88 -244 -20 -29
-36 -56 -36 -59 0 -17 82 110 107 165 15 34 31 63 35 63 7 0 18 -46 20 -85 2
-29 -10 -88 -38 -184 -27 -95 -27 -94 -15 -87 5 4 12 23 16 44 3 20 15 53 25
72 l18 35 13 -27 c7 -16 16 -28 21 -28 4 0 8 -24 8 -53 0 -29 4 -57 9 -62 10
-11 23 -298 15 -320 -4 -11 -11 -12 -23 -5 -10 5 -35 15 -57 23 -21 8 -48 18
-59 22 -18 7 -18 6 -5 -8 8 -8 38 -23 65 -32 28 -9 58 -23 67 -32 16 -14 13
-19 -39 -67 -78 -72 -135 -101 -202 -101 l-54 0 -33 80 c-19 44 -40 94 -49
110 -25 50 -34 83 -45 152 -7 43 -19 76 -34 94 -35 42 -70 195 -63 275 7 73
18 100 56 131 14 12 21 22 14 23 -20 0 -72 -49 -75 -72 -5 -38 -25 -30 -37 14
-15 52 -11 143 6 143 20 0 25 12 27 63 1 40 -2 48 -14 45 -12 -3 -20 9 -30 48
-8 29 -23 60 -33 69 -13 13 -19 37 -22 91 -2 41 -7 100 -11 131 -9 79 9 134
64 201 61 73 196 171 294 214 17 7 28 20 28 32 0 11 3 26 6 35 4 10 1 16 -9
16 -8 0 -17 -12 -20 -28 -4 -22 -22 -37 -83 -72 -43 -25 -82 -47 -88 -49 -20
-7 -136 -103 -151 -124 -23 -33 -24 -17 -4 48 26 86 98 164 192 210 69 33 72
34 75 14 5 -30 36 -19 42 15 6 35 25 45 33 16 3 -13 13 -20 30 -20 14 0 29 -5
32 -10 7 -12 25 -4 25 11 0 5 -9 9 -19 9 -15 0 -40 29 -29 34 2 1 22 11 44 24
113 61 108 61 118 -5z m1076 -105 c89 -38 140 -67 140 -79 0 -12 -108 -331
-114 -337 -3 -3 -26 13 -51 34 -58 49 -129 91 -177 104 l-37 10 15 37 c9 20
17 71 19 112 2 51 10 91 24 122 l21 47 42 -9 c24 -5 77 -24 118 -41z m-857
-24 c29 -34 135 -104 156 -104 24 0 7 17 -65 64 -73 48 -95 74 -51 60 12 -3
33 -13 47 -21 14 -7 43 -24 65 -36 29 -16 41 -29 43 -50 2 -19 -1 -27 -12 -27
-9 0 -18 -13 -22 -35 -3 -19 -12 -35 -18 -35 -21 0 -216 202 -216 223 0 15 48
-11 73 -39z m-80 -26 c27 -45 75 -100 116 -133 26 -21 22 -8 -8 30 -8 11 2 4
24 -15 22 -19 44 -38 48 -41 12 -9 -4 -89 -18 -89 -25 0 -121 118 -158 192
-50 100 -52 137 -4 56z m708 -15 c0 -32 2 -69 4 -84 4 -31 -33 -107 -63 -127
-22 -14 -22 -14 -22 32 0 25 -4 46 -9 46 -14 0 -21 -40 -14 -86 6 -50 -23
-108 -60 -120 -44 -13 -85 -65 -108 -136 -20 -61 -29 -73 -77 -109 -29 -23
-56 -39 -59 -36 -6 6 42 83 78 122 16 19 29 46 32 72 3 23 21 68 42 101 27 44
39 77 45 124 4 34 13 77 19 93 28 75 51 97 51 50 0 -14 5 -25 10 -25 6 0 10 8
10 18 0 35 32 82 68 102 20 10 40 19 45 20 4 0 7 -26 8 -57z m31 -297 c32 -15
60 -31 63 -35 4 -8 -62 -101 -73 -101 -2 0 -19 12 -37 28 -19 15 -43 34 -54
42 -20 15 -20 15 6 58 14 24 28 41 32 39 3 -1 32 -15 63 -31z m-650 -61 c15
-97 80 -285 97 -285 4 0 -10 51 -30 113 -21 62 -40 130 -44 152 -5 32 3 21 43
-60 43 -88 102 -167 102 -138 0 6 -7 17 -17 24 -18 15 -98 178 -91 185 3 2 22
-22 42 -53 21 -32 56 -74 78 -94 l41 -36 -27 -45 c-20 -34 -40 -52 -74 -68
-26 -12 -64 -35 -84 -51 -20 -16 -39 -26 -41 -22 -2 5 -8 31 -11 58 -4 28 -14
77 -23 110 -39 153 -51 234 -36 249 4 4 21 6 38 4 27 -3 31 -7 37 -43z m-202
26 c0 -5 11 -12 24 -15 21 -5 26 -15 37 -78 7 -40 13 -80 14 -88 1 -8 8 -50
14 -93 7 -43 10 -85 7 -93 -9 -24 -36 -4 -37 30 -1 17 -5 45 -9 61 -7 23 -8
15 -7 -35 0 -49 -3 -66 -14 -68 -22 -4 -39 32 -55 115 -14 76 -19 254 -7 266
9 10 33 8 33 -2z m639 -286 c17 -20 31 -44 31 -54 0 -21 -32 -52 -76 -74 -45
-23 -144 -135 -179 -202 -27 -53 -62 -91 -74 -80 -2 3 6 19 18 36 31 42 16 52
-17 11 -38 -45 -45 -40 -17 13 32 59 14 68 -19 10 -15 -25 -34 -45 -43 -45
-14 0 -14 2 -1 18 23 27 43 101 31 113 -7 7 -12 -2 -17 -29 -8 -50 -40 -92
-72 -92 -33 0 -30 18 4 22 26 3 27 5 30 68 2 56 0 63 -12 48 -7 -10 -18 -18
-25 -18 -6 0 -11 -5 -11 -12 0 -9 -3 -9 -11 -1 -17 17 1 82 32 118 26 29 70
53 293 161 70 34 98 31 135 -11z m51 -106 c0 -6 8 -8 18 -5 17 6 18 -1 18 -76
0 -46 3 -128 8 -184 l9 -100 -37 -81 c-20 -44 -36 -86 -36 -92 0 -17 18 -13
30 7 9 13 10 3 6 -46 -7 -79 -14 -92 -75 -135 -46 -34 -82 -77 -63 -77 4 0 23
13 42 30 69 58 77 36 24 -70 -48 -96 -64 -158 -64 -257 0 -45 -4 -84 -9 -87
-4 -3 -14 -26 -21 -51 -13 -46 -30 -52 -30 -10 0 17 -10 29 -37 43 -34 17 -38
23 -35 54 2 29 -2 37 -24 47 -22 10 -25 16 -20 41 4 23 1 32 -15 41 -18 9 -20
18 -16 48 3 26 -1 43 -14 59 -14 18 -16 29 -9 48 13 34 12 70 -2 94 -10 15
-10 27 -1 51 8 21 9 39 2 56 -5 14 -7 40 -3 58 4 21 0 44 -11 65 -15 29 -15
38 -4 72 9 29 10 44 1 63 -21 45 -15 60 30 75 35 12 49 25 75 70 50 86 88 133
143 176 28 21 63 49 78 61 30 25 42 28 42 12z m-526 -64 c-12 -18 -15 -45 -12
-116 4 -94 7 -100 49 -113 14 -4 18 -26 24 -121 4 -64 6 -117 4 -119 -5 -5
-47 -9 -78 -7 l-23 1 6 118 c3 64 2 176 -2 247 -5 72 -7 133 -5 136 1 4 14 4
27 2 24 -5 24 -6 10 -28z m-59 16 c7 -13 14 -384 8 -433 -6 -41 -23 -49 -55
-24 -22 16 -23 65 -4 191 7 50 12 128 10 175 -1 47 0 88 3 93 6 10 31 9 38 -2z
m169 -273 c2 -7 9 -32 16 -55 10 -34 11 -51 1 -83 -9 -32 -9 -45 1 -62 8 -14
14 -69 16 -138 1 -63 4 -134 5 -157 1 -23 -1 -44 -3 -47 -3 -2 -23 -6 -45 -8
l-40 -3 -2 50 c-6 117 -15 195 -24 195 -5 0 -7 -27 -3 -65 6 -61 5 -65 -14
-65 -11 0 -27 -3 -36 -6 -14 -5 -16 6 -16 86 0 66 3 89 12 84 16 -10 90 -6
102 6 6 6 20 10 33 10 13 0 23 5 23 10 0 6 -9 10 -19 10 -11 0 -22 8 -25 18
-4 15 -10 204 -7 225 2 12 21 8 25 -5z m-58 -690 c6 -112 10 -151 15 -123 4
22 5 71 3 109 -4 55 -1 73 12 87 33 37 84 21 84 -26 0 -19 8 -39 20 -50 13
-12 18 -25 14 -41 -4 -17 1 -27 21 -40 20 -13 26 -23 22 -42 -5 -28 30 -72 59
-72 13 0 15 -6 9 -27 -8 -31 -8 -202 1 -273 4 -42 3 -46 -24 -61 l-29 -16 -7
81 c-3 44 -6 117 -7 161 0 44 -4 89 -9 100 -4 11 -7 -62 -6 -165 l1 -185 -25
3 c-52 5 -50 -4 -50 247 0 155 -3 234 -10 230 -6 -4 -10 -78 -10 -188 0 -121
-4 -177 -10 -167 -5 8 -10 88 -10 178 0 101 -4 162 -10 162 -10 0 -17 -163
-11 -262 6 -112 -49 -14 -73 130 -27 160 -50 402 -39 418 5 6 17 16 28 22 29
16 33 -1 41 -190z m-153 -33 c4 -25 20 -78 35 -118 16 -40 32 -98 35 -129 l6
-58 -50 -55 c-47 -50 -136 -105 -172 -105 -22 0 -63 68 -90 150 -22 67 -54
184 -60 218 -1 9 16 14 59 16 79 5 151 41 188 95 16 22 32 39 36 36 4 -2 10
-25 13 -50z"/>
</g>
</svg>
