<?xml version="1.0" standalone="no"?>
<!DOCTYPE svg PUBLIC "-//W3C//DTD SVG 20010904//EN"
 "http://www.w3.org/TR/2001/REC-SVG-20010904/DTD/svg10.dtd">
<svg version="1.0" xmlns="http://www.w3.org/2000/svg"
 width="549.000000pt" height="800.000000pt" viewBox="0 0 549.000000 800.000000"
 preserveAspectRatio="xMidYMid meet">
<metadata>
Created by potrace 1.16, written by Peter Selinger 2001-2019
</metadata>
<g transform="translate(0.000000,800.000000) scale(0.100000,-0.100000)"
fill="#01BF71" stroke="none">
<path d="M2152 7298 c3 -40 4 -78 1 -84 -5 -15 -41 -6 -72 18 -13 10 -40 18
-60 18 -21 0 -42 5 -48 11 -6 6 -16 8 -23 4 -17 -10 5 -32 61 -61 73 -37 77
-64 6 -42 -29 9 -68 8 -178 -6 -78 -10 -153 -22 -168 -27 -47 -18 -92 -53
-126 -101 -26 -36 -43 -49 -70 -54 l-36 -6 25 -27 c15 -16 26 -39 26 -55 0
-27 -1 -27 -47 -20 -27 3 -60 13 -75 21 -25 12 -28 12 -28 -4 0 -10 11 -35 25
-55 l24 -36 -22 6 c-12 3 -31 11 -42 19 -53 36 -78 -1 -35 -51 l30 -33 -36 -6
c-66 -11 -87 -47 -28 -47 31 0 35 -2 24 -15 -7 -8 -20 -30 -29 -48 -9 -18 -23
-31 -31 -29 -85 19 -109 19 -195 1 -49 -11 -106 -22 -125 -26 -19 -3 -42 -11
-50 -18 -8 -7 -37 -22 -65 -34 -63 -28 -82 -46 -90 -85 -16 -78 -14 -77 -117
-44 -37 12 -71 19 -75 15 -3 -4 7 -22 23 -40 16 -17 38 -43 49 -56 l20 -24
-33 17 c-24 12 -40 14 -65 8 l-32 -9 50 -24 c65 -31 73 -59 16 -59 -38 0 -111
-26 -111 -40 0 -3 31 -4 70 -2 108 6 160 -16 77 -33 -47 -10 -95 -43 -112 -76
-18 -34 -18 -34 21 -14 40 20 154 45 154 34 0 -5 -13 -15 -29 -23 -42 -22 -92
-67 -86 -77 4 -5 38 7 77 27 38 19 72 33 74 31 3 -2 -21 -19 -52 -38 -82 -50
-127 -90 -115 -102 8 -8 23 -4 50 11 21 12 41 22 45 22 16 0 2 -28 -30 -61
-43 -44 -38 -70 7 -38 17 12 32 20 34 18 6 -6 -81 -117 -181 -232 -111 -127
-138 -175 -131 -228 13 -95 82 -163 193 -189 32 -7 61 -15 63 -16 2 -2 -9 -18
-24 -36 -30 -35 -20 -48 18 -23 31 20 61 11 47 -15 -16 -31 -12 -33 21 -9 19
13 51 24 82 26 27 2 58 8 68 14 15 8 17 6 12 -7 -3 -10 -2 -15 3 -13 67 34 65
33 74 19 7 -12 12 -12 28 3 30 28 38 19 9 -10 -14 -16 -28 -40 -31 -54 -2 -15
-11 -40 -20 -57 -9 -17 -16 -42 -16 -56 0 -14 -6 -40 -14 -58 -12 -29 -28 -86
-43 -153 -2 -11 9 7 25 40 33 69 117 141 152 132 14 -3 20 0 20 10 0 11 -7 14
-25 11 -14 -3 -25 -4 -25 -3 0 3 30 68 41 88 5 10 7 22 4 27 -7 12 14 54 23
46 3 -3 18 21 34 54 l29 60 45 0 c42 0 44 -1 34 -20 -6 -12 -17 -61 -24 -110
-20 -132 -75 -207 -132 -181 -30 13 -47 14 -40 2 3 -4 -1 -17 -9 -27 -22 -29
-18 -40 7 -18 l22 19 -17 -25 c-21 -30 -22 -76 -2 -113 14 -28 12 -71 -7 -112
-5 -12 1 -8 16 10 14 17 26 40 26 51 0 24 15 39 48 47 19 4 22 2 16 -11 -4 -9
-8 -32 -9 -50 -1 -23 -13 -44 -40 -72 -22 -22 -34 -40 -28 -40 22 0 71 51 87
91 11 28 26 44 49 54 17 8 26 14 19 15 -7 0 -22 -5 -33 -10 -15 -8 -19 -7 -19
4 0 8 5 18 11 21 6 4 8 12 6 19 -3 7 4 23 14 37 10 13 19 27 19 31 0 14 50 80
50 67 0 -8 -7 -24 -15 -36 -20 -29 -36 -73 -27 -73 5 0 13 12 20 28 l12 27 -7
-30 c-3 -16 -7 -42 -8 -56 -2 -15 -15 -44 -29 -65 -14 -22 -22 -40 -16 -42 5
-2 10 -12 10 -22 0 -9 6 -22 13 -28 10 -9 12 -3 9 26 l-4 37 25 -33 c22 -29
24 -38 16 -74 -9 -39 -6 -58 8 -45 3 4 8 32 11 62 3 39 9 55 19 55 10 0 12 -6
8 -21 -5 -13 -2 -25 6 -29 10 -7 10 -21 2 -65 -8 -45 -7 -66 4 -99 19 -54 35
-70 83 -85 35 -10 40 -16 45 -49 11 -66 14 -68 11 -9 -1 31 -1 57 1 57 1 0 9
-15 17 -32 13 -31 14 -31 15 -8 0 14 -10 48 -24 75 -13 28 -25 56 -25 63 0 7
-12 15 -27 18 -27 5 -28 7 -31 83 -4 87 1 93 64 84 30 -5 30 -5 26 -63 -3 -36
0 -60 7 -64 6 -4 11 -16 11 -27 0 -24 69 -121 81 -114 10 7 39 -47 39 -73 0
-11 7 -23 16 -26 24 -9 27 -7 19 12 -4 9 -7 27 -6 40 0 12 -5 25 -13 28 -8 3
-12 13 -9 24 4 14 -2 22 -21 30 -14 5 -26 15 -26 21 0 6 -11 22 -25 35 -14 13
-25 34 -25 48 0 13 -5 26 -11 28 -14 5 -25 88 -11 88 6 0 24 -14 42 -31 23
-24 28 -34 20 -44 -6 -8 -10 -28 -8 -46 2 -25 11 -37 36 -51 24 -13 32 -14 32
-4 0 7 -11 18 -25 24 -25 12 -30 28 -19 70 4 15 12 21 21 17 12 -4 13 -1 7 12
-4 10 -10 44 -12 77 -3 44 -1 57 9 54 7 -2 16 -17 21 -33 4 -15 12 -31 17 -34
5 -4 11 -37 12 -74 1 -37 6 -70 10 -73 10 -6 5 -131 -6 -156 -4 -11 -3 -18 3
-18 6 0 17 28 26 63 l15 62 -5 -54 c-3 -30 -9 -62 -14 -72 -7 -12 -5 -19 5
-23 20 -7 19 -25 -2 -33 -56 -18 -124 -54 -129 -67 -3 -9 8 -36 26 -62 17 -25
28 -49 25 -52 -3 -4 -30 -22 -60 -42 -29 -19 -85 -59 -124 -89 -62 -47 -71
-58 -71 -85 1 -20 12 -44 31 -66 l30 -35 -23 -15 c-45 -30 -166 -140 -207
-188 -49 -60 -84 -133 -70 -147 5 -5 38 -19 72 -30 36 -12 63 -27 65 -36 2
-10 -19 -29 -55 -52 -76 -47 -189 -151 -261 -240 -99 -123 -210 -281 -242
-346 l-31 -62 18 -32 c25 -43 141 -101 258 -129 50 -12 95 -28 101 -37 6 -8
30 -51 53 -95 60 -119 294 -395 366 -433 46 -25 152 -12 260 31 109 43 154 66
270 137 50 31 161 93 248 137 87 45 186 101 220 124 83 56 162 137 171 173 3
17 9 112 13 213 l6 182 73 0 c40 0 85 -5 99 -12 15 -6 40 -38 62 -77 54 -98
68 -122 91 -161 12 -19 41 -79 66 -133 l46 -98 -49 -45 c-68 -63 -173 -225
-194 -299 -54 -197 -77 -287 -87 -340 -24 -145 -65 -314 -79 -328 -7 -7 -36
-5 -98 6 -48 9 -119 16 -158 16 -69 -1 -163 -26 -148 -39 4 -4 44 -12 88 -19
44 -7 100 -24 125 -37 l45 -24 -40 4 c-22 2 -58 11 -80 19 -22 9 -71 16 -110
17 -69 0 -69 0 -50 -20 11 -11 45 -24 74 -30 30 -6 66 -18 80 -27 l26 -17 -50
-15 c-103 -33 -124 -65 -35 -54 28 3 50 2 50 -3 0 -5 -34 -34 -75 -64 -41 -30
-71 -58 -67 -62 14 -14 151 28 190 59 20 16 43 33 49 37 19 11 16 -10 -4 -29
-12 -13 -13 -19 -4 -25 18 -10 -44 -118 -75 -132 -27 -13 -32 -28 -8 -28 24 0
146 66 182 100 30 27 109 57 197 74 26 5 28 4 11 -7 -10 -6 -57 -42 -105 -78
-47 -36 -100 -74 -118 -84 -52 -31 -56 -67 -6 -57 23 4 24 6 9 12 -14 5 -4 13
45 40 35 18 77 42 93 53 16 11 39 21 50 22 12 2 20 7 19 13 -3 13 114 85 126
78 5 -3 24 0 42 7 19 7 54 12 79 11 25 -1 55 3 68 9 17 8 25 8 30 -1 9 -13 35
-14 215 -4 126 6 165 2 118 -13 -10 -3 -26 -14 -36 -25 -18 -19 -17 -20 11
-20 27 0 29 -3 29 -39 0 -22 -8 -48 -16 -58 -9 -10 -15 -23 -12 -29 2 -7 -10
-25 -27 -42 -19 -19 -26 -33 -19 -37 9 -6 93 25 149 54 20 10 67 95 81 146 13
46 32 71 73 92 23 12 28 12 24 2 -16 -43 -30 -119 -25 -132 3 -9 26 -26 51
-39 31 -16 56 -39 78 -75 18 -28 66 -82 107 -120 87 -79 78 -50 -14 47 -33 36
-73 84 -88 108 -20 30 -42 49 -73 62 -49 22 -54 36 -29 97 8 21 17 52 19 68 6
51 37 133 57 151 10 9 35 18 56 19 27 2 43 10 60 31 12 16 23 35 23 42 0 6 5
12 11 12 7 0 9 -11 4 -33 -25 -121 -15 -171 43 -201 23 -12 32 -31 60 -118 17
-57 32 -113 32 -124 0 -29 29 -124 38 -124 17 0 -31 207 -75 327 -4 9 9 8 43
-4 31 -10 65 -33 94 -63 29 -31 57 -49 79 -54 l34 -6 -8 62 c-5 35 -8 98 -7
141 l2 78 -35 21 c-28 16 -33 23 -24 34 18 22 44 16 95 -22 l47 -36 -6 46
c-13 96 -56 133 -142 124 -49 -6 -53 -3 -30 22 9 9 22 48 31 86 9 38 18 80 21
94 10 41 -19 10 -50 -54 -15 -30 -36 -57 -47 -61 -12 -4 -44 5 -84 24 -35 17
-71 31 -79 31 -18 0 -42 27 -42 49 0 9 -9 20 -20 25 -15 6 -20 19 -22 52 -1
43 -27 93 -64 124 -10 8 -25 44 -34 78 -26 104 -80 243 -119 307 -53 87 -53
94 -11 198 21 51 42 97 46 103 34 43 66 209 76 382 l6 122 47 34 47 34 5 93 4
92 56 51 c73 66 79 79 71 161 -5 55 -15 83 -56 156 -58 104 -66 136 -67 247 0
78 1 82 23 82 45 0 50 11 42 101 -10 123 -31 183 -85 239 -25 26 -72 61 -105
78 -66 33 -96 60 -97 88 0 11 16 68 36 128 48 142 56 182 43 195 -14 14 -118
14 -177 0 -42 -10 -46 -9 -60 13 -39 61 -178 172 -230 183 -19 3 -48 11 -65
15 -16 5 -42 12 -56 15 -18 3 -42 26 -74 70 -47 63 -48 68 -46 128 2 40 9 72
21 92 46 71 46 72 17 129 -28 55 -34 107 -17 150 8 23 15 26 60 26 158 0 401
49 570 114 52 21 119 44 147 52 29 8 74 24 100 35 27 12 127 48 223 81 96 33
189 67 205 76 17 8 54 21 83 28 52 12 53 12 37 -6 -23 -26 -3 -34 36 -15 38
20 34 12 -34 -70 -50 -59 -71 -84 -121 -137 -36 -40 -13 -34 63 15 36 24 76
49 87 55 21 11 22 11 11 -31 -5 -23 -17 -50 -25 -60 -8 -9 -13 -20 -10 -22 3
-3 17 8 32 25 21 26 27 29 32 16 3 -9 4 -30 2 -46 -4 -26 -2 -29 21 -26 38 5
100 42 149 89 l42 41 0 -34 c0 -30 -7 -41 -45 -70 -43 -34 -63 -60 -46 -60 17
0 121 91 121 106 0 32 32 74 74 99 73 43 79 54 79 148 0 75 -3 87 -37 148 -20
37 -36 80 -36 97 0 17 -6 33 -12 35 -17 7 10 27 37 27 30 1 54 17 149 98 79
68 119 119 128 166 1 10 22 37 44 60 23 22 64 72 93 110 76 102 79 161 9 183
-37 11 -111 -3 -175 -33 -44 -22 -130 -99 -149 -135 -8 -17 -35 -39 -64 -54
-68 -34 -130 -95 -130 -128 0 -30 -41 -82 -81 -102 -15 -8 -30 -15 -34 -15
-12 0 -3 23 20 55 36 46 38 87 5 95 -16 4 -25 13 -25 25 -1 11 -8 43 -17 70
-9 28 -22 94 -29 148 -6 53 -15 97 -20 97 -5 0 -9 -4 -9 -8 0 -5 -13 -29 -30
-53 -16 -24 -32 -63 -36 -86 -8 -51 -20 -55 -29 -10 -9 43 -44 117 -56 117 -9
0 -12 -86 -10 -267 0 -58 -4 -62 -40 -35 -26 19 -144 73 -196 90 -30 9 -33 8
-33 -10 0 -15 -4 -18 -17 -13 -58 24 -73 28 -79 22 -7 -7 95 -137 108 -137 4
0 8 -5 8 -11 0 -15 21 -31 100 -75 36 -20 74 -45 85 -54 11 -10 34 -24 50 -31
17 -8 29 -19 28 -24 -2 -15 -134 -57 -338 -110 -99 -26 -206 -60 -238 -75 -63
-31 -70 -33 -356 -81 -185 -31 -199 -32 -290 -21 -116 15 -220 15 -281 1 -51
-11 -203 -56 -238 -70 -19 -7 -37 -3 -85 22 -79 40 -81 42 -28 38 25 -2 46 1
48 7 4 13 -59 44 -91 44 -12 0 -46 7 -75 16 l-52 15 6 67 c14 144 23 200 39
223 14 22 14 29 0 74 -14 46 -13 131 3 171 7 19 97 7 137 -17 42 -26 46 -24
46 16 0 34 2 35 38 37 20 0 54 0 75 0 20 -1 37 2 37 7 0 16 -56 51 -82 51
l-23 0 24 19 c31 24 19 45 -20 37 -27 -5 -29 -3 -29 23 0 16 7 34 15 41 21 17
19 33 -8 58 -34 33 -54 28 -65 -15 l-9 -38 -7 30 c-3 17 -11 51 -17 77 -6 26
-8 66 -4 88 4 27 3 40 -4 40 -15 0 -51 -60 -51 -85 l-1 -20 -15 20 c-8 11 -22
19 -30 17 -12 -3 -13 1 -5 17 16 29 14 61 -4 61 -9 0 -29 -7 -46 -16 -28 -14
-31 -14 -49 8 -11 13 -29 41 -40 63 -23 46 -83 115 -101 115 -9 0 -10 -20 -7
-72z m97 -65 c11 -23 25 -44 31 -48 5 -3 10 -21 10 -38 1 -27 3 -30 13 -17 7
8 29 23 51 33 37 17 38 17 31 0 -4 -10 -10 -31 -13 -46 -4 -25 -2 -27 20 -22
19 5 27 1 36 -19 6 -14 16 -26 22 -26 8 0 8 -6 0 -20 -9 -17 -14 -18 -30 -7
-11 6 -20 18 -20 25 0 8 -9 16 -21 19 -12 4 -22 17 -26 34 -3 16 -8 29 -11 29
-10 0 -42 -33 -42 -43 0 -15 -41 -57 -56 -57 -18 0 -27 -35 -20 -78 4 -20 2
-53 -4 -72 -15 -51 5 -64 37 -23 l25 33 19 -36 c10 -20 16 -41 13 -48 -10 -25
-168 -46 -189 -24 -9 8 -35 0 -56 -19 -13 -10 -26 -11 -58 -4 -39 8 -47 7 -87
-21 -28 -19 -64 -32 -99 -37 -30 -4 -64 -16 -75 -26 -25 -23 -105 -26 -142 -6
-16 9 -28 18 -28 22 0 3 29 21 65 38 35 18 67 36 70 41 12 20 -27 9 -94 -25
-60 -30 -71 -32 -81 -20 -10 13 -7 16 19 21 17 4 31 11 31 16 0 9 -130 1 -140
-9 -3 -2 4 -12 15 -20 19 -15 18 -15 -12 -9 -18 3 -33 1 -33 -3 0 -5 15 -24
33 -43 32 -32 32 -32 3 -14 -28 18 -29 18 -55 -2 -27 -20 -30 -36 -18 -84 6
-24 4 -28 -14 -28 -18 0 -19 2 -9 15 20 24 4 48 -28 43 -15 -3 -35 -9 -44 -13
-39 -16 -16 22 39 65 42 33 53 46 40 48 -9 2 -17 7 -17 11 0 4 -16 26 -36 49
-36 42 -35 54 1 28 11 -7 39 -17 63 -21 33 -5 42 -4 42 8 0 8 -7 20 -16 27 -8
8 -19 21 -24 30 -8 16 -4 17 38 12 26 -2 52 -9 59 -14 12 -10 24 -6 55 21 25
22 22 37 -12 63 -16 12 -30 25 -30 29 0 4 35 6 78 4 42 -2 83 0 91 4 8 6 21 5
30 -1 20 -12 86 21 86 43 0 8 12 25 28 37 16 14 27 34 27 49 l0 24 29 -20 c32
-23 51 -27 51 -10 0 6 6 9 14 6 8 -3 17 -1 19 6 3 9 8 9 18 0 22 -21 41 -16
34 10 l-6 22 17 -22 c22 -30 34 -29 34 2 0 18 5 25 19 25 40 0 33 62 -9 75
-11 3 -20 10 -20 15 0 11 29 2 50 -15 8 -7 30 -15 48 -18 28 -6 34 -3 42 17 5
13 6 50 4 83 l-6 58 31 -35 c17 -19 39 -54 50 -77z m3004 -298 c22 -29 -24
-110 -135 -237 -32 -36 -58 -71 -58 -77 0 -20 -46 -85 -86 -121 -77 -70 -147
-120 -168 -121 -11 0 -34 -9 -51 -19 -61 -39 -110 -60 -113 -50 -2 5 -11 10
-21 10 -9 0 -26 7 -37 14 -20 15 -20 17 -6 85 14 66 17 70 55 87 45 21 84 67
98 118 10 35 36 60 128 119 19 12 49 42 66 67 41 60 125 116 205 139 65 18
101 14 123 -14z m-2937 -180 c10 -8 27 -15 37 -15 20 0 22 -20 7 -70 -8 -27
-7 -50 6 -98 15 -56 15 -64 2 -80 -9 -9 -18 -42 -21 -72 -26 -246 -33 -263
-109 -268 -39 -3 -64 7 -187 69 -148 75 -207 124 -198 160 3 11 1 17 -4 13 -5
-3 -9 -17 -9 -31 0 -34 58 -88 136 -128 32 -16 77 -41 100 -56 23 -14 61 -31
84 -39 38 -12 41 -16 35 -39 -20 -76 -17 -99 16 -158 30 -54 32 -65 34 -163 1
-70 8 -124 20 -163 25 -78 14 -87 -55 -45 -29 18 -66 45 -83 61 -35 32 -68 41
-200 58 -85 11 -98 15 -102 33 -2 12 -7 109 -9 217 -5 190 -6 199 -35 275 -17
44 -42 97 -56 119 -84 138 -85 152 -28 225 23 30 43 62 43 71 0 26 27 42 84
50 29 4 72 19 94 33 44 28 100 34 120 14 9 -9 16 -7 32 10 21 22 36 23 125 7
11 -2 36 2 55 10 47 17 44 17 66 0z m1852 -40 c12 -3 22 -10 22 -14 0 -18 146
-200 206 -258 35 -34 64 -64 64 -68 0 -14 -59 30 -69 52 -6 13 -19 23 -30 23
-11 0 -28 9 -38 19 -18 19 -53 41 -125 81 -21 11 -38 23 -38 26 0 9 44 -8 73
-28 15 -11 27 -15 27 -9 0 16 -72 55 -99 54 -20 -1 -38 12 -79 63 -29 35 -50
64 -47 64 3 0 23 -9 45 -20 53 -27 64 -25 43 6 -19 29 -23 29 45 9z m-2458
-93 c0 -4 -24 -37 -52 -74 -104 -130 -220 -306 -208 -313 5 -3 32 24 61 59 52
65 101 98 120 79 15 -15 1 -39 -38 -69 -19 -15 -47 -45 -62 -68 -76 -119 -144
-171 -241 -183 -40 -5 -51 -2 -69 16 -11 11 -29 21 -40 21 -10 0 -21 9 -24 20
-3 13 -17 22 -36 26 -18 4 -36 15 -42 26 -9 16 -5 21 30 36 27 12 41 25 45 42
8 40 73 107 144 149 37 22 84 53 106 70 21 17 42 31 46 31 5 0 31 18 58 39 54
43 182 112 195 104 4 -2 7 -7 7 -11z m-531 -51 c11 -1 8 -7 -8 -22 -32 -30
-24 -54 19 -54 28 0 35 4 33 19 -1 11 5 25 12 33 16 15 59 18 50 3 -3 -5 1
-10 10 -10 9 0 38 -7 65 -16 47 -15 49 -17 35 -37 -17 -25 -65 -57 -85 -57 -8
0 -22 5 -30 10 -13 8 -12 11 5 24 33 24 10 29 -37 8 -47 -21 -73 -46 -64 -61
7 -11 -62 -45 -113 -56 -23 -5 -37 -2 -57 14 -24 19 -54 19 -54 0 0 -4 6 -6
14 -3 11 4 14 -1 12 -23 -3 -25 -7 -28 -42 -30 -36 -2 -37 -2 -14 8 15 7 20
13 13 16 -7 3 -13 13 -13 22 0 10 -9 26 -20 36 -23 21 -26 9 -5 -19 17 -23 19
-36 5 -36 -5 0 -10 7 -10 15 0 8 -4 15 -10 15 -14 0 -13 -23 1 -37 9 -9 7 -10
-10 -6 -11 3 -21 12 -21 19 0 8 -4 14 -10 14 -5 0 -10 -4 -10 -8 0 -4 -28 -7
-62 -6 -81 2 -81 2 -72 16 5 7 7 24 6 38 -1 20 6 29 40 44 22 10 43 26 45 36
5 17 81 64 98 59 6 -1 21 2 35 8 37 16 139 31 190 27 25 -1 51 -3 59 -3z
m3216 -189 c-15 -14 -161 -69 -257 -97 -56 -17 -105 -40 -140 -65 -114 -84
-130 -93 -190 -106 -82 -17 -77 -18 -89 12 l-10 27 -81 -7 c-45 -4 -80 -5 -77
-2 2 3 46 11 96 19 56 9 122 29 170 50 43 19 103 40 133 47 89 20 362 97 400
114 40 17 59 21 45 8z m50 -49 c-13 -63 -17 -73 -31 -73 -35 0 -98 -45 -191
-137 -55 -54 -105 -112 -113 -129 -12 -27 -24 -35 -84 -53 -39 -12 -116 -39
-171 -60 -55 -21 -127 -48 -160 -59 -33 -11 -98 -34 -145 -52 -47 -17 -132
-42 -189 -56 -128 -30 -399 -58 -418 -43 -22 19 -60 93 -68 134 -8 47 -25 81
-58 116 -14 14 -27 34 -29 45 -2 10 -20 28 -41 40 l-39 21 74 17 c179 41 299
44 371 10 31 -15 39 -15 83 -1 48 15 132 35 244 56 30 6 92 14 138 17 78 7 82
6 82 -13 0 -29 37 -36 107 -19 72 16 122 43 196 105 48 40 74 53 165 79 59 18
139 45 177 61 73 30 106 28 100 -6z m44 -9 c-6 -8 -9 -20 -6 -28 3 -8 -1 -17
-8 -20 -8 -3 -12 -12 -9 -20 3 -8 1 -17 -5 -21 -6 -3 -11 -19 -11 -35 0 -20
-7 -33 -22 -41 -13 -7 -61 -41 -107 -77 -47 -35 -96 -68 -110 -73 -15 -5 -39
-16 -56 -24 -16 -7 -31 -12 -34 -10 -5 6 57 80 101 122 117 110 175 149 208
138 11 -4 20 -3 21 2 8 83 18 113 34 106 12 -4 13 -9 4 -19z m-3783 -54 c17 0
22 4 18 15 -7 17 -1 18 45 9 22 -5 31 -12 31 -26 0 -12 12 -24 35 -34 19 -8
35 -19 35 -25 0 -5 -5 -7 -10 -4 -22 14 -208 36 -215 25 -5 -8 27 -46 50 -58
l20 -11 -20 0 c-22 0 -65 31 -65 48 0 10 -13 15 -32 12 -4 0 -12 8 -18 19 -6
11 -23 26 -38 34 -16 9 -21 15 -11 16 8 0 24 -7 35 -15 35 -27 71 -16 42 13
-9 9 1 8 31 -3 24 -8 54 -15 67 -15z m3970 -80 c13 0 24 -4 24 -9 0 -5 12 -11
28 -13 26 -3 30 -12 21 -47 -2 -8 5 -17 16 -20 48 -14 65 -34 63 -76 -1 -37
-2 -37 -5 -7 -3 20 -10 32 -19 32 -9 0 -14 -7 -13 -17 4 -23 -10 -63 -21 -63
-4 0 -10 -7 -14 -15 -8 -22 10 -18 33 6 10 11 21 16 24 11 4 -5 -14 -21 -39
-37 -25 -16 -53 -39 -63 -51 -15 -19 -19 -20 -36 -8 -18 14 -18 15 7 41 30 33
58 74 58 85 0 19 -18 6 -31 -23 -8 -17 -48 -68 -89 -114 -64 -71 -88 -92 -132
-113 -24 -11 -2 26 37 64 30 29 45 52 45 69 0 25 14 34 25 15 21 -33 57 12 68
85 l6 40 -24 -27 c-23 -27 -70 -50 -130 -63 l-29 -6 44 48 c25 27 63 71 85 98
l39 49 13 -30 c6 -16 12 -44 13 -61 0 -37 15 -44 25 -13 3 11 13 20 21 20 11
0 14 9 12 33 -2 17 -7 31 -13 29 -5 -2 -9 -12 -8 -23 4 -28 -16 -23 -30 9 -22
50 -26 51 -108 2 -43 -26 -87 -46 -100 -45 -13 1 -37 -4 -54 -12 l-30 -14 33
30 c34 33 31 38 -14 21 -52 -20 -37 0 19 24 32 15 83 51 119 85 l63 60 18 -25
c11 -14 29 -24 43 -24z m-3011 -57 c9 -22 25 -169 30 -278 2 -44 6 -92 9 -107
4 -20 1 -28 -9 -28 -10 0 -15 -10 -15 -30 0 -21 5 -30 16 -30 31 0 7 -25 -27
-28 -30 -2 -37 1 -47 23 -6 14 -16 25 -22 25 -14 0 -3 -67 16 -97 16 -26 18
-59 4 -68 -5 -3 -27 6 -50 20 -40 25 -40 25 -42 93 -1 37 -1 78 0 91 1 22 -6
53 -40 168 -18 64 8 136 75 207 54 58 89 71 102 39z m639 -63 c57 -54 70 -59
97 -34 19 17 49 13 49 -7 0 -8 -4 -8 -15 1 -13 11 -17 8 -26 -19 -6 -17 -18
-31 -26 -31 -8 0 -38 23 -67 50 -29 28 -55 50 -57 50 -9 0 -1 -106 9 -131 5
-14 26 -42 46 -62 20 -21 36 -45 36 -55 0 -32 17 -43 91 -58 87 -18 113 -35
45 -29 -26 3 -51 7 -56 10 -14 9 -39 -30 -45 -71 -6 -36 -3 -44 29 -83 52 -62
57 -73 63 -151 6 -71 16 -83 26 -31 4 17 27 62 53 100 64 97 98 108 76 26 -7
-25 -12 -73 -12 -108 0 -34 -5 -79 -11 -101 -17 -62 -4 -98 64 -179 35 -40 69
-88 76 -105 16 -39 29 -41 37 -4 18 80 26 100 46 119 13 11 32 23 44 25 19 5
18 1 -11 -48 -18 -29 -38 -68 -44 -86 -50 -134 -89 -190 -119 -172 -32 20 -72
91 -87 155 -9 35 -25 92 -35 127 -19 59 -19 67 -5 145 8 45 17 92 21 105 11
37 -4 25 -25 -22 -10 -24 -31 -52 -45 -61 -17 -11 -27 -29 -31 -53 -8 -49 -49
-135 -87 -183 -32 -39 -32 -69 -2 -69 16 0 16 -1 0 -19 -15 -17 -16 -20 -1
-35 9 -8 33 -20 53 -26 46 -12 68 -28 76 -56 5 -17 0 -26 -27 -43 -31 -19 -49
-21 -189 -21 -128 0 -158 3 -168 15 -10 12 -10 19 -2 27 14 14 16 54 3 63 -5
3 -12 18 -16 34 -3 16 -18 42 -31 56 -18 20 -22 31 -15 38 8 8 14 8 23 -1 17
-17 188 -11 188 7 0 4 -37 19 -82 34 -121 40 -170 67 -194 107 -24 39 -52 70
-76 85 -13 9 -14 20 -5 81 9 62 8 77 -11 133 -22 65 -19 94 12 120 9 7 16 20
16 27 0 10 8 13 23 10 12 -3 39 -8 60 -11 20 -3 52 -18 70 -34 51 -43 132 -91
155 -91 29 0 34 27 16 85 -9 29 -17 96 -19 160 -3 104 -4 113 -36 165 -18 30
-32 69 -33 86 0 40 23 94 41 94 8 0 38 -22 67 -50z m879 29 c29 -8 58 -6 123
6 97 18 125 15 37 -4 -32 -7 -81 -20 -110 -28 -47 -15 -54 -15 -76 0 -34 22
-115 28 -222 16 -95 -10 -242 -44 -261 -60 -13 -10 -44 -2 -44 12 0 5 8 9 18
9 9 0 46 10 82 21 124 39 190 49 305 44 61 -3 127 -10 148 -16z m-2039 -18 c3
-4 19 -11 36 -14 27 -6 29 -9 23 -37 -3 -17 -1 -41 5 -53 18 -38 25 -62 22
-72 -18 -66 -19 -80 -3 -92 9 -7 26 -13 37 -12 20 0 20 0 -1 16 -16 11 -23 25
-22 47 l1 31 9 -32 c5 -18 14 -33 19 -33 12 0 36 -37 45 -70 5 -19 4 -21 -4
-10 -16 23 -13 -3 5 -50 9 -22 20 -40 25 -40 5 0 2 14 -6 31 -25 48 -10 46 19
-3 25 -43 76 -153 76 -165 0 -3 -8 2 -19 11 -10 9 -47 21 -81 27 -77 12 -98
23 -110 55 -13 33 -34 39 -79 24 -23 -7 -48 -9 -62 -4 -20 7 -16 9 31 17 81
13 130 9 168 -15 26 -16 36 -18 45 -8 9 9 8 15 -7 24 -11 6 -33 23 -50 37 -25
22 -28 29 -18 41 10 13 6 19 -25 39 -33 21 -48 24 -111 21 l-74 -3 -16 -39
c-10 -22 -20 -40 -23 -40 -10 0 7 78 20 94 16 19 140 78 151 71 5 -3 11 -1 15
5 3 5 1 10 -4 10 -6 0 -10 10 -8 22 1 17 -4 24 -21 26 -18 3 -21 8 -16 27 3
14 -1 34 -11 49 -10 14 -13 26 -9 26 5 0 0 7 -11 16 -17 13 -18 16 -5 24 19
12 37 13 44 1z m-114 -14 c0 -2 -7 -18 -16 -36 -22 -44 -9 -56 45 -41 51 13
62 8 55 -29 -5 -23 -2 -29 15 -34 12 -3 21 -12 21 -21 0 -16 -48 -46 -72 -46
-7 0 -31 -15 -53 -32 -22 -18 -48 -31 -59 -30 -31 4 -102 -73 -115 -125 -7
-23 -9 -54 -5 -67 7 -31 -21 -81 -72 -125 -19 -17 -49 -47 -66 -67 l-33 -37
30 16 c51 27 131 113 151 161 19 47 31 54 63 36 13 -7 27 -3 54 15 44 30 68
32 85 5 15 -24 52 -26 92 -5 27 14 29 13 35 -4 7 -22 70 -48 151 -61 44 -7 63
-16 81 -37 18 -23 24 -25 32 -14 11 18 -13 84 -70 190 -22 40 -38 75 -37 76 2
2 20 5 41 6 44 4 57 -9 57 -59 0 -62 51 -131 142 -193 28 -20 59 -108 56 -166
0 -22 6 -54 15 -72 13 -27 15 -51 10 -122 -3 -49 -10 -89 -15 -89 -12 0 -192
125 -208 146 -8 8 -33 29 -57 45 -39 27 -47 29 -80 20 -21 -6 -96 -15 -168
-21 -126 -10 -164 -15 -328 -46 -111 -20 -175 -18 -279 12 -106 29 -134 42
-167 78 -33 35 -31 68 9 151 27 57 58 96 165 205 122 125 172 189 159 203 -11
11 77 88 108 94 27 5 29 8 15 18 -15 11 -14 14 6 32 27 24 87 55 87 44 0 -16
56 -9 80 10 23 17 40 24 40 16z m846 -392 c5 -12 15 -14 40 -9 29 5 33 4 28
-10 -3 -9 -10 -16 -14 -16 -4 0 -13 -14 -20 -30 -10 -24 -10 -41 0 -83 16 -63
17 -179 2 -210 -26 -53 -44 -131 -39 -168 l5 -39 -36 27 c-21 16 -59 39 -85
52 -73 37 -97 74 -106 168 -5 43 -14 90 -19 105 -9 21 -8 29 4 38 18 16 18 59
-1 84 -22 29 -19 31 29 31 32 0 52 7 68 22 48 45 133 67 144 38z m971 -290
c27 -19 21 -43 -28 -115 -20 -30 -43 -67 -50 -83 l-12 -28 -34 36 c-22 23 -33
45 -33 64 0 37 59 123 91 132 37 11 43 10 66 -6z m-1113 -292 c25 -133 70
-217 141 -258 22 -13 78 -35 125 -49 47 -13 101 -32 120 -42 26 -13 75 -20
205 -26 122 -6 174 -13 184 -23 27 -27 -58 -40 -229 -37 -254 5 -281 12 -419
100 -118 74 -200 213 -186 312 2 14 4 54 4 90 2 65 2 65 20 43 11 -13 26 -60
35 -110z m1251 -4 c31 -46 75 -134 75 -150 0 -8 -85 -6 -154 5 -10 1 -38 -1
-63 -4 -38 -6 -43 -5 -37 9 4 9 19 49 34 89 16 40 40 89 55 108 l27 36 17 -25
c9 -13 29 -44 46 -68z m-1757 -215 c2 -39 0 -45 -9 -31 -6 10 -8 29 -5 43 4
14 2 24 -4 24 -19 0 -11 -75 10 -98 25 -27 30 -27 28 -4 -4 50 5 51 21 2 13
-37 15 -59 9 -67 -6 -7 -7 -24 -4 -37 7 -27 -1 -56 -15 -56 -6 0 -5 9 1 20 7
12 7 20 1 20 -5 0 -7 15 -4 34 7 44 -13 58 -39 26 -25 -31 -20 -65 10 -64 18
0 21 -3 16 -19 -3 -11 -1 -23 6 -27 12 -8 5 -50 -8 -50 -4 0 -20 27 -36 61
-27 57 -29 65 -23 153 3 51 9 100 13 110 12 31 29 10 32 -40z m1686 50 c9 -3
13 -10 10 -16 -7 -12 94 -328 111 -346 10 -12 20 -6 54 30 42 44 49 66 30 85
-8 8 -3 19 21 41 37 32 34 58 -6 48 -32 -8 -74 37 -74 80 0 19 -6 34 -15 38
-24 9 -18 29 8 23 12 -3 55 -7 95 -8 l72 -2 -6 -47 c-5 -40 -2 -55 25 -104 17
-32 36 -85 43 -118 13 -61 30 -80 51 -59 6 6 30 11 54 11 49 0 56 17 26 60
-36 51 -60 118 -67 186 -6 67 -6 68 11 46 60 -78 53 -74 111 -61 49 10 147 7
159 -5 5 -5 -33 -146 -43 -155 -3 -3 -4 3 -1 14 3 11 9 40 12 65 6 36 5 43 -6
33 -10 -10 -16 -6 -31 17 -10 17 -24 30 -32 30 -18 0 -118 -38 -129 -50 -10
-9 21 -74 80 -173 3 -4 15 -1 28 7 12 8 32 12 43 9 20 -5 20 -7 7 -34 -26 -50
-19 -78 32 -127 l47 -45 -53 29 c-38 21 -54 36 -58 57 -3 15 -9 30 -14 32 -15
10 -139 17 -138 9 0 -5 19 -23 42 -39 23 -17 48 -44 56 -60 7 -17 26 -43 41
-60 15 -16 32 -39 38 -50 11 -20 11 -20 12 1 0 12 -9 33 -20 47 -39 49 -24 60
31 21 60 -44 115 -113 124 -157 12 -55 57 -147 73 -147 12 0 14 11 10 55 -3
31 -1 58 4 61 15 9 -39 98 -92 152 -60 59 -57 65 10 22 85 -55 130 -152 130
-280 l0 -59 -253 3 c-139 1 -258 5 -263 9 -6 3 -43 9 -83 13 l-73 6 42 -78
c23 -44 59 -102 80 -130 54 -72 68 -111 84 -235 8 -60 17 -113 21 -118 3 -6
27 -7 55 -4 28 3 50 3 50 -1 0 -17 -34 -56 -48 -56 -9 0 -55 18 -102 41 -69
33 -91 50 -118 88 -18 25 -45 64 -61 86 -15 22 -37 63 -49 92 -21 49 -21 55
-8 130 27 149 28 163 10 170 -9 3 -32 -2 -51 -11 -20 -9 -37 -16 -38 -14 -1 2
-5 22 -8 45 -4 36 -1 45 22 67 l27 26 33 -45 c30 -42 51 -57 51 -36 0 5 -20
31 -44 57 -36 40 -46 46 -58 36 -12 -10 -17 -7 -26 14 -15 31 -16 88 -2 79 6
-3 7 1 4 9 -3 9 -10 16 -14 16 -16 0 -20 -35 -12 -107 6 -49 5 -74 -2 -76 -6
-3 -17 -26 -25 -53 -8 -27 -20 -61 -28 -77 -12 -24 -12 -28 2 -33 9 -4 25 2
38 14 20 18 99 62 112 62 14 0 -19 -194 -37 -217 -12 -16 -102 -60 -147 -73
l-34 -9 7 142 c3 78 11 213 17 301 7 101 7 162 1 168 -9 9 -4 52 13 121 5 17
3 27 -4 27 -6 0 -11 -8 -11 -18 0 -47 -90 -141 -210 -220 -30 -19 -73 -50 -95
-67 -43 -33 -189 -125 -199 -125 -3 0 -48 -23 -99 -52 -60 -34 -129 -86 -199
-150 -69 -63 -130 -109 -175 -132 -38 -19 -75 -42 -83 -51 -15 -17 -175 -115
-189 -115 -5 0 -24 -14 -42 -32 -24 -22 -42 -31 -61 -29 -14 1 -40 -5 -57 -13
-61 -32 -71 -12 -13 27 20 14 57 40 82 57 62 42 279 259 352 350 79 99 151
160 249 211 53 28 92 56 116 86 34 41 93 83 93 66 0 -4 15 7 33 24 17 17 57
42 87 57 76 36 126 66 185 109 28 20 74 51 103 69 38 24 55 42 61 63 7 27 11
30 47 30 32 0 39 3 39 20 0 12 -8 21 -20 23 -17 4 -48 20 -162 89 -23 13 -23
20 -7 99 5 30 48 55 108 64 28 4 52 8 53 9 1 0 8 -2 17 -5z m-1155 -108 c18
-23 57 -54 86 -71 28 -16 63 -39 76 -50 29 -24 63 -75 50 -75 -5 0 -14 -14
-21 -31 -7 -17 -19 -37 -27 -45 -49 -48 -183 37 -183 116 0 12 -14 36 -31 53
-29 29 -31 33 -20 63 8 21 8 40 2 57 -5 14 -7 35 -4 48 l6 23 16 -24 c9 -13
31 -42 50 -64z m1015 -106 c6 0 28 -13 49 -29 31 -24 34 -29 19 -33 -11 -3
-21 -18 -25 -36 -4 -22 -16 -36 -39 -48 -18 -9 -50 -30 -70 -46 -37 -29 -38
-29 -81 -14 -57 19 -173 35 -221 30 -71 -8 -124 -52 -109 -91 4 -10 -12 -13
-58 -13 -75 0 -109 8 -109 24 0 7 -21 32 -46 56 -39 39 -104 134 -104 153 0 4
12 2 28 -4 15 -6 109 -15 210 -20 196 -10 263 -2 318 38 14 10 53 35 86 55
l60 36 41 -29 c22 -16 45 -29 51 -29z m-1074 0 c11 -6 21 -26 25 -52 6 -34 18
-54 59 -93 28 -27 50 -55 48 -61 -2 -9 10 -9 45 -2 58 12 72 23 91 68 14 32
15 34 26 15 6 -10 33 -43 60 -72 27 -29 47 -55 45 -56 -18 -15 -128 -71 -189
-96 -41 -18 -94 -41 -117 -52 -23 -11 -74 -31 -113 -44 l-72 -24 5 42 c3 23 9
58 13 77 l8 35 7 -30 c6 -27 7 -26 8 13 1 60 21 53 21 -8 0 -29 5 -50 11 -50
6 0 8 8 5 18 -2 9 -6 37 -8 62 -3 49 13 65 24 23 4 -14 21 -40 38 -58 17 -17
27 -34 24 -38 -4 -4 -2 -7 4 -7 20 0 13 25 -13 50 -17 16 -22 27 -15 35 7 8 4
17 -9 29 -16 14 -19 28 -16 66 1 27 6 54 11 61 4 7 0 17 -10 24 -14 11 -14 13
-2 18 13 5 14 9 1 34 -8 15 -12 37 -9 48 7 20 6 20 -15 1 -21 -19 -21 -19 -21
7 0 30 3 31 30 17z m878 -221 c29 -7 51 -17 49 -23 -3 -11 -69 -50 -147 -87
-25 -12 -58 -31 -74 -42 -32 -23 -34 -21 -67 52 -28 63 -22 93 21 109 40 14
137 10 218 -9z m239 -612 c10 -49 27 -48 34 2 3 23 8 44 12 48 7 7 3 -51 -14
-212 -6 -49 -13 -116 -16 -147 -7 -73 -44 -118 -97 -118 -19 0 -55 -6 -78 -14
-24 -8 -59 -16 -79 -19 -121 -18 -254 -132 -334 -289 -57 -111 -79 -141 -165
-233 -71 -77 -290 -363 -290 -380 0 -16 27 5 129 103 125 118 151 135 151 98
0 -13 7 -27 16 -30 20 -8 27 -2 29 22 1 19 6 22 36 22 12 0 23 -8 26 -20 7
-25 33 -26 33 -1 0 23 43 53 64 45 25 -9 52 4 38 18 -9 9 -2 21 29 49 23 21
55 43 70 50 35 14 38 29 6 29 -20 0 -22 4 -19 45 3 29 -1 54 -11 68 -8 13 -21
42 -27 64 -11 34 -10 45 6 78 33 70 181 211 200 192 3 -2 0 -15 -5 -29 -25
-65 -50 -368 -30 -368 5 0 9 5 9 10 0 6 10 14 22 19 15 5 27 2 40 -11 10 -10
25 -18 33 -18 8 0 18 -8 24 -17 8 -16 3 -18 -49 -19 -111 -2 -103 9 -122 -176
-20 -193 -36 -245 -93 -288 -102 -77 -230 -156 -335 -207 -63 -31 -139 -71
-169 -90 -48 -31 -56 -33 -82 -22 -35 14 -49 5 -73 -45 -13 -28 -26 -36 -83
-54 -36 -12 -68 -20 -70 -18 -7 7 82 73 260 192 21 14 67 41 103 60 l64 36 23
-28 c24 -27 54 -26 43 2 -12 31 13 63 69 89 77 37 167 123 194 184 11 27 28
83 36 123 8 40 20 86 26 101 16 39 4 45 -29 15 -30 -30 -175 -121 -344 -218
-76 -43 -136 -87 -183 -132 -38 -37 -75 -68 -82 -68 -8 0 -16 14 -19 30 -8 40
-24 38 -24 -2 0 -36 24 -68 52 -68 15 0 18 -5 13 -22 -9 -31 -33 -68 -44 -68
-5 0 -12 7 -15 16 -5 13 -16 16 -55 12 -51 -5 -81 4 -81 25 0 7 13 28 29 48
36 43 71 105 71 124 0 16 36 74 108 176 97 137 81 151 -37 33 -48 -49 -110
-107 -137 -128 -27 -22 -63 -57 -79 -78 -47 -62 -64 -78 -80 -78 -10 0 -4 17
21 59 32 53 89 111 244 246 19 17 54 59 78 93 43 63 49 90 15 60 -27 -23 -80
-41 -123 -42 -21 -1 -37 0 -36 1 7 7 87 59 115 75 25 14 44 18 71 13 33 -6 46
0 126 54 109 74 191 156 234 236 112 205 203 323 323 419 86 68 97 80 120 138
13 35 30 88 37 118 13 63 10 202 -5 206 -5 2 -21 -14 -35 -35 -25 -39 -136
-141 -216 -198 -196 -141 -409 -337 -469 -433 -16 -25 -52 -74 -80 -110 -28
-36 -81 -110 -118 -165 -44 -67 -86 -116 -125 -147 -33 -27 -62 -48 -66 -48
-10 0 -7 67 6 97 6 15 10 32 9 37 -4 17 55 103 114 166 34 37 72 89 86 120 59
133 73 154 137 196 78 51 124 94 118 111 -3 7 3 17 14 23 11 6 50 38 87 71
102 90 318 250 403 298 41 24 103 63 137 87 34 24 63 44 65 44 2 0 5 -37 6
-82 4 -144 37 -368 54 -368 6 0 8 14 5 33 -45 298 -54 412 -35 435 11 12 14
-11 20 -134 4 -82 11 -166 15 -187z m-617 298 c0 -3 -31 -20 -68 -39 -38 -19
-75 -42 -83 -52 -8 -9 -31 -30 -51 -45 -21 -14 -62 -58 -91 -95 -71 -91 -305
-330 -350 -357 -19 -12 -59 -40 -89 -63 -59 -44 -144 -94 -162 -94 -7 0 -29
-9 -51 -20 -22 -11 -46 -20 -54 -20 -8 0 -25 -10 -37 -21 l-23 -21 -58 23
c-32 13 -59 24 -61 25 -2 1 4 19 12 39 22 51 121 161 196 215 34 25 80 61 102
80 23 19 39 31 37 25 -14 -35 -145 -255 -151 -255 -4 0 -8 21 -8 46 0 41 -2
45 -22 42 -12 -2 -42 -29 -70 -66 l-48 -64 25 -20 c15 -11 36 -18 52 -16 16 2
33 -3 39 -11 9 -12 18 -11 56 8 55 26 66 38 113 121 20 36 56 92 81 125 24 33
61 85 80 115 20 30 52 71 71 91 32 34 33 38 24 80 -5 24 -16 48 -25 54 -12 9
-10 13 12 22 15 6 50 13 78 16 54 6 72 -2 134 -60 34 -33 63 -29 96 13 16 20
39 48 52 61 13 14 22 26 20 27 -25 11 -43 25 -41 32 4 22 263 80 263 59z
m-664 -160 c16 -24 15 -26 -51 -105 -37 -45 -70 -78 -73 -75 -3 2 2 13 11 23
36 40 13 43 -43 6 -39 -26 -39 -27 -19 -43 20 -16 20 -16 -9 -44 l-29 -28 -32
36 c-18 21 -31 44 -29 53 2 9 46 49 98 89 52 40 106 81 120 92 32 26 36 26 56
-4z m1944 0 c96 -2 202 -6 235 -10 l60 -6 -3 -103 -3 -104 56 -108 c49 -93 58
-119 63 -177 l5 -69 -55 -51 c-63 -60 -78 -95 -78 -183 0 -56 -3 -66 -27 -89
-50 -45 -56 -30 -18 45 44 86 25 160 -41 160 -35 0 -84 18 -84 31 0 4 -22 22
-50 40 -40 26 -47 35 -40 49 13 24 62 55 81 52 9 -2 21 4 28 12 9 11 5 19 -19
40 -18 14 -35 26 -40 26 -5 0 -25 27 -45 61 -21 33 -51 82 -69 109 -17 27 -44
70 -60 97 -17 26 -52 81 -78 122 -48 73 -48 73 -21 66 15 -4 107 -9 203 -10z
m-375 -308 c16 -39 42 -85 57 -102 15 -16 38 -46 51 -65 15 -24 49 -49 102
-77 44 -23 86 -42 93 -43 27 0 140 -59 154 -78 8 -11 25 -26 39 -32 51 -23 73
-136 58 -303 -27 -313 -36 -357 -107 -505 -51 -108 -56 -111 -80 -47 -10 29
-25 131 -38 265 -8 90 -42 254 -66 320 -20 54 -88 154 -178 260 -26 30 -58 75
-72 100 -14 25 -59 101 -101 170 -42 69 -77 130 -77 136 0 5 22 18 49 28 28
10 55 24 62 32 6 8 14 14 18 14 3 0 19 -33 36 -73z m-143 -84 c25 -49 71 -128
102 -177 31 -50 56 -94 56 -99 0 -5 26 -39 58 -76 81 -91 149 -191 167 -241
24 -68 64 -277 70 -370 3 -47 10 -112 15 -145 10 -60 71 -209 123 -297 31 -54
80 -182 106 -281 l19 -68 -24 -11 c-13 -6 -24 -17 -24 -24 0 -7 -22 -26 -50
-43 -27 -17 -50 -36 -50 -42 0 -7 10 -5 25 5 25 17 26 17 13 -4 -15 -24 -102
-70 -134 -70 -13 0 -24 -8 -26 -18 -4 -14 -18 -21 -53 -25 -26 -4 -51 -5 -55
-2 -4 3 -31 40 -61 82 -145 214 -221 405 -237 603 -9 99 -12 111 -64 215 -63
127 -174 319 -215 373 -16 20 -36 48 -45 62 -8 14 -40 52 -70 86 l-55 61 15
79 c16 93 37 155 60 184 14 17 31 22 85 25 59 2 73 7 98 31 32 31 49 78 49
139 0 71 24 134 51 135 4 0 27 -39 51 -87z m-943 10 c-8 -9 -44 -36 -81 -60
-80 -52 -100 -77 -161 -204 -33 -68 -56 -104 -82 -124 -21 -15 -58 -60 -83
-99 -25 -39 -73 -97 -105 -129 -59 -57 -117 -103 -117 -93 0 2 34 72 75 155
41 83 75 155 75 160 0 4 11 24 25 44 36 54 12 55 -44 2 -49 -46 -64 -66 -137
-183 -78 -124 -103 -152 -162 -178 -31 -14 -77 -28 -101 -31 -65 -9 -81 -30
-81 -108 0 -69 -8 -79 -33 -42 -12 18 -18 20 -28 10 -18 -17 -29 -16 -29 2 0
32 -31 26 -95 -20 -85 -60 -110 -55 -80 18 15 36 -13 14 -93 -73 -46 -49 -87
-90 -92 -90 -39 0 9 109 103 235 170 225 269 333 370 400 84 57 88 59 81 41
-3 -8 -28 -31 -55 -51 -47 -34 -64 -68 -37 -77 8 -3 4 -12 -10 -26 -12 -12
-22 -27 -22 -33 0 -6 -18 -38 -41 -71 -44 -66 -46 -84 -3 -44 39 36 73 40 157
20 123 -28 151 -15 207 96 12 25 56 91 96 146 76 104 110 131 158 122 28 -6
46 6 71 47 37 58 128 154 160 169 41 20 51 20 35 1 -7 -8 -10 -15 -7 -15 8 0
117 64 142 84 27 21 41 20 24 -1z m-569 -537 c-71 -148 -114 -218 -149 -243
-31 -21 -37 -92 -12 -141 14 -27 17 -43 10 -47 -13 -9 -12 -11 -38 62 -26 70
-23 86 24 143 46 55 95 143 95 170 0 13 11 37 24 54 12 17 30 45 39 62 19 37
68 97 74 91 2 -3 -28 -71 -67 -151z m314 -325 c-14 -21 -60 -68 -102 -104
-108 -91 -163 -152 -201 -224 l-34 -63 -81 2 c-72 1 -115 -4 -167 -18 -15 -4
-30 -74 -31 -134 0 -29 69 -120 113 -150 60 -40 78 -38 117 15 19 26 41 45 52
45 12 0 27 16 42 43 18 33 30 43 53 45 17 2 39 -3 49 -11 19 -14 19 -15 -5
-27 -35 -18 -79 -61 -96 -94 -22 -42 -64 -168 -58 -174 3 -3 29 6 58 21 30 14
95 40 144 56 92 31 171 70 292 144 36 22 108 59 158 83 51 23 116 58 145 77
29 19 75 47 101 62 27 15 51 33 53 39 2 6 22 23 44 36 31 19 45 37 60 78 11
29 20 60 20 70 0 9 5 24 10 32 16 26 -1 -91 -20 -136 -29 -69 -143 -151 -376
-270 -89 -45 -194 -102 -231 -125 -191 -116 -349 -179 -453 -179 l-62 0 -65
63 c-67 63 -187 200 -234 266 -14 20 -48 78 -75 129 -41 77 -54 94 -77 99 -25
5 -26 7 -10 18 10 7 77 37 149 68 111 47 191 71 301 93 12 2 35 16 52 30 23
19 31 22 31 11 0 -21 34 -30 84 -23 40 6 79 27 201 106 33 21 63 39 68 39 4 1
-4 -17 -19 -38z m1216 -463 c0 -35 7 -91 15 -126 19 -82 86 -249 133 -336 l38
-69 -42 -66 c-24 -36 -71 -105 -105 -153 -35 -48 -69 -98 -77 -113 -10 -20
-18 -25 -30 -19 -27 12 -120 17 -199 9 -65 -6 -77 -10 -104 -38 -24 -25 -30
-28 -25 -12 9 35 53 208 70 277 9 36 16 75 16 85 -1 42 94 364 119 403 66 106
161 219 184 220 4 0 7 -28 7 -62z m746 -573 c6 -32 -8 -54 -78 -125 -36 -36
-35 -66 2 -121 30 -45 38 -65 20 -54 -11 7 -49 -33 -50 -51 0 -25 -30 -22 -65
6 -30 24 -33 29 -18 34 10 4 30 17 45 30 24 22 26 29 24 88 -2 36 -8 73 -13
82 -8 14 -3 26 23 55 19 20 44 55 56 79 20 37 24 40 35 25 7 -9 15 -31 19 -48z
m-490 -57 c17 -33 7 -36 -28 -8 l-25 19 -6 -36 c-7 -44 20 -103 70 -150 19
-18 29 -33 23 -33 -25 0 -78 29 -97 54 -33 41 -46 30 -17 -13 29 -44 65 -61
129 -61 50 0 71 -15 80 -57 8 -39 -3 -46 -39 -27 -17 8 -56 14 -97 14 -58 0
-70 3 -79 20 -6 11 -8 20 -5 20 4 0 3 5 0 10 -4 7 -23 -1 -48 -20 -22 -16 -49
-30 -58 -30 -10 0 -19 -4 -21 -10 -1 -5 -25 -12 -53 -16 -46 -5 -49 -4 -31 10
10 8 24 17 30 19 8 3 7 8 -1 19 -10 12 -7 24 18 64 18 27 46 67 63 89 18 22
54 77 81 123 l50 83 23 -28 c13 -15 30 -40 38 -55z"/>
<path d="M2107 7132 c-11 -11 -17 -36 -17 -63 0 -72 -22 -85 -43 -26 -9 26
-29 10 -21 -16 3 -12 19 -35 34 -52 40 -44 80 -118 80 -149 0 -44 24 -25 32
25 3 24 7 84 7 133 1 81 -1 94 -25 128 -15 21 -28 38 -29 38 -1 0 -9 -8 -18
-18z"/>
<path d="M3153 4509 l-93 -31 -26 21 c-15 12 -29 19 -32 16 -12 -12 36 -46
101 -72 51 -20 87 -43 127 -81 l55 -53 -38 6 c-21 3 -45 9 -54 12 -10 4 -14 2
-11 -7 2 -8 22 -19 44 -25 31 -9 45 -9 66 2 30 14 37 31 36 85 0 29 -7 44 -30
63 -16 14 -34 25 -39 25 -6 0 -7 5 -4 10 3 6 25 10 49 10 52 0 61 8 39 32 -24
26 -82 22 -190 -13z"/>
<path d="M1784 3876 c-11 -8 -38 -18 -60 -21 -21 -4 -44 -11 -50 -16 -7 -6
-15 0 -23 17 -6 14 -15 24 -20 22 -12 -5 -96 -102 -128 -150 -18 -26 -33 -63
-37 -93 -4 -27 -9 -58 -12 -67 -8 -28 15 -21 60 17 117 101 257 229 280 256
38 45 33 65 -10 35z"/>
<path d="M3677 3723 c-37 -100 -62 -182 -56 -187 2 -2 29 2 59 11 30 8 70 18
88 23 43 11 48 16 30 33 -7 8 -22 34 -32 58 -28 67 -57 129 -61 129 -2 0 -14
-30 -28 -67z"/>
</g>
</svg>
